<svg width="290" height="85" viewBox="0 0 290 85" fill="none" xmlns="http://www.w3.org/2000/svg">
<path d="M288.435 75.5155C288.435 80.1078 284.749 83.8277 280.19 83.8277H10.3766C5.81985 83.8277 2.12109 80.1078 2.12109 75.5155V9.2291C2.12109 4.63899 5.81985 0.906128 10.3766 0.906128H280.188C284.749 0.906128 288.433 4.63899 288.433 9.2291L288.435 75.5155Z" fill="black"/>
<path d="M65.1514 41.9226C65.0892 35.1852 70.8095 31.9074 71.071 31.7548C67.8314 27.1496 62.8101 26.5204 61.0456 26.4702C56.8283 26.0375 52.7375 28.9307 50.5892 28.9307C48.398 28.9307 45.0898 26.5121 41.5243 26.5831C36.9361 26.6521 32.6437 29.2421 30.2896 33.2641C25.4312 41.4648 29.0546 53.5161 33.7093 60.1449C36.0377 63.3913 38.7585 67.0161 42.3197 66.8886C45.8037 66.7485 47.1052 64.7229 51.3096 64.7229C55.4754 64.7229 56.6975 66.8886 60.3295 66.807C64.0687 66.7485 66.4228 63.546 68.6697 60.2703C71.3605 56.5493 72.4411 52.8848 72.484 52.6967C72.3961 52.6674 65.2222 49.9979 65.1514 41.9226Z" fill="white"/>
<path d="M58.2905 22.1096C60.1644 19.8248 61.4465 16.7163 61.0906 13.5619C58.3784 13.679 54.9866 15.391 53.0334 17.6257C51.3053 19.5948 49.7616 22.8225 50.1604 25.8578C53.2071 26.0793 56.3352 24.3589 58.2905 22.1096Z" fill="white"/>
<path d="M105.72 21.489C105.72 23.9494 104.964 25.8015 103.452 27.0453C102.052 28.1929 100.062 28.7678 97.4853 28.7678C96.2074 28.7678 95.114 28.7135 94.1985 28.6048V15.1612C95.3927 14.9731 96.6791 14.877 98.0685 14.877C100.523 14.877 102.374 15.3975 103.621 16.4385C105.019 17.6154 105.72 19.2982 105.72 21.489ZM103.351 21.5496C103.351 19.9546 102.918 18.7317 102.052 17.8788C101.186 17.028 99.9209 16.6016 98.255 16.6016C97.5475 16.6016 96.945 16.6475 96.4454 16.7437V26.9638C96.722 27.0056 97.228 27.0244 97.9634 27.0244C99.6829 27.0244 101.01 26.5582 101.945 25.6259C102.88 24.6936 103.351 23.3348 103.351 21.5496Z" fill="white"/>
<path d="M118.282 23.6382C118.282 25.1538 117.838 26.3955 116.951 27.3696C116.02 28.3709 114.787 28.8705 113.248 28.8705C111.764 28.8705 110.583 28.3918 109.702 27.4302C108.823 26.4707 108.383 25.2604 108.383 23.8012C108.383 22.2752 108.836 21.0231 109.745 20.051C110.654 19.079 111.876 18.5919 113.415 18.5919C114.899 18.5919 116.091 19.0706 116.994 20.0301C117.851 20.9625 118.282 22.1665 118.282 23.6382ZM115.952 23.7093C115.952 22.7999 115.75 22.0202 115.349 21.3701C114.877 20.5841 114.206 20.1911 113.334 20.1911C112.431 20.1911 111.745 20.5841 111.273 21.3701C110.87 22.0202 110.671 22.8125 110.671 23.749C110.671 24.6583 110.872 25.438 111.273 26.0882C111.76 26.8742 112.438 27.2672 113.312 27.2672C114.17 27.2672 114.843 26.8679 115.328 26.0673C115.744 25.4046 115.952 24.6186 115.952 23.7093Z" fill="white"/>
<path d="M135.126 18.7922L131.963 28.6465H129.905L128.595 24.3674C128.263 23.2992 127.993 22.2373 127.783 21.1837H127.742C127.547 22.2665 127.277 23.3264 126.929 24.3674L125.538 28.6465H123.456L120.482 18.7922H122.791L123.934 23.4769C124.211 24.5848 124.438 25.6405 124.62 26.6397H124.661C124.828 25.8161 125.105 24.7667 125.495 23.4978L126.929 18.7943H128.76L130.135 23.3974C130.467 24.52 130.737 25.6007 130.945 26.6418H131.007C131.159 25.6279 131.389 24.5472 131.693 23.3974L132.92 18.7943H135.126V18.7922Z" fill="white"/>
<path d="M146.775 28.6465H144.528V23.0024C144.528 21.2632 143.85 20.3935 142.491 20.3935C141.824 20.3935 141.286 20.6319 140.868 21.1106C140.454 21.5893 140.244 22.1537 140.244 22.7996V28.6444H137.997V21.6081C137.997 20.7426 137.969 19.804 137.916 18.7881H139.89L139.995 20.3287H140.057C140.319 19.85 140.709 19.4549 141.222 19.1393C141.831 18.7714 142.512 18.5853 143.258 18.5853C144.202 18.5853 144.986 18.8822 145.61 19.4779C146.387 20.2075 146.775 21.2966 146.775 22.7432V28.6465Z" fill="white"/>
<path d="M152.971 28.6465H150.726V14.2706H152.971V28.6465Z" fill="white"/>
<path d="M166.199 23.6382C166.199 25.1538 165.755 26.3955 164.868 27.3696C163.937 28.3709 162.702 28.8705 161.165 28.8705C159.679 28.8705 158.498 28.3918 157.619 27.4302C156.74 26.4707 156.3 25.2604 156.3 23.8012C156.3 22.2752 156.753 21.0231 157.662 20.051C158.571 19.079 159.793 18.5919 161.33 18.5919C162.816 18.5919 164.006 19.0706 164.911 20.0301C165.768 20.9625 166.199 22.1665 166.199 23.6382ZM163.867 23.7093C163.867 22.7999 163.665 22.0202 163.264 21.3701C162.795 20.5841 162.121 20.1911 161.251 20.1911C160.346 20.1911 159.66 20.5841 159.19 21.3701C158.787 22.0202 158.588 22.8125 158.588 23.749C158.588 24.6583 158.79 25.438 159.19 26.0882C159.677 26.8742 160.355 27.2672 161.229 27.2672C162.087 27.2672 162.758 26.8679 163.243 26.0673C163.661 25.4046 163.867 24.6186 163.867 23.7093Z" fill="white"/>
<path d="M177.073 28.6468H175.056L174.889 27.5117H174.827C174.136 28.4169 173.152 28.8705 171.874 28.8705C170.92 28.8705 170.148 28.5716 169.567 27.9779C169.04 27.4386 168.776 26.7676 168.776 25.9711C168.776 24.767 169.291 23.8493 170.326 23.2138C171.36 22.5784 172.813 22.2669 174.685 22.2815V22.0976C174.685 20.7994 173.986 20.1514 172.586 20.1514C171.589 20.1514 170.71 20.396 169.951 20.8809L169.494 19.4427C170.433 18.8762 171.593 18.5919 172.961 18.5919C175.603 18.5919 176.928 19.9507 176.928 22.6682V26.2972C176.928 27.2818 176.977 28.0657 177.073 28.6468ZM174.741 25.2604V23.7406C172.262 23.6988 171.023 24.3615 171.023 25.7265C171.023 26.2408 171.165 26.6254 171.454 26.8825C171.743 27.1397 172.112 27.2672 172.552 27.2672C173.045 27.2672 173.506 27.1146 173.926 26.8115C174.348 26.5063 174.608 26.1195 174.704 25.645C174.728 25.5384 174.741 25.4088 174.741 25.2604Z" fill="white"/>
<path d="M189.841 28.6465H187.847L187.742 27.064H187.68C187.043 28.2681 185.958 28.8701 184.434 28.8701C183.216 28.8701 182.202 28.404 181.398 27.4716C180.594 26.5393 180.193 25.329 180.193 23.8427C180.193 22.2477 180.628 20.9558 181.503 19.9691C182.35 19.0493 183.388 18.5894 184.623 18.5894C185.98 18.5894 186.93 19.0347 187.47 19.9273H187.513V14.2706H189.762V25.9916C189.762 26.9511 189.788 27.8354 189.841 28.6465ZM187.513 24.4907V22.8476C187.513 22.5633 187.491 22.3334 187.451 22.1578C187.324 21.631 187.052 21.1878 186.638 20.8304C186.22 20.4729 185.716 20.2931 185.135 20.2931C184.297 20.2931 183.641 20.6172 183.158 21.2673C182.68 21.9174 182.438 22.7473 182.438 23.7611C182.438 24.7353 182.667 25.5255 183.128 26.1338C183.615 26.7818 184.271 27.1058 185.092 27.1058C185.83 27.1058 186.419 26.8362 186.867 26.2947C187.301 25.7951 187.513 25.1931 187.513 24.4907Z" fill="white"/>
<path d="M209.058 23.6382C209.058 25.1538 208.614 26.3955 207.727 27.3696C206.796 28.3709 205.566 28.8705 204.024 28.8705C202.542 28.8705 201.361 28.3918 200.478 27.4302C199.599 26.4707 199.159 25.2604 199.159 23.8012C199.159 22.2752 199.612 21.0231 200.521 20.051C201.43 19.079 202.652 18.5919 204.193 18.5919C205.675 18.5919 206.869 19.0706 207.77 20.0301C208.627 20.9625 209.058 22.1665 209.058 23.6382ZM206.73 23.7093C206.73 22.7999 206.528 22.0202 206.127 21.3701C205.653 20.5841 204.984 20.1911 204.11 20.1911C203.209 20.1911 202.523 20.5841 202.049 21.3701C201.646 22.0202 201.447 22.8125 201.447 23.749C201.447 24.6583 201.648 25.438 202.049 26.0882C202.536 26.8742 203.214 27.2672 204.088 27.2672C204.946 27.2672 205.621 26.8679 206.106 26.0673C206.52 25.4046 206.73 24.6186 206.73 23.7093Z" fill="white"/>
<path d="M221.14 28.6465H218.895V23.0024C218.895 21.2632 218.218 20.3935 216.856 20.3935C216.19 20.3935 215.651 20.6319 215.236 21.1106C214.82 21.5893 214.612 22.1537 214.612 22.7996V28.6444H212.363V21.6081C212.363 20.7426 212.337 19.804 212.283 18.7881H214.256L214.361 20.3287H214.423C214.687 19.85 215.077 19.4549 215.587 19.1393C216.198 18.7714 216.878 18.5853 217.626 18.5853C218.567 18.5853 219.352 18.8822 219.976 19.4779C220.754 20.2075 221.14 21.2966 221.14 22.7432V28.6465Z" fill="white"/>
<path d="M236.261 20.4335H233.787V25.2206C233.787 26.4372 234.227 27.0455 235.097 27.0455C235.5 27.0455 235.835 27.0121 236.098 26.9431L236.156 28.605C235.713 28.768 235.129 28.8496 234.411 28.8496C233.524 28.8496 232.833 28.5862 232.334 28.0594C231.832 27.5326 231.583 26.6462 231.583 25.4024V20.4335H230.106V18.7925H231.583V16.9864L233.785 16.3384V18.7904H236.259V20.4335H236.261Z" fill="white"/>
<path d="M248.156 28.6465H245.907V23.0441C245.907 21.2777 245.23 20.3935 243.873 20.3935C242.831 20.3935 242.119 20.9056 241.729 21.9299C241.662 22.1452 241.624 22.4086 241.624 22.718V28.6444H239.379V14.2706H241.624V20.2095H241.666C242.374 19.1288 243.388 18.5894 244.702 18.5894C245.633 18.5894 246.403 18.8863 247.014 19.4821C247.775 20.2242 248.156 21.3279 248.156 22.787V28.6465Z" fill="white"/>
<path d="M260.427 23.2532C260.427 23.6462 260.397 23.9765 260.343 24.2462H253.604C253.635 25.2203 253.956 25.9624 254.58 26.4766C255.15 26.9365 255.886 27.1665 256.786 27.1665C257.783 27.1665 258.692 27.0118 259.511 26.7003L259.863 28.2221C258.905 28.6277 257.777 28.8305 256.471 28.8305C254.906 28.8305 253.673 28.381 252.781 27.4821C251.885 26.5833 251.441 25.3771 251.441 23.8636C251.441 22.3773 251.855 21.1398 252.689 20.1531C253.559 19.0995 254.737 18.5728 256.222 18.5728C257.676 18.5728 258.78 19.0995 259.526 20.1531C260.129 20.9893 260.427 22.024 260.427 23.2532ZM258.283 22.6867C258.3 22.0366 258.152 21.4763 257.847 21.0039C257.457 20.3956 256.863 20.0904 256.059 20.0904C255.326 20.0904 254.728 20.3872 254.271 20.983C253.898 21.4575 253.677 22.024 253.604 22.6867H258.283Z" fill="white"/>
<path d="M115.572 66.423H110.703L108.036 58.2515H98.7652L96.2246 66.423H91.4841L100.669 38.6036H106.342L115.572 66.423ZM107.232 54.8232L104.82 47.559C104.565 46.8169 104.087 45.0693 103.381 42.3183H103.296C103.015 43.5015 102.562 45.2491 101.941 47.559L99.5714 54.8232H107.232Z" fill="white"/>
<path d="M139.193 56.1458C139.193 59.5574 138.248 62.254 136.356 64.2336C134.663 65.9959 132.559 66.8759 130.049 66.8759C127.339 66.8759 125.392 65.9269 124.206 64.0288H124.121V74.5959H119.55V52.9663C119.55 50.8215 119.492 48.6203 119.38 46.3626H123.4L123.655 49.5422H123.741C125.265 47.1465 127.579 45.9508 130.683 45.9508C133.11 45.9508 135.137 46.8852 136.757 48.7562C138.383 50.6292 139.193 53.0917 139.193 56.1458ZM134.536 56.3088C134.536 54.3564 134.086 52.7468 133.181 51.48C132.193 50.1588 130.866 49.4983 129.202 49.4983C128.074 49.4983 127.049 49.8662 126.134 50.5915C125.216 51.3232 124.616 52.2785 124.335 53.4617C124.193 54.0136 124.123 54.4651 124.123 54.8205V58.1651C124.123 59.6243 124.582 60.8555 125.499 61.861C126.417 62.8665 127.609 63.3682 129.075 63.3682C130.797 63.3682 132.137 62.7202 133.095 61.4283C134.056 60.1343 134.536 58.4285 134.536 56.3088Z" fill="white"/>
<path d="M162.857 56.1458C162.857 59.5574 161.911 62.254 160.018 64.2336C158.326 65.9959 156.223 66.8759 153.712 66.8759C151.002 66.8759 149.055 65.9269 147.872 64.0288H147.786V74.5959H143.215V52.9663C143.215 50.8215 143.157 48.6203 143.046 46.3626H147.066L147.321 49.5422H147.407C148.929 47.1465 151.242 45.9508 154.349 45.9508C156.774 45.9508 158.8 46.8852 160.425 48.7562C162.044 50.6292 162.857 53.0917 162.857 56.1458ZM158.2 56.3088C158.2 54.3564 157.747 52.7468 156.843 51.48C155.854 50.1588 154.531 49.4983 152.865 49.4983C151.736 49.4983 150.713 49.8662 149.795 50.5915C148.878 51.3232 148.279 52.2785 147.998 53.4617C147.859 54.0136 147.786 54.4651 147.786 54.8205V58.1651C147.786 59.6243 148.245 60.8555 149.158 61.861C150.076 62.8644 151.268 63.3682 152.739 63.3682C154.461 63.3682 155.801 62.7202 156.759 61.4283C157.719 60.1343 158.2 58.4285 158.2 56.3088Z" fill="white"/>
<path d="M189.314 58.6212C189.314 60.9876 188.471 62.9128 186.78 64.3991C184.921 66.0234 182.333 66.8345 179.008 66.8345C175.938 66.8345 173.476 66.2575 171.613 65.1015L172.672 61.3868C174.679 62.57 176.881 63.1637 179.28 63.1637C181.002 63.1637 182.342 62.7832 183.304 62.0265C184.263 61.2698 184.741 60.2538 184.741 58.987C184.741 57.8582 184.346 56.9071 183.555 56.1357C182.768 55.3643 181.454 54.6473 179.619 53.9846C174.623 52.1681 172.128 49.507 172.128 46.0076C172.128 43.7207 173.002 41.8456 174.754 40.3864C176.499 38.9252 178.828 38.1957 181.739 38.1957C184.336 38.1957 186.493 38.6368 188.214 39.5168L187.071 43.15C185.463 42.2971 183.645 41.8706 181.611 41.8706C180.003 41.8706 178.746 42.2574 177.846 43.0266C177.085 43.7144 176.703 44.5527 176.703 45.5456C176.703 46.6452 177.138 47.5545 178.013 48.2694C178.774 48.93 180.157 49.6449 182.164 50.4163C184.619 51.38 186.422 52.5067 187.582 53.7986C188.737 55.0863 189.314 56.698 189.314 58.6212Z" fill="white"/>
<path d="M204.427 49.7073H199.388V59.4465C199.388 61.9237 200.276 63.1612 202.055 63.1612C202.872 63.1612 203.55 63.0922 204.086 62.9543L204.212 66.3387C203.312 66.6669 202.126 66.832 200.658 66.832C198.852 66.832 197.442 66.2948 196.423 65.2224C195.409 64.1479 194.899 62.3459 194.899 59.8144V49.7031H191.897V46.3584H194.899V42.6855L199.388 41.3644V46.3584H204.427V49.7073Z" fill="white"/>
<path d="M227.16 56.2279C227.16 59.3113 226.255 61.8428 224.45 63.8224C222.557 65.8606 220.044 66.8765 216.912 66.8765C213.893 66.8765 211.489 65.9003 209.697 63.9478C207.905 61.9954 207.008 59.5308 207.008 56.5603C207.008 53.4518 207.93 50.9057 209.781 48.9261C211.627 46.9444 214.118 45.9535 217.25 45.9535C220.269 45.9535 222.698 46.9297 224.531 48.8843C226.285 50.7803 227.16 53.2282 227.16 56.2279ZM222.417 56.3722C222.417 54.5221 222.012 52.9355 221.191 51.6123C220.233 50.011 218.863 49.2125 217.087 49.2125C215.25 49.2125 213.854 50.0131 212.896 51.6123C212.075 52.9376 211.67 54.5493 211.67 56.4558C211.67 58.3058 212.075 59.8924 212.896 61.2136C213.884 62.8148 215.265 63.6134 217.047 63.6134C218.792 63.6134 220.162 62.7981 221.15 61.1718C221.993 59.8234 222.417 58.2201 222.417 56.3722Z" fill="white"/>
<path d="M242.019 50.2822C241.566 50.2006 241.084 50.1588 240.578 50.1588C238.97 50.1588 237.726 50.7504 236.851 51.9357C236.09 52.9809 235.709 54.302 235.709 55.897V66.4223H231.14L231.183 52.6799C231.183 50.3679 231.125 48.2628 231.011 46.3647H234.993L235.16 50.2027H235.286C235.769 48.8837 236.53 47.8217 237.572 47.0253C238.59 46.3083 239.69 45.9508 240.876 45.9508C241.298 45.9508 241.68 45.9801 242.019 46.0323V50.2822Z" fill="white"/>
<path d="M262.461 55.4433C262.461 56.2419 262.408 56.915 262.294 57.4648H248.581C248.634 59.4465 249.297 60.962 250.57 62.0072C251.726 62.9417 253.22 63.4099 255.056 63.4099C257.086 63.4099 258.939 63.0943 260.604 62.4609L261.321 65.5547C259.374 66.3825 257.075 66.7943 254.423 66.7943C251.233 66.7943 248.729 65.8787 246.906 64.0496C245.088 62.2205 244.177 59.7642 244.177 56.6829C244.177 53.6581 245.024 51.1391 246.72 49.1302C248.495 46.9855 250.894 45.9131 253.913 45.9131C256.878 45.9131 259.123 46.9855 260.647 49.1302C261.854 50.8339 262.461 52.9411 262.461 55.4433ZM258.102 54.2873C258.132 52.9662 257.834 51.8248 257.215 50.8611C256.424 49.6215 255.208 49.0027 253.572 49.0027C252.078 49.0027 250.862 49.6069 249.934 50.8193C249.173 51.783 248.72 52.939 248.581 54.2852H258.102V54.2873Z" fill="white"/>
</svg>
