<svg width="40" height="40" viewBox="0 0 40 40" fill="none" xmlns="http://www.w3.org/2000/svg">
<g clip-path="url(#clip0_1219_1140)">
<path d="M2.22217 20C2.22217 23.5162 3.26482 26.9533 5.21826 29.8769C7.17171 32.8004 9.94822 35.079 13.1967 36.4246C16.4451 37.7701 20.0197 38.1222 23.4682 37.4362C26.9168 36.7503 30.0845 35.0571 32.5707 32.5708C35.057 30.0846 36.7502 26.9169 37.4361 23.4683C38.1221 20.0198 37.77 16.4452 36.4245 13.1968C35.0789 9.94832 32.8003 7.17181 29.8768 5.21836C26.9532 3.26491 23.5161 2.22227 19.9999 2.22227C15.285 2.22227 10.7631 4.09527 7.42916 7.42925C4.09518 10.7632 2.22217 15.2851 2.22217 20ZM19.5222 11.1112C19.8126 11.4081 19.9753 11.8069 19.9753 12.2223C19.9753 12.6376 19.8126 13.0365 19.5222 13.3334L14.4444 18.4445L30.1555 18.4445C30.5681 18.4445 30.9637 18.6084 31.2554 18.9001C31.5472 19.1918 31.7111 19.5875 31.7111 20C31.7111 20.4126 31.5472 20.8083 31.2554 21.1C30.9637 21.3917 30.5681 21.5556 30.1555 21.5556L14.5999 21.5556L19.5222 26.4778C19.8169 26.7725 19.9824 27.1722 19.9824 27.5889C19.9824 28.0057 19.8169 28.4054 19.5222 28.7C19.2275 28.9947 18.8278 29.1603 18.4111 29.1603C17.9943 29.1603 17.5946 28.9947 17.2999 28.7L8.5555 19.9112L17.3222 11.1112C17.4666 10.9667 17.6381 10.8521 17.8268 10.7739C18.0156 10.6957 18.2179 10.6555 18.4222 10.6555C18.6265 10.6555 18.8288 10.6957 19.0175 10.7739C19.2062 10.8521 19.3777 10.9667 19.5222 11.1112Z" fill="#F1A501"/>
</g>
<defs>
<clipPath id="clip0_1219_1140">
<rect width="40" height="40" fill="white" transform="matrix(0 -1 1 0 0 40)"/>
</clipPath>
</defs>
</svg>
