<svg width="40" height="40" viewBox="0 0 40 40" fill="none" xmlns="http://www.w3.org/2000/svg">
<g clip-path="url(#clip0_1219_1144)">
<path d="M37.7778 20C37.7778 16.4838 36.7352 13.0467 34.7817 10.1231C32.8283 7.19961 30.0518 4.92099 26.8033 3.57543C23.5549 2.22987 19.9803 1.87781 16.5318 2.56377C13.0832 3.24973 9.91553 4.9429 7.42926 7.42917C4.943 9.91543 3.24983 13.0831 2.56387 16.5317C1.87791 19.9802 2.22997 23.5548 3.57553 26.8032C4.92108 30.0517 7.19971 32.8282 10.1232 34.7816C13.0468 36.7351 16.4839 37.7777 20.0001 37.7777C24.715 37.7777 29.2369 35.9047 32.5708 32.5707C35.9048 29.2368 37.7778 24.7149 37.7778 20ZM20.4778 28.8888C20.1874 28.5919 20.0247 28.1931 20.0247 27.7777C20.0247 27.3624 20.1874 26.9635 20.4778 26.6666L25.5556 21.5555H9.8445C9.43194 21.5555 9.03628 21.3916 8.74455 21.0999C8.45283 20.8082 8.28894 20.4125 8.28894 20C8.28894 19.5874 8.45283 19.1917 8.74455 18.9C9.03628 18.6083 9.43194 18.4444 9.8445 18.4444H25.4001L20.4778 13.5222C20.1831 13.2275 20.0176 12.8278 20.0176 12.4111C20.0176 11.9943 20.1831 11.5946 20.4778 11.3C20.7725 11.0053 21.1722 10.8397 21.5889 10.8397C22.0057 10.8397 22.4054 11.0053 22.7001 11.3L31.4445 20.0888L22.6778 28.8888C22.5334 29.0333 22.3619 29.1479 22.1732 29.2261C21.9844 29.3043 21.7821 29.3445 21.5778 29.3445C21.3735 29.3445 21.1712 29.3043 20.9825 29.2261C20.7938 29.1479 20.6223 29.0333 20.4778 28.8888Z" fill="#F1A501"/>
</g>
<defs>
<clipPath id="clip0_1219_1144">
<rect width="40" height="40" fill="white" transform="matrix(0 1 -1 0 40 0)"/>
</clipPath>
</defs>
</svg>
