<svg width="181" height="164" viewBox="0 0 181 164" fill="none" xmlns="http://www.w3.org/2000/svg">
<path d="M74.8825 12.6238C74.8825 12.6238 20.5917 14.8558 17.5111 60.076C14.4304 105.296 0.18422 148.315 34.8379 150.886C69.4916 153.456 150.736 158.442 162.286 131.504C173.836 104.565 179.614 3.13792 74.8825 12.6238Z" fill="#F4F7FA"/>
<path d="M97.6435 136.281L107.849 144.433C107.849 144.433 113.818 140.561 114.175 134.747C114.902 122.887 124.91 124.373 129.191 124.347C135.649 124.31 141.323 121.367 136.933 114.607C132.544 107.847 145.576 103.128 156.013 104.619C166.226 106.078 174.629 88.1687 152.805 82.9167C139.772 79.7793 133.387 91.5251 128.797 96.6631C124.207 101.801 115.932 95.9203 113.608 104.821C111.623 112.422 112.889 120.134 106.566 121.4C100.243 122.666 96.5772 126.816 97.6435 136.281Z" fill="url(#paint0_linear_619_1742)"/>
<path d="M97.6435 136.281L107.849 144.433C107.849 144.433 113.818 140.561 114.175 134.747C114.902 122.887 124.91 124.373 129.191 124.347C135.649 124.31 140.567 121.525 137.77 114.936C134.606 107.482 145.576 103.128 156.013 104.619C166.226 106.078 174.629 88.1687 152.805 82.9167C139.772 79.7793 133.387 91.5251 128.797 96.6631C124.207 101.801 115.932 95.9203 113.608 104.821C111.623 112.422 112.889 120.134 106.566 121.4C100.243 122.666 96.5772 126.816 97.6435 136.281Z" fill="#CBD0D8"/>
<g style="mix-blend-mode:soft-light" opacity="0.9">
<g style="mix-blend-mode:soft-light" opacity="0.9">
<path d="M101.328 140.787L101.57 140.916C101.648 140.761 109.456 125.296 121.673 112.374C132.929 100.47 150.336 88.3516 169.358 98.2269L169.481 97.9754C161.014 93.5797 152.157 93.1011 143.157 96.553C135.967 99.3104 128.672 104.569 121.475 112.182C109.231 125.134 101.408 140.632 101.328 140.787Z" fill="#BEB8F2"/>
</g>
<g style="mix-blend-mode:soft-light" opacity="0.9">
<path d="M139.456 98.1628L139.691 98.3061C144.306 90.2499 154.836 81.9768 154.942 81.8943L154.778 81.6689C154.672 81.7528 144.102 90.0597 139.456 98.1628Z" fill="#BEB8F2"/>
</g>
<g style="mix-blend-mode:soft-light" opacity="0.9">
<path d="M145.514 96.0329C156.261 97.1597 161.36 104.811 161.41 104.888L161.637 104.731C161.585 104.653 156.421 96.8933 145.542 95.7531L145.514 96.0329Z" fill="#BEB8F2"/>
</g>
<g style="mix-blend-mode:soft-light" opacity="0.9">
<path d="M114.132 121.271C124.397 112.705 140.138 121.167 140.285 121.263L140.445 121.037C140.309 120.929 124.317 112.412 113.961 121.054L114.132 121.271Z" fill="#BEB8F2"/>
</g>
<g style="mix-blend-mode:soft-light" opacity="0.9">
<path d="M117.394 116.773L117.639 116.896C121.327 109.077 117.723 98.7924 117.686 98.6879L117.43 98.7852C117.468 98.8884 121.03 109.063 117.394 116.773Z" fill="#BEB8F2"/>
</g>
<g style="mix-blend-mode:soft-light" opacity="0.9">
<path d="M102.851 138.511C106.22 134.676 114.285 135.952 114.366 135.965L114.408 135.687C114.072 135.632 106.117 134.374 102.649 138.322L102.851 138.511Z" fill="#BEB8F2"/>
</g>
<g style="mix-blend-mode:soft-light" opacity="0.9">
<path d="M104.652 134.824L104.893 134.956C106.756 131.343 104.747 124.055 104.086 121.661C103.994 121.322 103.913 121.03 103.908 120.975L103.636 120.994C103.642 121.072 103.695 121.264 103.825 121.737C104.477 124.103 106.464 131.309 104.652 134.824Z" fill="#BEB8F2"/>
</g>
</g>
<path d="M118.801 135.73C117.916 135.781 115.868 143.986 112.286 138.868C111.391 137.589 109.753 132.899 103.305 133.846L99.55 134.398C97.958 131.865 96.9384 129.191 100.511 127.457C106.06 124.765 104.238 115.216 101.93 112.141C99.0736 108.334 92.621 99.3437 101.129 95.0589C108.212 91.4916 113.562 90.5186 112.247 81.4928C110.932 72.4671 115.078 65.9292 123.987 64.857C133.362 63.7302 138.614 51.0001 146.983 53.4127C161.566 57.6164 153.651 79.4791 138.751 88.1096C123.852 96.74 134.174 100.391 136.117 107.621C136.325 108.622 136.411 109.643 136.373 110.664C136.067 118.636 128.142 121.447 123.492 128.778C117.147 138.776 120.292 135.645 118.801 135.73Z" fill="#97A6B7"/>
<g style="mix-blend-mode:soft-light" opacity="0.5">
<g style="mix-blend-mode:soft-light" opacity="0.5">
<path d="M108.76 135.511L108.294 135.508C108.792 104.058 125.841 72.8667 152.791 54.1035L153.07 54.446C126.234 73.1299 109.254 104.192 108.76 135.511Z" fill="#FCFDFE"/>
</g>
<g style="mix-blend-mode:soft-light" opacity="0.5">
<path d="M110.624 118.373L110.166 118.456C107.71 106.323 94.5117 98.8837 94.3801 98.8103L94.6229 98.4412C94.7558 98.5164 108.13 106.05 110.624 118.373Z" fill="#FCFDFE"/>
</g>
<g style="mix-blend-mode:soft-light" opacity="0.5">
<path d="M109.023 129.726L108.579 129.598C112.733 117.637 136.702 111.761 136.944 111.703L137.058 112.12C136.818 112.177 113.097 117.993 109.023 129.726Z" fill="#FCFDFE"/>
</g>
<g style="mix-blend-mode:soft-light" opacity="0.5">
<path d="M121.597 89.1775L121.142 89.0846C123.549 79.3779 114.413 66.7384 114.32 66.6117L114.707 66.3693C114.801 66.4977 124.048 79.2913 121.597 89.1775Z" fill="#FCFDFE"/>
</g>
<g style="mix-blend-mode:soft-light" opacity="0.5">
<path d="M133.347 72.3119L133.034 71.9964C142.147 64.3345 158.737 64.6982 158.903 64.7027L158.886 65.1327C158.72 65.1263 142.317 64.7676 133.347 72.3119Z" fill="#FCFDFE"/>
</g>
</g>
<path d="M82.0178 49.4165L119.27 87.0333C118.685 87.6787 117.734 87.693 116.798 87.6319L28.8698 81.9069C28.0434 81.8532 27.2813 81.4614 26.6929 80.8629L75.6483 48.4947C77.5931 47.2102 80.1941 47.586 82.0178 49.4165Z" fill="#97A6B7"/>
<path d="M82.6711 119.529L119.424 87.2103C118.85 86.5049 118.032 86.0377 117.112 85.9835L29.1505 80.7862C28.7472 80.7636 28.3434 80.8203 27.963 80.9528C27.5825 81.0854 27.2331 81.2911 26.9355 81.5578L76.3156 119.698C78.2563 121.2 80.8526 121.128 82.6711 119.529Z" fill="#97A6B7"/>
<path d="M82.671 119.529C80.8526 121.128 78.2563 121.198 76.3156 119.7L26.9355 81.5602C26.205 82.2004 25.7371 83.1816 25.7371 84.2953V146.125C25.7371 148.209 27.3695 149.883 29.2838 149.762L117.243 144.191C118.95 144.083 120.268 142.557 120.268 140.692V89.6171C120.272 88.7458 119.975 87.8987 119.424 87.2132L82.671 119.529Z" fill="url(#paint1_linear_619_1742)"/>
<path d="M115.532 86.1275L28.0693 80.863C26.2138 80.7514 24.6746 82.3619 24.6746 84.4151V147.052C24.6746 149.163 26.2981 150.859 28.2013 150.736L115.663 145.093C117.36 144.984 118.671 143.438 118.671 141.548V89.8057C118.671 87.8596 117.283 86.2328 115.532 86.1275Z" fill="#97A6B7"/>
<path d="M116.134 143.663V46.5141C116.134 43.2227 115.184 40.0529 113.417 37.2618L26.9506 29.8331L25.6638 31.0325C27.501 33.8179 28.59 37.0516 28.59 40.4287V145.539L116.134 143.663Z" fill="#D8DEE8"/>
<path d="M117.814 142.54V45.3193C117.814 39.5332 116.69 38.8581 114.922 36.067L26.9502 29.8331C28.8029 32.6348 29.7862 35.9 29.7817 39.2351V144.415L117.814 142.54Z" fill="url(#paint2_linear_619_1742)"/>
<path d="M120.259 89.6136V140.693C120.259 142.559 118.945 144.083 117.238 144.191L111.728 144.54L29.3468 149.763C27.4336 149.884 25.8679 148.21 25.8679 146.125V84.2975C25.8679 84.2267 25.8041 84.1576 25.8094 84.0896C25.8135 84.0022 25.7871 83.9149 25.7977 83.8303C25.8035 83.7847 25.7936 83.739 25.8018 83.6933C25.8018 83.687 25.7936 83.6807 25.7959 83.6767C25.8059 83.6127 25.8146 83.5505 25.8269 83.4888C25.8392 83.4271 25.8497 83.3746 25.8643 83.3238C25.8872 83.2347 25.9111 83.1524 25.9398 83.0662C25.9949 82.9043 26.0613 82.7463 26.1387 82.5933C26.1761 82.5236 26.2129 82.4533 26.2556 82.386C26.2825 82.3408 26.3095 82.298 26.3387 82.2529C26.3679 82.2078 26.4071 82.1507 26.444 82.1015C26.4808 82.0524 26.5188 82.0016 26.558 81.9547C26.5972 81.9079 26.637 81.8611 26.6785 81.8165C26.72 81.772 26.7739 81.7149 26.8242 81.6663C26.861 81.6292 26.9008 81.5949 26.9411 81.5607L76.3218 119.699C78.2625 121.198 80.857 121.127 82.6755 119.528L119.43 87.2091C119.699 87.5386 119.908 87.9112 120.047 88.3103C120.085 88.4114 120.118 88.5148 120.143 88.6198C120.158 88.6718 120.17 88.7238 120.182 88.7757C120.195 88.8277 120.201 88.8688 120.209 88.9145C120.217 88.9602 120.23 89.0288 120.235 89.0824C120.241 89.1361 120.248 89.1967 120.252 89.2538C120.257 89.3743 120.259 89.4942 120.259 89.6136Z" fill="#F2F4F8"/>
<g style="mix-blend-mode:multiply" opacity="0.37">
<path d="M120.259 89.6136V140.693C120.259 142.559 118.945 144.083 117.238 144.191L111.728 144.54C110.864 142.05 109.523 139.758 107.424 138.281C100.481 133.395 92.1308 142.247 83.9488 137.367C78.104 133.884 80.3751 128.185 73.2803 123.183C66.5605 118.442 62.5043 122.126 57.7989 117.186C53.28 112.44 55.5359 107.477 50.3777 103.037C47.7001 100.73 47.0626 102.041 40.9838 98.8111C34.4786 95.3506 33.7311 93.0301 30.3341 92.6503C29.1058 92.5121 27.3348 92.6354 25.8679 93.4162V84.2975C25.8679 84.2267 25.8041 84.1576 25.8094 84.0896C25.8135 84.0022 25.7871 83.9149 25.7977 83.8303C25.8035 83.7847 25.7936 83.739 25.8018 83.6933C25.8018 83.687 25.7936 83.6807 25.7959 83.6767C25.8059 83.6127 25.8146 83.5505 25.8269 83.4888C25.8392 83.4271 25.8497 83.3746 25.8643 83.3238C25.8872 83.2347 25.9111 83.1524 25.9398 83.0662C25.9949 82.9043 26.0613 82.7463 26.1387 82.5933C26.1761 82.5236 26.2129 82.4533 26.2556 82.386C26.2825 82.3408 26.3095 82.298 26.3387 82.2529C26.3679 82.2078 26.4071 82.1507 26.444 82.1015C26.4808 82.0524 26.5188 82.0016 26.558 81.9547C26.5972 81.9079 26.637 81.8611 26.6785 81.8165C26.72 81.772 26.7739 81.7149 26.8242 81.6663C26.861 81.6292 26.9008 81.5949 26.9411 81.5607L76.3218 119.699C78.2625 121.198 80.857 121.127 82.6755 119.528L119.43 87.2091C119.696 87.5407 119.904 87.9127 120.047 88.3103C120.083 88.4125 120.114 88.5165 120.143 88.6198C120.158 88.6718 120.17 88.7238 120.182 88.7757C120.195 88.8277 120.201 88.8688 120.209 88.9145C120.217 88.9602 120.23 89.0288 120.235 89.0824C120.241 89.1361 120.248 89.1967 120.252 89.2538C120.257 89.3743 120.259 89.4942 120.259 89.6136Z" fill="#CBD0D8"/>
</g>
<path d="M103.011 60.635L90.9659 47.4567C90.4915 46.9378 89.9107 46.5216 89.2609 46.2349C88.6112 45.9482 87.9069 45.7974 87.1936 45.7922L47.5392 45.5125C46.8654 45.5076 46.1973 45.6328 45.5735 45.8809C44.9497 46.129 44.3826 46.4951 43.905 46.9579C43.4274 47.4208 43.0487 47.9713 42.7909 48.5775C42.533 49.1838 42.4012 49.8338 42.4028 50.49L42.4697 77.8355C42.4711 78.4885 42.6048 79.1347 42.863 79.7373C43.1212 80.3399 43.4989 80.8869 43.9745 81.3471C44.4501 81.8073 45.0142 82.1717 45.6345 82.4193C46.2549 82.6669 46.9193 82.793 47.5898 82.7902L87.1068 82.6283C87.8367 82.6266 88.5576 82.4722 89.2209 82.1756C89.8842 81.8791 90.4743 81.4472 90.9514 80.9093L103.069 67.1855C103.876 66.2725 104.316 65.1048 104.305 63.8997C104.295 62.6946 103.835 61.5344 103.011 60.635ZM96.3082 65.3856C95.995 66.1361 95.4603 66.7794 94.7718 67.234C94.0832 67.6886 93.2717 67.9341 92.4398 67.9395C91.6079 67.9449 90.7931 67.71 90.0984 67.2644C89.4036 66.8188 88.8602 66.1826 88.5367 65.4362C88.2133 64.6898 88.1244 63.8668 88.2812 63.0711C88.4381 62.2755 88.8337 61.5431 89.4181 60.9665C90.0024 60.3898 90.7492 59.9949 91.564 59.8316C92.3788 59.6683 93.225 59.744 93.9956 60.0491C95.0271 60.4583 95.8498 61.2491 96.2834 62.2482C96.7169 63.2473 96.7258 64.3731 96.3082 65.3786V65.3856Z" fill="#F3B33D"/>
<g opacity="0.4">
<path opacity="0.4" d="M103.011 60.635L90.9659 47.4567C90.4915 46.9378 89.9107 46.5216 89.2609 46.2349C88.6112 45.9482 87.9069 45.7974 87.1936 45.7922L47.5392 45.5125C46.8654 45.5076 46.1973 45.6328 45.5735 45.8809C44.9497 46.129 44.3826 46.4951 43.905 46.9579C43.4274 47.4208 43.0487 47.9713 42.7909 48.5775C42.533 49.1838 42.4012 49.8338 42.4028 50.49L42.4697 77.8355C42.4711 78.4885 42.6048 79.1347 42.863 79.7373C43.1212 80.3399 43.4989 80.8869 43.9745 81.3471C44.4501 81.8073 45.0142 82.1717 45.6345 82.4193C46.2549 82.6669 46.9193 82.793 47.5898 82.7902L87.1068 82.6283C87.8367 82.6266 88.5576 82.4722 89.2209 82.1756C89.8842 81.8791 90.4743 81.4472 90.9514 80.9093L103.069 67.1855C103.876 66.2725 104.316 65.1048 104.305 63.8997C104.295 62.6946 103.835 61.5344 103.011 60.635ZM96.3082 65.3856C95.995 66.1361 95.4603 66.7794 94.7718 67.234C94.0832 67.6886 93.2717 67.9341 92.4398 67.9395C91.6079 67.9449 90.7931 67.71 90.0984 67.2644C89.4036 66.8188 88.8602 66.1826 88.5367 65.4362C88.2133 64.6898 88.1244 63.8668 88.2812 63.0711C88.4381 62.2755 88.8337 61.5431 89.4181 60.9665C90.0024 60.3898 90.7492 59.9949 91.564 59.8316C92.3788 59.6683 93.225 59.744 93.9956 60.0491C95.0271 60.4583 95.8498 61.2491 96.2834 62.2482C96.7169 63.2473 96.7258 64.3731 96.3082 65.3786V65.3856Z" fill="black"/>
</g>
<path d="M105.098 60.6351L93.0472 47.4567C92.5727 46.938 91.9918 46.5219 91.3421 46.2352C90.6924 45.9486 89.9882 45.7976 89.2749 45.7922L49.6205 45.5125C48.9466 45.5074 48.2784 45.6324 47.6545 45.8805C47.0307 46.1285 46.4635 46.4945 45.9858 46.9574C45.5081 47.4203 45.1294 47.9709 44.8717 48.5773C44.6139 49.1836 44.4822 49.8337 44.4842 50.49L44.5492 77.8356C44.5508 78.4899 44.6852 79.1375 44.9447 79.7411C45.2041 80.3447 45.5834 80.8925 46.0609 81.3529C46.5383 81.8133 47.1045 82.1773 47.7268 82.4239C48.3492 82.6706 49.0154 82.7951 49.6873 82.7902L89.2026 82.6283C89.9324 82.6264 90.6533 82.4719 91.3165 82.1753C91.9798 81.8788 92.57 81.4471 93.0472 80.9093L105.163 67.1855C105.97 66.2718 106.408 65.1035 106.396 63.8984C106.384 62.6932 105.923 61.5334 105.098 60.6351ZM98.3967 65.3856C98.0835 66.1361 97.5489 66.7794 96.8603 67.234C96.1717 67.6886 95.3602 67.9341 94.5283 67.9395C93.6965 67.945 92.8817 67.71 92.1869 67.2644C91.4922 66.8188 90.9487 66.1826 90.6253 65.4362C90.3018 64.6898 90.2129 63.8668 90.3698 63.0712C90.5267 62.2756 90.9223 61.5431 91.5066 60.9665C92.0909 60.3899 92.8377 59.9949 93.6525 59.8316C94.4673 59.6684 95.3136 59.7441 96.0842 60.0492C97.1157 60.4583 97.9384 61.2491 98.3719 62.2482C98.8054 63.2473 98.8143 64.3731 98.3967 65.3786V65.3856Z" fill="#F3B33D"/>
<path d="M57.6801 59.7185C57.7108 56.4036 59.8083 54.3151 62.7496 54.3433C65.6908 54.3715 67.7197 56.467 67.689 59.8082C67.6583 63.1494 65.586 65.2115 62.6466 65.1851C59.7071 65.1587 57.6475 63.0333 57.6801 59.7185ZM64.8037 59.7836C64.8236 57.6722 63.998 56.657 62.7279 56.6464C61.4885 56.6341 60.6123 57.6652 60.5924 59.7448C60.5725 61.8245 61.4289 62.8697 62.6683 62.882C63.9383 62.8925 64.7839 61.8896 64.8037 59.7836ZM74.7747 54.6811L78.2073 54.7128L64.2328 74.2428L60.8002 74.2111L74.7747 54.6811ZM71.3203 69.121C71.3529 65.8062 73.4486 63.7177 76.3627 63.7441C79.304 63.7723 81.36 65.8977 81.3293 69.2108C81.2985 72.5238 79.201 74.6053 76.258 74.5754C73.3547 74.5525 71.2896 72.4271 71.3203 69.121ZM78.4151 69.1844C78.435 67.1064 77.6093 66.0596 76.3392 66.049C75.0999 66.0367 74.2255 67.0396 74.2056 69.1474C74.1857 71.2552 75.0403 72.2722 76.2796 72.2845C77.5497 72.2881 78.3952 71.2552 78.4133 69.1756L78.4151 69.1844Z" fill="white"/>
<path d="M103.778 68.769C103.922 68.8436 104.055 68.9365 104.174 69.0452C104.422 69.237 104.783 69.5256 105.24 69.9074C105.697 70.2892 106.254 70.7607 106.879 71.329C107.504 71.8973 108.205 72.5606 108.929 73.3471C109.726 74.1995 110.447 75.1159 111.085 76.0866L111.341 76.486L111.583 76.903C111.752 77.188 111.905 77.4817 112.042 77.7827C112.346 78.4212 112.521 79.1104 112.559 79.8132C112.57 80.1887 112.514 80.5633 112.393 80.9199C112.266 81.2885 112.063 81.628 111.796 81.9175C111.25 82.5043 110.526 82.9072 109.73 83.0682C108.922 83.2237 108.088 83.2045 107.289 83.0119C106.486 82.8227 105.708 82.5435 104.971 82.1796C103.522 81.4603 102.209 80.5086 101.085 79.3645C100.549 78.8285 100.047 78.2609 99.5833 77.6649C99.1305 77.0866 98.6993 76.5112 98.2898 75.9388C96.6638 73.6515 95.3991 71.4522 94.6042 69.4851C94.4055 68.9942 94.2338 68.5227 94.0857 68.0687C94.0134 67.8418 93.9448 67.6201 93.8888 67.4001C93.8271 67.1875 93.783 66.9704 93.7569 66.7509C93.694 66.3346 93.801 65.9108 94.055 65.5703C94.2737 65.2971 94.5723 65.0947 94.9113 64.9897C95.0513 64.9446 95.1952 64.9122 95.3413 64.8929C95.4697 64.8796 95.599 64.8767 95.7279 64.8841C95.93 64.8935 96.1291 64.9358 96.3169 65.009C96.4311 65.0556 96.5371 65.1191 96.6313 65.1973C96.6927 65.2518 96.7198 65.2818 96.7144 65.2888C96.7089 65.2958 96.671 65.2765 96.6024 65.236C96.5028 65.1769 96.3959 65.1302 96.2844 65.097C96.1028 65.0436 95.914 65.0175 95.7243 65.0196C95.6034 65.0208 95.4826 65.0302 95.363 65.0477C95.2293 65.073 95.0981 65.1095 94.971 65.1568C94.6756 65.2625 94.4191 65.4511 94.2338 65.6987C94.0271 65.9981 93.9493 66.3645 94.017 66.7192C94.0469 66.9261 94.0941 67.1303 94.158 67.3298C94.2176 67.5409 94.2916 67.7556 94.3675 67.9772C94.5253 68.4206 94.706 68.8828 94.9095 69.3637C95.7279 71.2815 97.0071 73.4474 98.6403 75.6978C99.0498 76.2608 99.4816 76.8279 99.9356 77.3992C100.393 77.9792 100.886 78.5315 101.412 79.0531C102.503 80.1577 103.776 81.0781 105.177 81.7767C105.884 82.125 106.629 82.393 107.399 82.5755C108.132 82.7544 108.897 82.7755 109.639 82.6371C110.342 82.4976 110.981 82.1468 111.468 81.6342C111.919 81.1377 112.157 80.4915 112.132 79.829C112.098 79.177 111.936 78.5374 111.655 77.9446C111.527 77.6535 111.383 77.3692 111.224 77.093L110.998 76.6866L110.752 76.2889C110.138 75.3268 109.444 74.4152 108.676 73.5635C107.979 72.7753 107.301 72.0997 106.689 71.5155C106.076 70.9314 105.547 70.4423 105.108 70.0429L104.111 69.1209C103.986 69.0174 103.874 68.8992 103.778 68.769Z" fill="#263238"/>
<path d="M84.9589 41.4606C84.9336 41.4606 84.4278 38.0208 83.8279 33.7699C83.2281 29.5191 82.7638 26.0705 82.7909 26.067C82.818 26.0635 83.3221 29.5068 83.9219 33.7576C84.5217 38.0085 84.986 41.457 84.9589 41.4606Z" fill="#263238"/>
<path d="M99.8545 22.6289C99.8514 22.6471 99.8459 22.6648 99.8383 22.6817L99.7805 22.8348L99.551 23.4207L98.691 25.5707C97.9684 27.3865 96.9783 29.899 95.9268 32.6913C94.8754 35.4835 93.963 38.0224 93.3126 39.8646C92.9892 40.7813 92.7272 41.5255 92.5448 42.0481C92.4544 42.2997 92.384 42.4985 92.3334 42.641C92.3099 42.7044 92.29 42.7536 92.2756 42.7941C92.2702 42.8118 92.263 42.8289 92.2539 42.8451C92.2553 42.8264 92.2595 42.808 92.2666 42.7906L92.3153 42.634C92.3605 42.4915 92.4255 42.2821 92.5087 42.0358C92.6785 41.5167 92.9314 40.7672 93.2494 39.8435C93.8853 37.996 94.7887 35.4448 95.8401 32.6596C96.8916 29.8744 97.8871 27.3566 98.6278 25.5461C98.9891 24.6417 99.3035 23.9098 99.5185 23.4066L99.766 22.8277C99.7931 22.7661 99.8166 22.7169 99.8328 22.6782L99.8545 22.6289Z" fill="#263238"/>
<path d="M110.528 36.1697C110.544 36.1891 107.959 38.1614 104.747 40.5684C101.535 42.9753 98.9294 44.9213 98.9132 44.9002C98.8969 44.8791 101.484 42.9085 104.694 40.5015C107.905 38.0946 110.514 36.1486 110.528 36.1697Z" fill="#263238"/>
<path d="M78.6878 42.1027C78.6661 42.1185 77.667 40.871 76.4547 39.3297C75.2425 37.7885 74.2741 36.5146 74.2867 36.5023C74.2994 36.49 75.3075 37.7339 76.5198 39.2752C77.732 40.8165 78.7076 42.0868 78.6878 42.1027Z" fill="#263238"/>
<path d="M109.307 51.8008C109.307 51.8254 107.715 51.3961 105.768 50.8436C103.82 50.2911 102.248 49.8231 102.255 49.7985C102.263 49.7739 103.847 50.2032 105.795 50.7556C107.742 51.3081 109.316 51.7761 109.307 51.8008Z" fill="#263238"/>
<path d="M86.5415 51.7444L87.7158 51.0864L88.3391 49.9146L89.0166 51.0582L90.2199 51.667L89.0455 52.325L88.4204 53.4968L87.7447 52.3532L86.5415 51.7444Z" fill="white"/>
<path d="M80.1924 49.9288L80.604 49.6983L80.8225 49.2883L81.059 49.6877L81.4797 49.9006L81.0681 50.1311L80.8496 50.5411L80.6131 50.1417L80.1924 49.9288Z" fill="white"/>
<path d="M84.2468 58.01L85.0418 57.5649L85.4645 56.7714L85.9216 57.5455L86.7364 57.9572L85.9415 58.4024L85.5187 59.1959L85.0616 58.4217L84.2468 58.01Z" fill="white"/>
<defs>
<linearGradient id="paint0_linear_619_1742" x1="94.9958" y1="117.917" x2="168.362" y2="107.304" gradientUnits="userSpaceOnUse">
<stop stop-color="#FFC444"/>
<stop offset="1" stop-color="#F36F56"/>
</linearGradient>
<linearGradient id="paint1_linear_619_1742" x1="83501.7" y1="102365" x2="115756" y2="201369" gradientUnits="userSpaceOnUse">
<stop stop-color="#FFC444"/>
<stop offset="1" stop-color="#F36F56"/>
</linearGradient>
<linearGradient id="paint2_linear_619_1742" x1="90.2279" y1="50.1493" x2="38.6876" y2="159.304" gradientUnits="userSpaceOnUse">
<stop stop-color="white"/>
<stop offset="1" stop-color="#EBEFF2"/>
</linearGradient>
</defs>
</svg>
