<svg width="290" height="85" viewBox="0 0 290 85" fill="none" xmlns="http://www.w3.org/2000/svg">
<path d="M278.722 84.1819H10.7196C4.82624 84.1819 -0.000488281 79.4758 -0.000488281 73.7298V11.0171C-0.000488281 5.27108 4.82624 0.565018 10.7196 0.565018H278.722C284.616 0.565018 289.443 5.27108 289.443 11.0171V73.7298C289.443 79.4758 284.616 84.1819 278.722 84.1819Z" fill="black"/>
<path d="M22.3727 16.3241C21.7429 16.9669 21.3784 17.9677 21.3784 19.2638V65.4935C21.3784 66.7895 21.7429 67.7903 22.3727 68.4331L22.5281 68.5742L49.0979 42.6791V42.0677L22.5281 16.1726L22.3727 16.3241Z" fill="url(#paint0_linear_78_4893)"/>
<path d="M57.9447 51.3154L49.0979 42.6794V42.0679L57.9554 33.4319L58.1537 33.5442L68.6433 39.3634C71.6369 41.0149 71.6369 43.7324 68.6433 45.3943L58.1537 51.2031L57.9447 51.3154Z" fill="url(#paint1_linear_78_4893)"/>
<path d="M58.1539 51.2032L49.098 42.3738L22.3728 68.4335C23.3671 69.4526 24.9885 69.5754 26.8324 68.5563L58.1539 51.2032Z" fill="url(#paint2_linear_78_4893)"/>
<path d="M58.1539 33.5446L26.8324 16.1915C24.9885 15.1829 23.3671 15.3057 22.3728 16.3248L49.098 42.374L58.1539 33.5446Z" fill="url(#paint3_linear_78_4893)"/>
<path d="M101.664 21.979C101.664 23.7245 101.128 25.1225 100.072 26.1651C98.8579 27.4011 97.2767 28.023 95.339 28.023C93.4871 28.023 91.9059 27.3906 90.6088 26.1442C89.309 24.8795 88.6604 23.3273 88.6604 21.4695C88.6604 19.6116 89.309 18.0595 90.6088 16.8052C91.9059 15.5484 93.4871 14.916 95.339 14.916C96.261 14.916 97.14 15.1015 97.9789 15.4465C98.815 15.794 99.4957 16.2643 99.9889 16.8444L98.8686 17.9471C98.0083 16.9568 96.8372 16.4682 95.339 16.4682C93.9883 16.4682 92.8171 16.928 91.8228 17.8557C90.8393 18.7859 90.3461 19.9905 90.3461 21.4695C90.3461 22.9485 90.8393 24.1635 91.8228 25.0938C92.8171 26.0109 93.9883 26.4813 95.339 26.4813C96.7728 26.4813 97.9789 26.0109 98.9303 25.0833C99.5574 24.4692 99.9138 23.6226 100.008 22.5408H95.339V21.0305H101.567C101.642 21.3571 101.664 21.6733 101.664 21.979Z" fill="white"/>
<path d="M111.545 16.7421H105.695V20.7139H110.969V22.2242H105.695V26.196H111.545V27.7351H104.039V15.203H111.545V16.7421Z" fill="white"/>
<path d="M118.518 27.7351H116.862V16.7421H113.274V15.203H122.11V16.7421H118.518V27.7351Z" fill="white"/>
<path d="M128.504 27.7351V15.203H130.158V27.7351H128.504Z" fill="white"/>
<path d="M137.487 27.7351H135.845V16.7421H132.243V15.203H141.089V16.7421H137.487V27.7351Z" fill="white"/>
<path d="M157.818 26.1233C156.551 27.3906 154.98 28.023 153.107 28.023C151.223 28.023 149.652 27.3906 148.385 26.1233C147.12 24.8586 146.49 23.3064 146.49 21.4695C146.49 19.6325 147.12 18.0804 148.385 16.8157C149.652 15.5484 151.223 14.916 153.107 14.916C154.969 14.916 156.54 15.5484 157.808 16.8261C159.083 18.1013 159.713 19.643 159.713 21.4695C159.713 23.3064 159.083 24.8586 157.818 26.1233ZM149.609 25.0729C150.563 26.0109 151.724 26.4813 153.107 26.4813C154.479 26.4813 155.65 26.0109 156.593 25.0729C157.545 24.1348 158.027 22.9302 158.027 21.4695C158.027 20.0088 157.545 18.8042 156.593 17.8661C155.65 16.928 154.479 16.4577 153.107 16.4577C151.724 16.4577 150.563 16.928 149.609 17.8661C148.658 18.8042 148.175 20.0088 148.175 21.4695C148.175 22.9302 148.658 24.1348 149.609 25.0729Z" fill="white"/>
<path d="M162.037 27.7351V15.203H164.047L170.297 24.9496H170.369L170.297 22.5404V15.203H171.95V27.7351H170.224L163.68 17.5077H163.607L163.68 19.9274V27.7351H162.037Z" fill="white"/>
<path d="M146.083 46.0374C141.047 46.0374 136.933 49.7741 136.933 54.9296C136.933 60.0433 141.047 63.8191 146.083 63.8191C151.129 63.8191 155.243 60.0433 155.243 54.9296C155.243 49.7741 151.129 46.0374 146.083 46.0374ZM146.083 60.3176C143.319 60.3176 140.942 58.0939 140.942 54.9296C140.942 51.7234 143.319 49.5389 146.083 49.5389C148.846 49.5389 151.234 51.7234 151.234 54.9296C151.234 58.0939 148.846 60.3176 146.083 60.3176ZM126.119 46.0374C121.072 46.0374 116.969 49.7741 116.969 54.9296C116.969 60.0433 121.072 63.8191 126.119 63.8191C131.163 63.8191 135.269 60.0433 135.269 54.9296C135.269 49.7741 131.163 46.0374 126.119 46.0374ZM126.119 60.3176C123.353 60.3176 120.968 58.0939 120.968 54.9296C120.968 51.7234 123.353 49.5389 126.119 49.5389C128.882 49.5389 131.259 51.7234 131.259 54.9296C131.259 58.0939 128.882 60.3176 126.119 60.3176ZM102.363 48.7628V52.5413H111.617C111.347 54.6526 110.623 56.2047 109.514 57.2865C108.163 58.593 106.059 60.0433 102.363 60.0433C96.6682 60.0433 92.2086 55.5619 92.2086 50.0092C92.2086 44.4566 96.6682 39.9752 102.363 39.9752C105.443 39.9752 107.683 41.1485 109.337 42.6692L112.068 40.0066C109.755 37.8534 106.678 36.1994 102.363 36.1994C94.5536 36.1994 87.9902 42.3949 87.9902 50.0092C87.9902 57.6236 94.5536 63.8191 102.363 63.8191C106.584 63.8191 109.755 62.4708 112.247 59.9413C114.801 57.4511 115.597 53.9497 115.597 51.1224C115.597 50.2444 115.522 49.437 115.388 48.7628H102.363ZM199.504 51.692C198.75 49.7035 196.427 46.0374 191.694 46.0374C187.004 46.0374 183.099 49.6408 183.099 54.9296C183.099 59.91 186.964 63.8191 192.144 63.8191C196.333 63.8191 198.75 61.3289 199.745 59.8786L196.636 57.8588C195.599 59.3377 194.186 60.3176 192.144 60.3176C190.115 60.3176 188.66 59.4109 187.727 57.6236L199.924 52.7033L199.504 51.692ZM187.068 54.6526C186.964 51.2243 189.799 49.4683 191.831 49.4683C193.423 49.4683 194.773 50.2444 195.224 51.3549L187.068 54.6526ZM177.155 63.2782H181.164V37.1479H177.155V63.2782ZM170.589 48.0181H170.455C169.554 46.9781 167.836 46.0374 165.66 46.0374C161.093 46.0374 156.918 49.9465 156.918 54.9583C156.918 59.9414 161.093 63.8191 165.66 63.8191C167.836 63.8191 169.554 62.8706 170.455 61.7992H170.589V63.0744C170.589 66.4739 168.726 68.3004 165.722 68.3004C163.272 68.3004 161.753 66.5758 161.126 65.1256L157.639 66.5445C158.644 68.9014 161.305 71.8019 165.722 71.8019C170.423 71.8019 174.389 69.1052 174.389 62.5439V46.5783H170.589V48.0181ZM166.003 60.3176C163.24 60.3176 160.927 58.0626 160.927 54.9583C160.927 51.8253 163.24 49.5389 166.003 49.5389C168.726 49.5389 170.873 51.8253 170.873 54.9583C170.873 58.0626 168.726 60.3176 166.003 60.3176ZM218.274 37.1479H208.685V63.2782H212.684V53.3774H218.274C222.715 53.3774 227.07 50.2444 227.07 45.2614C227.07 40.2809 222.704 37.1479 218.274 37.1479ZM218.379 49.7427H212.684V40.7826H218.379C221.364 40.7826 223.069 43.1997 223.069 45.2614C223.069 47.2838 221.364 49.7427 218.379 49.7427ZM243.097 45.9878C240.208 45.9878 237.203 47.2316 235.968 49.9883L239.516 51.4386C240.28 49.9883 241.684 49.518 243.169 49.518C245.244 49.518 247.347 50.733 247.38 52.8783V53.1527C246.656 52.7451 245.107 52.1415 243.201 52.1415C239.38 52.1415 235.486 54.1927 235.486 58.0208C235.486 61.5222 238.616 63.7773 242.135 63.7773C244.825 63.7773 246.31 62.5936 247.243 61.2165H247.38V63.2364H251.241V53.2128C251.241 48.5799 247.693 45.9878 243.097 45.9878ZM242.614 60.3072C241.307 60.3072 239.484 59.6748 239.484 58.0939C239.484 56.0715 241.757 55.2954 243.724 55.2954C245.485 55.2954 246.31 55.6743 247.38 56.1734C247.066 58.593 244.93 60.3072 242.614 60.3072ZM265.312 46.56L260.715 57.8875H260.579L255.827 46.56H251.515L258.654 62.3898L254.581 71.1983H258.759L269.76 46.56H265.312ZM229.268 63.2782H233.277V37.1479H229.268V63.2782Z" fill="white"/>
<defs>
<linearGradient id="paint0_linear_78_4893" x1="46.7389" y1="65.9749" x2="11.6678" y2="30.0046" gradientUnits="userSpaceOnUse">
<stop stop-color="#00A0FF"/>
<stop offset="0.0066" stop-color="#00A1FF"/>
<stop offset="0.2601" stop-color="#00BEFF"/>
<stop offset="0.5122" stop-color="#00D2FF"/>
<stop offset="0.7604" stop-color="#00DFFF"/>
<stop offset="1" stop-color="#00E3FF"/>
</linearGradient>
<linearGradient id="paint1_linear_78_4893" x1="72.5415" y1="42.3707" x2="20.6628" y2="42.3707" gradientUnits="userSpaceOnUse">
<stop stop-color="#FFE000"/>
<stop offset="0.4087" stop-color="#FFBD00"/>
<stop offset="0.7754" stop-color="#FFA500"/>
<stop offset="1" stop-color="#FF9C00"/>
</linearGradient>
<linearGradient id="paint2_linear_78_4893" x1="53.2296" y1="37.5739" x2="5.67037" y2="-11.2047" gradientUnits="userSpaceOnUse">
<stop stop-color="#FF3A44"/>
<stop offset="1" stop-color="#C31162"/>
</linearGradient>
<linearGradient id="paint3_linear_78_4893" x1="15.6455" y1="83.8141" x2="36.8828" y2="62.0325" gradientUnits="userSpaceOnUse">
<stop stop-color="#32A071"/>
<stop offset="0.0685" stop-color="#2DA771"/>
<stop offset="0.4762" stop-color="#15CF74"/>
<stop offset="0.8009" stop-color="#06E775"/>
<stop offset="1" stop-color="#00F076"/>
</linearGradient>
</defs>
</svg>
