<svg width="181" height="164" viewBox="0 0 181 164" fill="none" xmlns="http://www.w3.org/2000/svg">
<g clip-path="url(#clip0_619_1762)">
<path d="M49.8248 14.5249C44.5406 22.1161 50.7366 34.4225 42.8952 40.1318C35.262 45.6893 25.8852 36.5802 18.6915 41.3637C8.02033 48.4602 9.9687 80.9313 25.5709 101.107C30.2632 107.174 34.1837 109.535 35.9199 116.394C39.6485 131.128 26.5448 139.893 29.036 147.18C34.6509 163.589 121.003 177.357 155.651 128.044C171.833 105.012 174.254 71.7553 159.796 46.4967C133.672 0.858036 61.6826 -2.50786 49.8248 14.5249Z" fill="#F4F7FA"/>
<path d="M64.6451 132.252C60.3945 124.978 64.5192 112.865 69.5682 105.773C75.4641 97.4935 80.2535 99.3817 84.3375 92.5876C91.9437 79.9325 78.4608 68.1969 85.123 54.8239C90.5692 43.8917 101.647 47.586 107.129 35.2043C111.085 26.2701 107.219 20.0518 113.216 13.4135C113.728 12.8473 119.346 6.80565 126.167 7.90006C133.051 9.0041 137.138 16.7324 138.474 22.0651C140.945 31.9262 134.391 35.0871 133.045 47.8538C131.212 65.2353 142.275 69.6701 138.292 82.1899C135 92.5282 126.697 91.8895 123.274 103.425C120.095 114.137 126.1 118.581 123.274 125.581C116.77 141.685 73.316 147.088 64.6451 132.252Z" fill="#97A6B7"/>
<g style="mix-blend-mode:soft-light" opacity="0.7">
<path d="M70.4007 143.651C70.3803 143.649 70.3613 143.64 70.3472 143.625C70.3331 143.61 70.3247 143.591 70.3236 143.57C70.3225 143.55 70.3288 143.53 70.3413 143.513C70.3537 143.497 70.3716 143.486 70.3916 143.482C77.776 142.697 84.6724 140.397 90.8893 136.646C96.779 133.092 102.869 129.417 105.575 122.643C107.622 117.517 106.495 113.745 105.071 108.969C103.686 104.33 101.963 98.5563 102.914 89.7348C103.458 84.6959 104.133 78.4289 108.481 72.5005C111.013 69.0468 113.471 67.5691 115.639 66.2647C117.921 64.8917 119.723 63.8075 120.774 60.8996C122.489 56.1658 121.364 52.1007 120.062 47.3936C119.259 44.493 118.429 41.4929 118.115 37.9328C117.72 33.4957 118.425 28.8774 120.202 24.2071C122.445 18.3189 126.458 12.16 132.132 5.9044C132.148 5.89096 132.168 5.88369 132.188 5.88392C132.209 5.88415 132.229 5.89186 132.244 5.90565C132.26 5.91943 132.27 5.93836 132.272 5.95893C132.275 5.97951 132.27 6.00036 132.259 6.01763C126.6 12.2569 122.598 18.397 120.363 24.266C118.594 28.912 117.895 33.5036 118.284 37.9147C118.597 41.4595 119.425 44.4512 120.226 47.3449C121.536 52.0803 122.668 56.1698 120.934 60.9557C119.862 63.9207 117.943 65.074 115.723 66.4096C113.568 67.7061 111.126 69.1759 108.614 72.6001C104.293 78.4883 103.621 84.7338 103.079 89.7501C102.132 98.5377 103.85 104.292 105.229 108.917C106.664 113.725 107.798 117.523 105.728 122.705C103.002 129.532 96.8862 133.222 90.9723 136.791C84.7339 140.555 77.8133 142.863 70.4041 143.65L70.4007 143.651Z" fill="white"/>
</g>
<g style="mix-blend-mode:soft-light" opacity="0.7">
<path d="M106.702 75.5629C106.685 75.5629 106.669 75.558 106.655 75.5489C106.641 75.5397 106.63 75.5267 106.624 75.5114C100.675 61.998 99.742 51.5402 100.003 45.1425C100.289 38.2057 102.008 34.414 102.025 34.3767C102.036 34.3576 102.053 34.3432 102.074 34.3364C102.094 34.3296 102.117 34.331 102.137 34.3401C102.156 34.3493 102.172 34.3656 102.18 34.3858C102.189 34.4061 102.189 34.4287 102.181 34.4491C102.164 34.4865 100.457 38.2555 100.174 45.1617C99.9135 51.5368 100.848 61.9652 106.781 75.4424C106.79 75.4632 106.79 75.4868 106.782 75.508C106.774 75.5292 106.758 75.5463 106.737 75.5556C106.726 75.5605 106.714 75.563 106.702 75.5629Z" fill="white"/>
</g>
<g style="mix-blend-mode:soft-light" opacity="0.7">
<path d="M102.777 97.017C102.755 97.0176 102.735 97.0103 102.718 96.9965C102.702 96.9826 102.692 96.9632 102.689 96.9421C102.686 96.9209 102.691 96.8994 102.704 96.8819C102.716 96.8643 102.734 96.852 102.755 96.8471C110.316 94.8338 116.825 91.614 122.106 87.2788C126.302 83.8418 129.786 79.6126 132.361 74.8303C136.758 66.6712 137.11 59.4961 137.113 59.4248C137.112 59.4124 137.113 59.3999 137.117 59.3881C137.121 59.3763 137.127 59.3654 137.136 59.3563C137.144 59.3473 137.154 59.3401 137.166 59.3354C137.177 59.3307 137.19 59.3285 137.202 59.3291C137.214 59.3296 137.227 59.3328 137.238 59.3385C137.249 59.3442 137.258 59.3522 137.266 59.362C137.274 59.3718 137.279 59.3832 137.282 59.3953C137.285 59.4074 137.285 59.4199 137.282 59.4321C137.282 59.504 136.927 66.712 132.514 74.9056C129.929 79.7087 126.431 83.9565 122.216 87.4085C116.916 91.7635 110.383 94.9952 102.796 97.0159C102.79 97.0169 102.783 97.0173 102.777 97.017Z" fill="white"/>
</g>
<g style="mix-blend-mode:soft-light" opacity="0.7">
<path d="M97.4711 133.001C97.4504 133.001 97.4304 132.993 97.4147 132.98C91.7722 128.101 87.3264 122.748 84.2112 117.07C81.7166 112.525 80.0605 107.763 79.2892 102.916C77.9756 94.6593 79.7124 88.9393 79.7304 88.8821C79.7336 88.8711 79.739 88.8609 79.7462 88.852C79.7534 88.8431 79.7622 88.8358 79.7723 88.8304C79.7824 88.825 79.7934 88.8216 79.8047 88.8206C79.8161 88.8195 79.8275 88.8207 79.8384 88.8241C79.8493 88.8276 79.8594 88.8331 79.8681 88.8405C79.8768 88.8479 79.884 88.857 79.8892 88.8672C79.8943 88.8773 79.8974 88.8885 79.8983 88.8999C79.8991 88.9113 79.8977 88.9228 79.8941 88.9336C79.8766 88.9902 78.1511 94.6791 79.4607 102.898C80.2298 107.724 81.8797 112.467 84.3652 116.993C87.472 122.654 91.9014 127.987 97.5293 132.85C97.5427 132.861 97.5524 132.877 97.5568 132.894C97.5613 132.911 97.5604 132.929 97.5542 132.946C97.548 132.962 97.5369 132.977 97.5223 132.987C97.5078 132.997 97.4905 133.002 97.4728 133.002L97.4711 133.001Z" fill="white"/>
</g>
<g style="mix-blend-mode:soft-light" opacity="0.7">
<path d="M118.391 36.2891C118.372 36.2888 118.353 36.2817 118.337 36.2691C118.322 36.2564 118.312 36.239 118.308 36.2196C118.304 36.2002 118.307 36.1801 118.316 36.1626C118.325 36.1451 118.34 36.1312 118.358 36.1232C123.831 33.7985 128.389 30.5628 131.896 26.5062C134.702 23.2615 136.847 19.4857 138.272 15.2864C140.698 8.13391 140.191 2.15399 140.186 2.09454C140.183 2.08257 140.183 2.07014 140.186 2.05811C140.188 2.04607 140.193 2.0347 140.2 2.02476C140.207 2.01482 140.217 2.00654 140.227 2.00048C140.238 1.99441 140.25 1.99071 140.262 1.9896C140.274 1.9885 140.286 1.99003 140.298 1.99409C140.31 1.99815 140.32 2.00465 140.329 2.01314C140.338 2.02163 140.345 2.03193 140.349 2.04333C140.354 2.05473 140.356 2.06698 140.355 2.07925C140.361 2.1387 140.873 8.15599 138.433 15.3424C136.999 19.5638 134.843 23.3583 132.022 26.62C128.498 30.6965 123.921 33.948 118.421 36.2829C118.412 36.2867 118.401 36.2889 118.391 36.2891Z" fill="white"/>
</g>
<path d="M98.9172 138.894C95.2862 132.681 98.8094 122.334 103.123 116.276C108.158 109.204 112.249 110.817 115.739 105.01C122.237 94.1991 110.717 84.1744 116.41 72.7524C121.062 63.414 130.524 66.5698 135.207 55.9937C138.586 48.3617 135.284 43.0504 140.407 37.3802C140.845 36.8956 145.642 31.736 151.47 32.6702C157.352 33.6157 160.841 40.2167 161.982 44.7722C164.092 53.1951 158.494 55.8941 157.345 66.8003C155.779 81.6487 165.229 85.4358 161.824 96.128C159.012 104.96 151.92 104.413 148.996 114.267C146.281 123.418 151.41 127.213 148.996 133.193C143.441 146.952 106.323 151.567 98.9172 138.894Z" fill="#CBD0D8"/>
<g style="mix-blend-mode:soft-light" opacity="0.7">
<path d="M103.835 148.645C103.814 148.642 103.795 148.633 103.781 148.618C103.767 148.603 103.759 148.584 103.758 148.563C103.757 148.543 103.763 148.523 103.775 148.506C103.788 148.49 103.806 148.479 103.826 148.475C110.132 147.805 116.021 145.841 121.329 142.637C126.359 139.603 131.559 136.466 133.868 130.683C135.617 126.308 134.654 123.088 133.437 119.01C132.252 115.047 130.782 110.114 131.595 102.576C132.059 98.2727 132.637 92.915 136.352 87.8483C138.517 84.898 140.617 83.6337 142.471 82.5184C144.418 81.347 145.955 80.4235 146.854 77.942C148.318 73.9024 147.357 70.4323 146.245 66.4136C145.56 63.9349 144.85 61.3718 144.581 58.3298C143.825 49.7675 147.854 40.5593 156.559 30.9615C156.575 30.9487 156.595 30.9418 156.615 30.9423C156.636 30.9427 156.655 30.9504 156.671 30.964C156.686 30.9776 156.696 30.9962 156.699 31.0165C156.702 31.0367 156.698 31.0574 156.687 31.0748C148.016 40.6357 144.001 49.7992 144.753 58.3117C145.02 61.3384 145.727 63.8936 146.411 66.3643C147.531 70.4119 148.499 73.9069 147.015 77.9981C146.096 80.5356 144.457 81.5219 142.558 82.6633C140.718 83.7707 138.633 85.0248 136.49 87.948C132.801 92.9773 132.227 98.3089 131.765 102.591C130.956 110.095 132.423 115.009 133.601 118.958C134.828 123.068 135.796 126.314 134.027 130.744C131.696 136.58 126.47 139.733 121.417 142.782C116.086 145.999 110.174 147.971 103.843 148.643L103.835 148.645Z" fill="white"/>
</g>
<g style="mix-blend-mode:soft-light" opacity="0.7">
<path d="M134.841 90.4832C134.825 90.4833 134.809 90.4785 134.795 90.4695C134.781 90.4604 134.77 90.4475 134.763 90.4323C129.68 78.8869 128.882 69.9498 129.107 64.4851C129.351 58.5573 130.821 55.3165 130.835 55.2843C130.845 55.2635 130.862 55.2475 130.884 55.2396C130.905 55.2318 130.929 55.2328 130.949 55.2424C130.97 55.252 130.986 55.2694 130.994 55.2909C131.002 55.3123 131.001 55.336 130.991 55.3567C130.976 55.389 129.519 58.6071 129.278 64.5044C129.056 69.9481 129.854 78.8535 134.92 90.3626C134.929 90.3835 134.93 90.4071 134.921 90.4282C134.913 90.4493 134.897 90.4664 134.876 90.4758C134.865 90.4805 134.853 90.483 134.841 90.4832Z" fill="white"/>
</g>
<g style="mix-blend-mode:soft-light" opacity="0.7">
<path d="M131.488 108.809C131.467 108.81 131.446 108.802 131.43 108.789C131.413 108.775 131.403 108.755 131.4 108.734C131.397 108.713 131.403 108.692 131.415 108.674C131.427 108.656 131.445 108.644 131.466 108.639C137.922 106.92 143.482 104.17 147.99 100.467C151.573 97.5326 154.549 93.9216 156.747 89.8383C160.502 82.871 160.802 76.7444 160.805 76.6833C160.807 76.6605 160.817 76.6391 160.833 76.6237C160.85 76.6083 160.872 76.6 160.895 76.6006C160.906 76.6011 160.917 76.6039 160.928 76.6087C160.938 76.6135 160.947 76.6202 160.955 76.6286C160.962 76.637 160.968 76.6467 160.972 76.6574C160.976 76.668 160.977 76.6793 160.977 76.6906C160.977 76.7518 160.673 82.9118 156.902 89.9131C154.694 94.0175 151.704 97.6474 148.103 100.597C143.575 104.318 137.992 107.08 131.51 108.807C131.503 108.809 131.495 108.809 131.488 108.809Z" fill="white"/>
</g>
<g style="mix-blend-mode:soft-light" opacity="0.7">
<path d="M126.956 139.546C126.936 139.546 126.916 139.539 126.9 139.525C122.077 135.357 118.28 130.783 115.615 125.931C113.483 122.048 112.069 117.978 111.41 113.837C110.287 106.781 111.771 101.891 111.787 101.844C111.79 101.833 111.795 101.822 111.802 101.813C111.809 101.805 111.818 101.797 111.828 101.792C111.838 101.786 111.849 101.783 111.861 101.782C111.872 101.781 111.884 101.782 111.894 101.786C111.905 101.789 111.915 101.795 111.924 101.802C111.933 101.809 111.94 101.818 111.945 101.829C111.95 101.839 111.954 101.85 111.954 101.861C111.955 101.873 111.954 101.884 111.95 101.895C111.431 103.564 110.686 108.203 111.581 113.819C112.237 117.94 113.647 121.989 115.769 125.854C118.421 130.686 122.204 135.241 127.01 139.394C127.024 139.406 127.033 139.421 127.038 139.438C127.042 139.455 127.041 139.474 127.035 139.49C127.029 139.507 127.018 139.521 127.003 139.531C126.989 139.541 126.971 139.546 126.954 139.546H126.956Z" fill="white"/>
</g>
<g style="mix-blend-mode:soft-light" opacity="0.7">
<path d="M144.826 56.9364C144.806 56.9362 144.787 56.9292 144.772 56.9166C144.757 56.904 144.746 56.8865 144.742 56.8672C144.738 56.8478 144.741 56.8276 144.75 56.81C144.759 56.7924 144.774 56.7785 144.792 56.7705C149.468 54.7855 153.357 52.0232 156.352 48.561C158.747 45.7907 160.579 42.5675 161.797 38.9814C163.871 32.8741 163.433 27.7711 163.433 27.7179C163.43 27.706 163.43 27.6936 163.433 27.6815C163.435 27.6695 163.44 27.6581 163.447 27.6482C163.454 27.6383 163.464 27.63 163.474 27.6239C163.485 27.6178 163.497 27.6141 163.509 27.6129C163.521 27.6118 163.533 27.6133 163.545 27.6173C163.556 27.6213 163.567 27.6277 163.576 27.6362C163.585 27.6446 163.592 27.6549 163.596 27.6662C163.601 27.6776 163.603 27.6898 163.603 27.7021C163.607 27.753 164.045 32.8956 161.96 39.0368C160.735 42.6445 158.892 45.8875 156.482 48.6742C153.47 52.1579 149.559 54.9361 144.858 56.9313C144.848 56.935 144.837 56.9367 144.826 56.9364Z" fill="white"/>
</g>
<path d="M118.968 67.4537L112.187 67.4327C111.322 67.4327 110.62 66.6871 110.62 65.7733V48.9359C110.62 36.9607 101.378 27.0657 89.8777 26.8319L76.8113 26.5669C65.068 26.328 55.4622 36.0696 55.4622 48.3272V65.5627C55.4622 66.498 54.7286 67.2538 53.8174 67.251L46.6514 67.2289C45.7367 67.2255 44.9941 66.4617 44.9941 65.5225V48.2123C44.9941 29.9441 59.3442 15.4915 76.8113 15.924L89.8772 16.2479C106.902 16.6702 120.523 31.3511 120.523 49.0446V65.8112C120.524 66.721 119.829 67.4565 118.968 67.4537Z" fill="#97A6B7"/>
<path d="M122.869 70.6847L42.49 70.546C38.5227 70.5392 35.2969 73.8338 35.2969 77.9063V118.796C35.2969 135.4 48.4 148.458 64.3678 147.967L102.055 146.808C117.319 146.338 129.549 133.028 129.549 117.073V77.7806C129.55 73.8678 126.564 70.6915 122.869 70.6847ZM91.0085 126.48L75.667 126.82L79.7432 108.625C76.0755 107.17 73.4766 103.484 73.4766 99.1281C73.4766 93.4364 77.9127 88.796 83.3623 88.7632C88.787 88.7315 93.1668 93.2807 93.1668 98.9254C93.1668 103.245 90.6022 106.971 86.9707 108.521L91.0085 126.48Z" fill="#97A6B7"/>
<path d="M125.54 67.4537L118.759 67.4327C117.894 67.4327 117.192 66.6871 117.192 65.7733V48.9359C117.192 36.9607 107.951 27.0657 96.45 26.8319L83.3836 26.5664C71.6414 26.328 62.0345 36.0696 62.0345 48.3272V65.5627C62.0345 66.498 61.3009 67.2538 60.3897 67.251L53.2236 67.2289C52.3084 67.2255 51.5664 66.4617 51.5664 65.5225V48.2123C51.5664 29.9441 65.9165 15.4915 83.383 15.924L96.4495 16.2479C113.474 16.6702 127.096 31.3511 127.096 49.0446V65.8112C127.096 66.721 126.399 67.4565 125.54 67.4537Z" fill="#CBD0D8"/>
<path d="M129.441 70.6847L49.0623 70.546C45.095 70.5392 41.8691 73.8338 41.8691 77.9063V118.796C41.8691 135.4 54.9717 148.458 70.9401 147.967L108.629 146.808C123.893 146.338 136.122 133.028 136.122 117.073V77.7806C136.122 73.8678 133.136 70.6915 129.441 70.6847ZM97.5808 126.48L82.2387 126.82L86.3155 108.625C82.6478 107.17 80.0488 103.484 80.0488 99.1281C80.0488 93.4364 84.485 88.796 89.9346 88.7632C95.3593 88.7315 99.7391 93.2807 99.7391 98.9254C99.7391 103.245 97.1745 106.971 93.543 108.521L97.5808 126.48Z" fill="#CBD0D8"/>
<g style="mix-blend-mode:soft-light" opacity="0.48">
<path d="M51.5669 48.2122V65.5246C51.5669 66.4639 52.3089 67.2277 53.2241 67.2311L60.3901 67.2532C61.2986 67.2532 62.0349 66.5001 62.0349 65.5648V48.3271C62.0349 36.0695 71.6408 26.3279 83.3841 26.5663L85.0131 26.5991C83.6385 22.8346 81.7139 19.3317 79.4095 16.0847C63.7915 17.7396 51.5669 31.351 51.5669 48.2122Z" fill="#97A6B7"/>
</g>
<g style="mix-blend-mode:soft-light" opacity="0.48">
<path d="M93.7458 109.421L97.5827 126.48L82.2406 126.82L86.3174 108.625C82.6497 107.17 80.0508 103.484 80.0508 99.1281C80.051 98.5853 80.0921 98.0432 80.1738 97.5066C78.1554 94.8258 76.5795 91.7192 75.6248 87.8341C74.0313 81.3503 74.9352 75.8312 76.799 70.597L49.0642 70.5488C45.0969 70.542 41.8711 73.8366 41.8711 77.9091V118.796C41.8711 135.4 54.9736 148.458 70.942 147.967L108.631 146.808C112.501 146.688 116.301 145.733 119.771 144.009C118.383 139.673 116.56 135.49 114.33 131.523C108.136 120.531 100.591 114.516 93.7458 109.421Z" fill="#97A6B7"/>
</g>
<path d="M81.0504 26.6524C79.5084 26.7963 77.988 27.1172 76.5189 27.6087C72.823 23.8951 68.2243 20.9844 63.4214 18.6801C67.6161 16.7462 72.197 15.8033 76.8117 15.924L80.2328 16.0089C81.2809 15.9265 82.3325 15.8982 83.3836 15.924L96.45 16.2478C113.475 16.6702 127.096 31.3511 127.096 49.0445V65.8112C127.096 66.721 126.4 67.4565 125.54 67.4531L119.201 67.4333C119.124 67.4459 119.046 67.4525 118.968 67.4531L112.187 67.4321C111.321 67.4321 110.62 66.6865 110.62 65.7727V48.9358C110.62 36.9607 101.378 27.0657 89.8776 26.8319L81.0504 26.6524ZM129.441 70.6848L78.6382 70.597C77.6976 75.2816 77.5768 80.2107 79.4846 85.6731C80.2692 87.9436 81.3589 90.096 82.7234 92.0709C83.8079 90.8506 85.1742 89.9159 86.7025 89.3487C90.4774 90.7488 93.1677 94.5009 93.1677 98.9232C93.1678 99.7793 93.0651 100.632 92.8619 101.464C100.655 106.755 109.247 110.913 112.939 121.531C115.885 130.003 114.41 138.851 111.547 146.559C125.423 144.608 136.123 131.999 136.123 117.074V77.7812C136.122 73.8678 133.136 70.6916 129.441 70.6848Z" fill="#F2F4F8"/>
<path d="M98.4302 94.0579C95.4849 88.5881 89.9349 88.7637 87.3494 89.6255C93.2591 92.5804 93.3822 98.6493 92.8898 101.358L98.4302 105.052C99.6614 103.82 101.016 98.8595 98.4302 94.0579Z" fill="#CBD0D8"/>
<path d="M123.808 88.1951C124.56 87.4412 124.56 86.2187 123.808 85.4648C123.057 84.7108 121.839 84.7108 121.087 85.4648C120.336 86.2187 120.336 87.4412 121.087 88.1951C121.839 88.9491 123.057 88.9491 123.808 88.1951Z" fill="#97A6B7"/>
<path d="M124.352 76.4898C124.522 75.4373 123.81 74.4456 122.761 74.2748C121.712 74.1039 120.724 74.8187 120.554 75.8711C120.383 76.9236 121.096 77.9154 122.145 78.0862C123.194 78.257 124.182 77.5423 124.352 76.4898Z" fill="#97A6B7"/>
<path d="M124.351 106.997C124.522 105.944 123.809 104.953 122.76 104.782C121.712 104.611 120.723 105.326 120.553 106.378C120.383 107.431 121.095 108.422 122.144 108.593C123.193 108.764 124.181 108.049 124.351 106.997Z" fill="#97A6B7"/>
<path d="M124.317 126.971C124.562 125.934 123.921 124.894 122.887 124.649C121.853 124.404 120.816 125.047 120.572 126.084C120.328 127.122 120.969 128.162 122.003 128.407C123.037 128.652 124.073 128.009 124.317 126.971Z" fill="#97A6B7"/>
<path d="M121.793 50.7352C122.464 50.6796 122.963 50.0887 122.907 49.4156C122.852 48.7425 122.263 48.242 121.592 48.2977C120.921 48.3534 120.422 48.9442 120.478 49.6173C120.533 50.2904 121.122 50.7909 121.793 50.7352Z" fill="#97A6B7"/>
<path d="M118.066 34.88C118.739 34.88 119.285 34.3324 119.285 33.657C119.285 32.9816 118.739 32.4341 118.066 32.4341C117.393 32.4341 116.847 32.9816 116.847 33.657C116.847 34.3324 117.393 34.88 118.066 34.88Z" fill="#97A6B7"/>
<path d="M108.276 23.423C108.276 23.6649 108.204 23.9015 108.07 24.1027C107.936 24.3039 107.746 24.4607 107.523 24.5533C107.3 24.6459 107.055 24.6702 106.819 24.623C106.582 24.5757 106.365 24.4592 106.194 24.2881C106.024 24.117 105.908 23.899 105.861 23.6617C105.814 23.4243 105.838 23.1783 105.93 22.9547C106.022 22.7312 106.179 22.5401 106.379 22.4057C106.58 22.2712 106.815 22.1995 107.057 22.1995C107.217 22.1994 107.375 22.231 107.523 22.2924C107.671 22.3539 107.806 22.444 107.919 22.5577C108.032 22.6713 108.122 22.8062 108.183 22.9547C108.244 23.1031 108.276 23.2623 108.276 23.423Z" fill="#97A6B7"/>
<path d="M88.9959 22.1994C89.669 22.1994 90.2147 21.6519 90.2147 20.9765C90.2147 20.3011 89.669 19.7535 88.9959 19.7535C88.3228 19.7535 87.7771 20.3011 87.7771 20.9765C87.7771 21.6519 88.3228 22.1994 88.9959 22.1994Z" fill="#97A6B7"/>
<path d="M124.868 65.58L120.185 70.6433C119.893 70.962 119.73 71.3788 119.728 71.8119L119.695 75.5396L121.627 75.6398L121.602 78.8562L120.542 77.5965L119.667 78.756L119.64 81.7765L121.424 81.8688L121.393 85.8099L119.605 85.7176L119.592 87.1897L120.513 87.2372L120.486 90.5624L120.437 89.3553L119.563 90.5143L119.539 93.1096L121.492 93.2109L121.478 95.0697L120.398 93.8094L119.523 94.9683L119.508 96.5831L121.466 96.6844L121.441 99.9235L120.355 98.6626L119.48 99.8216L119.424 106.362C113.879 107.847 109.33 111.866 107.005 117.26L106.999 117.274C106.939 117.413 106.88 117.554 106.823 117.695L106.806 117.736C106.749 117.88 106.693 118.024 106.637 118.17C106.637 118.172 106.637 118.175 106.637 118.177C106.524 118.479 106.418 118.784 106.32 119.092L106.301 119.149C106.26 119.277 106.221 119.405 106.183 119.535C106.173 119.568 106.163 119.601 106.154 119.635C106.118 119.757 106.084 119.879 106.051 120.002L106.026 120.096C105.945 120.401 105.87 120.711 105.8 121.024C105.794 121.052 105.788 121.08 105.782 121.111C105.755 121.234 105.73 121.359 105.706 121.483C105.697 121.53 105.689 121.576 105.68 121.622C105.66 121.733 105.641 121.844 105.624 121.956C105.616 122.004 105.607 122.053 105.6 122.101C105.58 122.222 105.562 122.344 105.544 122.466C105.539 122.502 105.533 122.538 105.528 122.573C105.507 122.731 105.486 122.89 105.468 123.049L105.459 123.133C105.444 123.263 105.431 123.393 105.419 123.524C105.414 123.576 105.409 123.63 105.405 123.682C105.396 123.79 105.387 123.899 105.379 124.008C105.376 124.065 105.372 124.122 105.368 124.178C105.361 124.292 105.355 124.401 105.35 124.513C105.35 124.564 105.345 124.615 105.343 124.666C105.337 124.828 105.332 124.99 105.329 125.153C105.131 136.646 113.945 146.545 125.021 147.12C136.097 147.695 145.011 138.713 144.935 127.206C144.935 127.043 144.931 126.881 144.926 126.718C144.926 126.667 144.922 126.616 144.921 126.565C144.917 126.452 144.912 126.339 144.907 126.226C144.903 126.169 144.9 126.112 144.897 126.053C144.89 125.944 144.883 125.835 144.875 125.725C144.871 125.672 144.867 125.618 144.863 125.565C144.852 125.433 144.84 125.301 144.827 125.169C144.827 125.141 144.822 125.112 144.819 125.084C144.802 124.923 144.783 124.762 144.763 124.602C144.758 124.566 144.753 124.53 144.748 124.494C144.732 124.37 144.715 124.246 144.697 124.123C144.689 124.074 144.681 124.025 144.674 123.976C144.656 123.862 144.637 123.749 144.617 123.636C144.609 123.588 144.601 123.541 144.593 123.493C144.57 123.367 144.546 123.241 144.522 123.115C144.516 123.085 144.51 123.054 144.504 123.024C144.44 122.705 144.369 122.388 144.291 122.074C144.283 122.042 144.275 122.009 144.266 121.976C144.235 121.851 144.202 121.726 144.169 121.601L144.14 121.496C144.103 121.364 144.065 121.233 144.027 121.1C144.02 121.079 144.014 121.057 144.008 121.036C143.913 120.717 143.81 120.402 143.701 120.09C143.701 120.086 143.698 120.082 143.697 120.078C143.645 119.927 143.59 119.778 143.534 119.632C143.529 119.616 143.523 119.601 143.517 119.585C143.462 119.439 143.406 119.295 143.348 119.151C143.345 119.145 143.343 119.139 143.34 119.133C141.073 113.501 136.569 109.014 131.045 106.956L131.112 69.0891C131.11 68.7823 131.035 68.4804 130.891 68.2093C130.748 67.9382 130.542 67.7059 130.29 67.5322L127.154 65.362C127.1 65.3257 127.045 65.292 126.988 65.2612C126.972 65.2522 126.957 65.2443 126.94 65.2363C126.897 65.2144 126.854 65.1941 126.81 65.1752L126.764 65.1571C126.708 65.135 126.651 65.1157 126.595 65.1005H126.591C126.288 65.0134 125.967 65.0121 125.663 65.0967C125.358 65.1813 125.084 65.3486 124.868 65.58ZM121.047 135.304C121.065 132.969 122.881 131.174 125.102 131.289C127.324 131.404 129.119 133.384 129.112 135.722C129.105 138.06 127.29 139.874 125.057 139.758C122.825 139.642 121.029 137.643 121.047 135.301V135.304Z" fill="#97A6B7"/>
<path d="M120.612 118.205L120.775 99.7776L122.736 99.8795L122.761 96.641L120.804 96.5391L120.818 94.925L122.773 95.0263L122.787 93.167L120.834 93.0662L120.858 90.4709L121.781 90.5184L121.808 87.1939L120.887 87.1457L120.9 85.6737L122.689 85.7665L122.719 81.8249L120.935 81.7326L120.962 78.712L122.897 78.8122L122.922 75.5958L120.99 75.4956L121.023 71.7679C121.025 71.3351 121.188 70.9185 121.48 70.5999L126.163 65.5361C126.745 64.9076 127.713 64.8193 128.449 65.3283L131.584 67.4978C131.836 67.6715 132.043 67.9038 132.186 68.1749C132.329 68.446 132.405 68.7479 132.407 69.0548L132.325 114.991L120.612 118.205Z" fill="#F3B33D"/>
<path d="M146.226 127.165C146.151 115.816 137.335 106.273 126.534 105.714C115.733 105.156 106.818 113.777 106.622 125.113C106.424 136.606 115.239 146.505 126.314 147.081C137.39 147.656 146.303 138.674 146.226 127.165ZM130.406 135.677C130.4 138.019 128.584 139.829 126.352 139.714C124.119 139.598 122.323 137.601 122.341 135.259C122.36 132.917 124.175 131.129 126.397 131.244C128.618 131.36 130.413 133.341 130.406 135.677Z" fill="#F3B33D"/>
<g style="mix-blend-mode:multiply" opacity="0.3">
<path d="M132.338 106.92L132.406 69.0537C132.404 68.7468 132.329 68.4449 132.185 68.1738C132.042 67.9026 131.836 67.6703 131.583 67.4967L128.448 65.3271C128.226 65.1717 127.973 65.0681 127.707 65.0242C127.44 64.9803 127.167 64.9972 126.908 65.0735C125.347 69.1409 125.377 72.3346 125.859 74.7177C126.404 77.4098 127.428 78.5971 127.499 81.8514C127.601 86.5269 125.561 87.0427 125.032 92.0425C124.398 98.044 126.93 101.018 125.084 103.125C124.426 103.877 123.199 104.527 120.734 104.348L120.717 106.315C112.711 108.459 106.78 115.884 106.621 125.112C106.423 136.605 115.237 146.504 126.313 147.08C137.389 147.655 146.304 138.673 146.227 127.166C146.165 117.929 140.317 109.893 132.338 106.92ZM122.341 135.259C122.359 132.924 124.175 131.129 126.397 131.244C128.618 131.36 130.413 133.339 130.406 135.677C130.4 138.015 128.584 139.829 126.352 139.714C124.119 139.598 122.323 137.598 122.341 135.259Z" fill="#F3B33D"/>
</g>
<path d="M142.343 126.964C142.304 117.831 135.217 110.134 126.514 109.683C117.811 109.233 110.644 116.19 110.508 125.313C110.37 134.538 117.455 142.468 126.334 142.926C135.213 143.384 142.379 136.199 142.343 126.964ZM130.409 135.677C130.403 138.019 128.587 139.829 126.355 139.714C124.122 139.598 122.326 137.601 122.344 135.259C122.363 132.917 124.178 131.129 126.4 131.244C128.621 131.36 130.413 133.341 130.407 135.677H130.409Z" fill="#FDB249"/>
<path d="M110.619 65.8992C110.619 67.0812 111.358 67.3767 111.727 67.3767H117.637C117.341 67.0812 116.898 66.2686 116.898 66.2686V47.8006C116.898 32.2875 100.646 25.639 92.5205 27.1164C105.817 28.8894 110.127 41.6446 110.619 47.8006V65.8992Z" fill="#CBD0D8"/>
</g>
<defs>
<clipPath id="clip0_619_1762">
<rect width="157.347" height="160.302" fill="white" transform="translate(12 2)"/>
</clipPath>
</defs>
</svg>
