<svg width="110" height="51" viewBox="0 0 110 51" fill="none" xmlns="http://www.w3.org/2000/svg">
<path d="M44.0346 43.9276H22.0351C20.283 43.9276 18.6027 43.2338 17.3638 41.999C16.125 40.7641 15.429 39.0892 15.429 37.3428C15.429 35.5964 16.125 33.9216 17.3638 32.6867C18.6027 31.4518 20.283 30.7581 22.0351 30.7581H44.0346C45.7867 30.7581 47.467 31.4518 48.7059 32.6867C49.9448 33.9216 50.6408 35.5964 50.6408 37.3428C50.6408 39.0892 49.9448 40.7641 48.7059 41.999C47.467 43.2338 45.7867 43.9276 44.0346 43.9276Z" fill="#F5A934"/>
<path d="M37.464 50.4862C35.7127 50.4838 34.0338 49.7893 32.7954 48.555C31.557 47.3206 30.8603 45.6471 30.8579 43.9014V21.964C30.8579 19.6316 29.9284 17.3947 28.2737 15.7454C26.6191 14.0961 24.375 13.1695 22.035 13.1695C19.695 13.1695 17.4508 14.0961 15.7962 15.7454C14.1415 17.3947 13.212 19.6316 13.212 21.964C13.212 22.8287 13.0411 23.685 12.7091 24.4839C12.3771 25.2828 11.8905 26.0087 11.2771 26.6202C10.6637 27.2316 9.9354 27.7166 9.13391 28.0476C8.33242 28.3785 7.47339 28.5488 6.60586 28.5488C5.73834 28.5488 4.8793 28.3785 4.07782 28.0476C3.27633 27.7166 2.54807 27.2316 1.93464 26.6202C1.32121 26.0087 0.834604 25.2828 0.502616 24.4839C0.170628 23.685 -0.000244163 22.8287 -0.000244141 21.964C-0.000244141 16.1388 2.32131 10.5522 6.45372 6.43311C10.5861 2.31406 16.1909 0 22.035 0C27.879 0 33.4838 2.31406 37.6162 6.43311C41.7486 10.5522 44.0701 16.1388 44.0701 21.964V43.9014C44.0701 45.6478 43.3741 47.3227 42.1353 48.5576C40.8964 49.7924 39.2161 50.4862 37.464 50.4862Z" fill="#FC4041"/>
<path d="M6.60586 50.4862C8.35791 50.4862 10.0382 49.7924 11.2771 48.5576C12.516 47.3227 13.212 45.6478 13.212 43.9014V21.964C13.212 20.8091 13.4402 19.6655 13.8836 18.5985C14.327 17.5315 14.9769 16.562 15.7962 15.7454C16.6154 14.9287 17.5881 14.2809 18.6585 13.839C19.729 13.397 20.8763 13.1695 22.035 13.1695C23.1936 13.1695 24.3409 13.397 25.4114 13.839C26.4818 14.2809 27.4545 14.9287 28.2737 15.7454C29.093 16.562 29.7429 17.5315 30.1863 18.5985C30.6297 19.6655 30.8579 20.8091 30.8579 21.964C30.8579 23.7104 31.5539 25.3853 32.7928 26.6202C34.0317 27.855 35.712 28.5488 37.464 28.5488C39.2161 28.5488 40.8964 27.855 42.1353 26.6202C43.3741 25.3853 44.0701 23.7104 44.0701 21.964C44.0701 16.1388 41.7486 10.5522 37.6162 6.43311C33.4838 2.31406 27.879 0 22.035 0C16.1909 0 10.5861 2.31406 6.45372 6.43311C2.32131 10.5522 -0.000244141 16.1388 -0.000244141 21.964L-0.000244141 43.9014C-0.000244141 45.6478 0.695754 47.3227 1.93464 48.5576C3.17353 49.7924 4.85381 50.4862 6.60586 50.4862Z" fill="#FC4041"/>
<path d="M3.30307 25.9504V27.1574C3.30307 26.9 3.30307 26.6515 3.30307 26.403C3.29383 26.2523 3.29383 26.1012 3.30307 25.9504Z" fill="#F5A934"/>
<path d="M28.6414 37.3439C28.6414 38.2086 28.4706 39.0648 28.1386 39.8637C27.8066 40.6626 27.32 41.3885 26.7065 42C26.0931 42.6115 25.3649 43.0965 24.5634 43.4274C23.7619 43.7583 22.9028 43.9286 22.0353 43.9286C17.4838 43.9223 13.0459 42.5112 9.33148 39.8893C5.61702 37.2674 2.80824 33.5633 1.29108 29.2859C1.18424 28.9931 1.0774 28.6914 0.979469 28.3985C0.979469 28.2831 0.917147 28.1767 0.890438 28.0702L0.703473 27.5111C0.641151 27.2537 0.569926 26.9786 0.516507 26.7124C0.295396 25.6767 0.146653 24.627 0.0713519 23.5709C0.0533645 23.3316 0.0533645 23.0913 0.0713519 22.852V20.6601C0.160851 19.0369 0.435653 17.4291 0.890438 15.8679H6.42817C8.1919 15.867 9.88685 16.5498 11.1546 17.7721C12.4223 18.9943 13.1635 20.6601 13.2212 22.4172C13.3419 24.6673 14.3227 26.7858 15.962 28.3373C17.6014 29.8889 19.7747 30.7555 22.0353 30.7591C22.9028 30.7591 23.7619 30.9294 24.5634 31.2603C25.3649 31.5912 26.0931 32.0763 26.7065 32.6877C27.32 33.2992 27.8066 34.0251 28.1386 34.824C28.4706 35.6229 28.6414 36.4791 28.6414 37.3439Z" fill="#F5A934"/>
<path d="M62.1433 28.772C61.9716 28.4166 61.8459 28.0408 61.7694 27.6538C61.4107 28.1 60.9509 28.455 60.4277 28.6895C59.9045 28.924 59.333 29.0313 58.7601 29.0027C57.6574 29.0336 56.5833 28.6503 55.7509 27.9289C55.3567 27.6067 55.0407 27.1999 54.8264 26.7389C54.6121 26.2779 54.5051 25.7746 54.5133 25.2666C54.4773 24.6667 54.5977 24.0678 54.863 23.5281C55.1282 22.9884 55.5292 22.5264 56.0269 22.1872C57.3466 21.412 58.8697 21.0503 60.3983 21.1489H61.6002V20.4833C61.6002 19.3385 61.1016 18.7617 60.1045 18.7617C59.9206 18.7413 59.7345 18.7628 59.5602 18.8247C59.3859 18.8866 59.228 18.9871 59.0985 19.1188C58.969 19.2505 58.8712 19.4098 58.8126 19.5847C58.754 19.7596 58.736 19.9455 58.7601 20.1283H54.816C54.8083 19.5488 54.946 18.9766 55.2166 18.4636C55.4871 17.9507 55.8819 17.5132 56.3652 17.1909C57.5194 16.3995 58.9007 16.0039 60.3003 16.0639C61.6669 15.9805 63.0174 16.3935 64.102 17.2264C64.5639 17.6189 64.9317 18.1097 65.1782 18.6626C65.4247 19.2154 65.5437 19.8164 65.5265 20.4212V25.941C65.4884 26.8583 65.6716 27.7712 66.0607 28.6033V28.7986L62.1433 28.772ZM59.7038 26.2339C60.1289 26.2478 60.5491 26.14 60.9147 25.9233C61.1993 25.7477 61.4351 25.5036 61.6002 25.2133V23.2255H60.4695C59.1073 23.2255 58.4307 23.8289 58.4307 25.0004C58.4199 25.1654 58.4463 25.3307 58.5079 25.4843C58.5696 25.6378 58.6648 25.7757 58.7868 25.8878C59.0369 26.1157 59.365 26.2395 59.7038 26.2339Z" fill="white"/>
<path d="M70.9038 28.7725H66.9954V11.0238H70.9038V28.7725Z" fill="white"/>
<path d="M79.4785 28.7724C79.3103 28.4164 79.1876 28.0407 79.1135 27.6542C78.7534 28.0988 78.2933 28.4526 77.7705 28.6869C77.2477 28.9213 76.6768 29.0296 76.1042 29.0031C75.0024 29.0288 73.9301 28.6462 73.095 27.9293C72.7008 27.6071 72.3848 27.2004 72.1705 26.7393C71.9562 26.2783 71.8492 25.775 71.8574 25.267C71.8204 24.6679 71.9395 24.0695 72.2032 23.5299C72.4668 22.9903 72.8661 22.5279 73.3621 22.1876C74.6818 21.4124 76.2049 21.0507 77.7335 21.1493H78.9354V20.4837C78.9354 19.3389 78.4368 18.7621 77.4397 18.7621C77.2524 18.7342 77.0612 18.7501 76.8811 18.8087C76.7011 18.8672 76.5372 18.9667 76.4025 19.0993C76.2677 19.2319 76.1658 19.394 76.1047 19.5727C76.0437 19.7513 76.0252 19.9417 76.0508 20.1288H72.1601C72.1507 19.5499 72.2866 18.9779 72.5557 18.4649C72.8247 17.9518 73.2182 17.514 73.7004 17.1913C74.8582 16.4004 76.2421 16.005 77.6445 16.0643C79.0023 15.9851 80.343 16.398 81.4194 17.2268C81.8828 17.6181 82.2516 18.1086 82.4983 18.6618C82.7449 19.215 82.8631 19.8165 82.8439 20.4216V25.9415C82.8059 26.8587 82.989 27.7716 83.3781 28.6038V28.799L79.4785 28.7724ZM77.039 26.2343C77.4643 26.2497 77.8849 26.1418 78.2499 25.9237C78.5365 25.7506 78.7729 25.5059 78.9354 25.2138V23.2259H77.8047C76.4425 23.2259 75.7659 23.8294 75.7659 25.0008C75.7551 25.1658 75.7815 25.3311 75.8432 25.4847C75.9048 25.6382 76.0001 25.7761 76.122 25.8882C76.3721 26.1161 76.7002 26.2399 77.039 26.2343Z" fill="white"/>
<path d="M59.6509 46.8666C59.8821 46.8815 60.1139 46.85 60.3327 46.7737C60.5514 46.6975 60.7525 46.5782 60.924 46.4229C61.0808 46.258 61.2014 46.0624 61.2781 45.8485C61.3547 45.6345 61.3857 45.407 61.3692 45.1805H64.9927C65.0104 45.8155 64.888 46.4466 64.6342 47.0293C64.3804 47.612 64.0013 48.1321 63.5237 48.5527C62.3477 49.461 60.8846 49.92 59.3987 49.8467C57.9128 49.7735 56.5022 49.1729 55.4219 48.1534C54.3081 46.8396 53.7439 45.1492 53.846 43.4322V43.2636C53.827 42.1158 54.0674 40.9784 54.5494 39.9357C54.9845 39.0086 55.6885 38.2327 56.5704 37.7083C57.5234 37.1753 58.603 36.9086 59.6954 36.9362C60.3982 36.8955 61.1022 36.9938 61.7669 37.2253C62.4315 37.4568 63.0437 37.8169 63.5682 38.2851C64.0516 38.7575 64.4287 39.3271 64.6743 39.956C64.9199 40.5848 65.0284 41.2586 64.9927 41.9324H61.3424C61.3778 41.3941 61.2094 40.8622 60.8706 40.4416C60.7133 40.2779 60.5237 40.1485 60.3138 40.0614C60.1039 39.9743 59.8782 39.9316 59.6509 39.9357C58.6359 39.9357 58.0483 40.5747 57.8702 41.8615C57.8091 42.4184 57.7823 42.9785 57.7901 43.5387C57.7208 44.4317 57.8737 45.3279 58.2353 46.1478C58.3848 46.3831 58.5952 46.5741 58.8442 46.7005C59.0933 46.827 59.3719 46.8844 59.6509 46.8666Z" fill="white"/>
<path d="M72.8276 49.6361C72.6594 49.2801 72.5367 48.9044 72.4626 48.5179C72.1015 48.9637 71.64 49.3183 71.1156 49.5527C70.5911 49.7871 70.0185 49.8947 69.4444 49.8668C68.3479 49.8953 67.2795 49.5192 66.444 48.8108C66.0499 48.4886 65.7339 48.0818 65.5196 47.6208C65.3053 47.1598 65.1983 46.6565 65.2065 46.1485C65.1726 45.5523 65.2933 44.9575 65.5568 44.4213C65.8203 43.8851 66.2178 43.4255 66.7111 43.0868C68.0309 42.3117 69.5539 41.9499 71.0826 42.0485H72.2845V41.3829C72.2845 40.2382 71.7859 39.6613 70.7888 39.6613C70.6079 39.6402 70.4245 39.66 70.2524 39.7193C70.0803 39.7786 69.9238 39.8759 69.7946 40.0038C69.6654 40.1317 69.5668 40.2871 69.5061 40.4582C69.4455 40.6294 69.4244 40.812 69.4444 40.9925H65.5092C65.4998 40.4136 65.6357 39.8417 65.9047 39.3286C66.1738 38.8156 66.5673 38.3777 67.0495 38.0551C68.2073 37.2642 69.5912 36.8687 70.9935 36.928C72.3569 36.8485 73.7033 37.2612 74.7863 38.0906C75.2492 38.4822 75.6177 38.9728 75.8643 39.5259C76.1109 40.079 76.2293 40.6804 76.2108 41.2853V46.8052C76.1727 47.7224 76.3559 48.6354 76.7449 49.4675V49.6627L72.8276 49.6361ZM70.3881 47.098C70.8134 47.1134 71.234 47.0056 71.5989 46.7874C71.8856 46.6144 72.1219 46.3696 72.2845 46.0775V44.0896H71.1538C69.7916 44.0896 69.115 44.6931 69.115 45.8645C69.1042 46.0295 69.1306 46.1949 69.1922 46.3484C69.2539 46.5019 69.3491 46.6398 69.4711 46.7519C69.7212 46.9798 70.0493 47.1036 70.3881 47.098Z" fill="white"/>
<path d="M85.051 40.6729L83.769 40.5842C82.5404 40.5842 81.748 40.9658 81.4008 41.7378V49.636H77.5012V37.1587H81.1604L81.285 38.756C81.5167 38.2203 81.8988 37.7627 82.3853 37.4383C82.8718 37.114 83.442 36.9368 84.0272 36.9279C84.3937 36.9211 84.7594 36.9659 85.1134 37.061L85.051 40.6729Z" fill="white"/>
<path d="M90.6954 34.0523V37.1583H92.752V39.8206H90.6954V45.5268C90.6594 45.8727 90.7512 46.2198 90.9536 46.503C91.0937 46.6149 91.255 46.6977 91.4277 46.7465C91.6005 46.7953 91.7814 46.809 91.9596 46.787C92.2845 46.7902 92.6091 46.7664 92.93 46.716V49.4937C92.2189 49.7185 91.4771 49.8323 90.731 49.8309C89.6527 49.9192 88.5834 49.5777 87.7573 48.8813C87.4123 48.4923 87.1494 48.038 86.9842 47.5456C86.819 47.0531 86.7549 46.5326 86.7958 46.0149V39.8029H85.2021V37.1406H86.7958V34.0345L90.6954 34.0523Z" fill="white"/>
<path d="M99.4653 49.8658C98.6141 49.9012 97.7643 49.768 96.9651 49.474C96.1659 49.18 95.433 48.7311 94.8089 48.153C94.2181 47.5781 93.7545 46.8863 93.4479 46.1221C93.1412 45.358 92.9983 44.5383 93.0283 43.7158V43.3964C93.0014 42.2297 93.2452 41.0726 93.7406 40.0152C94.1864 39.0691 94.9097 38.28 95.815 37.7523C96.8023 37.1973 97.9227 36.9211 99.0557 36.9536C99.8256 36.9139 100.595 37.0391 101.312 37.3208C102.029 37.6024 102.678 38.034 103.213 38.5865C104.298 39.8446 104.847 41.4746 104.745 43.1301V44.6388H96.9902C97.089 45.2742 97.4032 45.8568 97.8805 46.2894C98.383 46.6956 99.0144 46.9096 99.6611 46.8929C100.212 46.9187 100.761 46.8148 101.263 46.5897C101.766 46.3646 102.208 46.0246 102.555 45.5972L104.335 47.7004C103.801 48.4059 103.088 48.9572 102.27 49.2978C101.384 49.6765 100.429 49.8698 99.4653 49.8658ZM99.029 39.9354C97.8894 39.9354 97.2484 40.6808 96.9902 42.1895H100.925V41.8877C100.949 41.6273 100.92 41.3648 100.839 41.1161C100.758 40.8674 100.627 40.6378 100.454 40.4412C100.263 40.2645 100.039 40.1284 99.7938 40.0414C99.5488 39.9544 99.2885 39.9183 99.029 39.9354Z" fill="white"/>
<path d="M107.844 45.8632C108.41 45.8405 108.962 46.0378 109.385 46.4134C109.579 46.5913 109.733 46.8074 109.839 47.0479C109.945 47.2885 110 47.5484 110 47.8111C110 48.0739 109.945 48.3338 109.839 48.5743C109.733 48.8149 109.579 49.031 109.385 49.2089C108.951 49.5652 108.406 49.76 107.844 49.76C107.282 49.76 106.738 49.5652 106.304 49.2089C106.112 49.0296 105.96 48.8131 105.855 48.5727C105.751 48.3323 105.697 48.0731 105.697 47.8111C105.697 47.5492 105.751 47.29 105.855 47.0496C105.96 46.8092 106.112 46.5927 106.304 46.4134C106.728 46.0402 107.279 45.8432 107.844 45.8632Z" fill="white"/>
</svg>
