<svg width="83" height="38" viewBox="0 0 83 38" fill="none" xmlns="http://www.w3.org/2000/svg">
<path d="M33.1872 33.0631H16.607C15.2866 33.0631 14.0202 32.5409 13.0865 31.6115C12.1528 30.682 11.6283 29.4213 11.6283 28.1069C11.6283 26.7924 12.1528 25.5318 13.0865 24.6023C14.0202 23.6728 15.2866 23.1506 16.607 23.1506H33.1872C34.5076 23.1506 35.774 23.6728 36.7077 24.6023C37.6414 25.5318 38.1659 26.7924 38.1659 28.1069C38.1659 29.4213 37.6414 30.682 36.7077 31.6115C35.774 32.5409 34.5076 33.0631 33.1872 33.0631Z" fill="#F5A934"/>
<path d="M28.2352 38C26.9153 37.9982 25.65 37.4755 24.7167 36.5464C23.7834 35.6173 23.2583 34.3577 23.2565 33.0438V16.5319C23.2565 14.7763 22.5559 13.0926 21.3089 11.8513C20.0619 10.6099 18.3705 9.91246 16.607 9.91246C14.8434 9.91246 13.1521 10.6099 11.9051 11.8513C10.658 13.0926 9.95748 14.7763 9.95748 16.5319C9.95748 17.1828 9.8287 17.8273 9.5785 18.4286C9.32829 19.0299 8.96156 19.5763 8.49924 20.0365C8.03692 20.4967 7.48807 20.8618 6.88402 21.1109C6.27997 21.3599 5.63256 21.4881 4.97874 21.4881C4.32492 21.4881 3.67751 21.3599 3.07346 21.1109C2.46941 20.8618 1.92056 20.4967 1.45824 20.0365C0.99592 19.5763 0.629189 19.0299 0.378984 18.4286C0.128779 17.8273 -1.68747e-08 17.1828 0 16.5319C0 12.1474 1.74966 7.94242 4.86407 4.84208C7.97849 1.74175 12.2025 0 16.607 0C21.0114 0 25.2355 1.74175 28.3499 4.84208C31.4643 7.94242 33.214 12.1474 33.214 16.5319V33.0438C33.214 34.3582 32.6894 35.6189 31.7557 36.5484C30.822 37.4778 29.5557 38 28.2352 38Z" fill="#FC4041"/>
<path d="M4.97874 38C6.29918 38 7.56555 37.4778 8.49924 36.5484C9.43294 35.6189 9.95748 34.3582 9.95748 33.0438V16.5319C9.95748 15.6626 10.1295 14.8019 10.4636 13.9988C10.7978 13.1956 11.2876 12.4659 11.9051 11.8513C12.5225 11.2366 13.2556 10.749 14.0623 10.4163C14.8691 10.0837 15.7338 9.91246 16.607 9.91246C17.4802 9.91246 18.3449 10.0837 19.1516 10.4163C19.9584 10.749 20.6914 11.2366 21.3089 11.8513C21.9264 12.4659 22.4162 13.1956 22.7503 13.9988C23.0845 14.8019 23.2565 15.6626 23.2565 16.5319C23.2565 17.8464 23.781 19.107 24.7147 20.0365C25.6484 20.966 26.9148 21.4881 28.2352 21.4881C29.5557 21.4881 30.822 20.966 31.7557 20.0365C32.6894 19.107 33.214 17.8464 33.214 16.5319C33.214 12.1474 31.4643 7.94242 28.3499 4.84208C25.2355 1.74175 21.0114 0 16.607 0C12.2025 0 7.97849 1.74175 4.86407 4.84208C1.74966 7.94242 0 12.1474 0 16.5319L0 33.0438C0 34.3582 0.524544 35.6189 1.45824 36.5484C2.39193 37.4778 3.6583 38 4.97874 38Z" fill="#FC4041"/>
<path d="M2.48798 19.532V20.4404C2.48798 20.2467 2.48798 20.0597 2.48798 19.8726C2.48285 19.7592 2.48285 19.6454 2.48798 19.532Z" fill="#F5A934"/>
<path d="M21.5857 28.1076C21.5857 28.7585 21.4569 29.403 21.2067 30.0043C20.9565 30.6056 20.5897 31.152 20.1274 31.6122C19.6651 32.0725 19.1163 32.4375 18.5122 32.6866C17.9082 32.9357 17.2607 33.0639 16.6069 33.0639C13.1766 33.0591 9.83202 31.997 7.03259 30.0236C4.23316 28.0501 2.1163 25.2621 0.972879 22.0426C0.892361 21.8222 0.811842 21.5951 0.738033 21.3747C0.738033 21.2878 0.691064 21.2077 0.670934 21.1275L0.530027 20.7067C0.483057 20.513 0.429378 20.3059 0.389119 20.1055C0.222477 19.326 0.110376 18.5359 0.0536243 17.741C0.0400679 17.5609 0.0400679 17.38 0.0536243 17.1999V15.5501C0.121076 14.3283 0.328183 13.1182 0.670934 11.9431H4.84449C6.17373 11.9424 7.45114 12.4564 8.40658 13.3763C9.36202 14.2963 9.92058 15.5501 9.96413 16.8726C10.0551 18.5662 10.7943 20.1608 12.0298 21.3286C13.2653 22.4964 14.9032 23.1487 16.6069 23.1514C17.2607 23.1514 17.9082 23.2796 18.5122 23.5287C19.1163 23.7778 19.6651 24.1428 20.1274 24.6031C20.5897 25.0633 20.9565 25.6097 21.2067 26.211C21.4569 26.8123 21.5857 27.4568 21.5857 28.1076Z" fill="#F5A934"/>
<path d="M46.8352 21.6561C46.7057 21.3886 46.611 21.1057 46.5533 20.8144C46.283 21.1503 45.9365 21.4175 45.5422 21.594C45.1479 21.7705 44.7172 21.8513 44.2854 21.8297C43.4544 21.853 42.6449 21.5645 42.0175 21.0215C41.7204 20.779 41.4822 20.4728 41.3207 20.1258C41.1592 19.7789 41.0786 19.4 41.0848 19.0176C41.0576 18.5661 41.1484 18.1153 41.3483 17.7091C41.5482 17.3029 41.8504 16.9552 42.2255 16.6998C43.2201 16.1164 44.368 15.8441 45.52 15.9183H46.4259V15.4174C46.4259 14.5557 46.0501 14.1215 45.2986 14.1215C45.16 14.1062 45.0198 14.1224 44.8884 14.1689C44.7571 14.2155 44.6381 14.2912 44.5405 14.3903C44.4428 14.4894 44.3691 14.6093 44.325 14.741C44.2808 14.8726 44.2672 15.0126 44.2854 15.1502H41.3129C41.3071 14.714 41.4109 14.2833 41.6148 13.8972C41.8187 13.5111 42.1162 13.1818 42.4804 12.9392C43.3504 12.3436 44.3913 12.0458 45.4462 12.0909C46.4761 12.0282 47.494 12.3391 48.3113 12.966C48.6595 13.2614 48.9366 13.6308 49.1224 14.0469C49.3082 14.4631 49.3979 14.9154 49.3849 15.3706V19.5253C49.3563 20.2157 49.4943 20.9028 49.7875 21.5292V21.6761L46.8352 21.6561ZM44.9966 19.7457C45.317 19.7562 45.6337 19.6751 45.9092 19.5119C46.1237 19.3798 46.3014 19.196 46.4259 18.9776V17.4813H45.5737C44.5471 17.4813 44.0371 17.9356 44.0371 18.8173C44.029 18.9415 44.0489 19.0659 44.0954 19.1815C44.1418 19.2971 44.2136 19.4008 44.3055 19.4852C44.494 19.6567 44.7413 19.7499 44.9966 19.7457Z" fill="#414141"/>
<path d="M53.4378 21.6565H50.4922V8.29736H53.4378V21.6565Z" fill="#414141"/>
<path d="M59.8993 21.6568C59.7725 21.3889 59.6801 21.1061 59.6242 20.8152C59.3528 21.1498 59.006 21.4161 58.612 21.5925C58.218 21.7689 57.7878 21.8504 57.3562 21.8305C56.5258 21.8499 55.7177 21.5619 55.0883 21.0223C54.7912 20.7798 54.553 20.4736 54.3915 20.1266C54.23 19.7796 54.1494 19.4008 54.1556 19.0184C54.1277 18.5675 54.2175 18.1171 54.4162 17.7109C54.6149 17.3048 54.9158 16.9567 55.2896 16.7006C56.2842 16.1172 57.4321 15.8449 58.5841 15.9191H59.49V15.4181C59.49 14.5565 59.1142 14.1223 58.3627 14.1223C58.2216 14.1013 58.0774 14.1133 57.9418 14.1573C57.8061 14.2014 57.6826 14.2763 57.581 14.3761C57.4794 14.4759 57.4026 14.5979 57.3566 14.7324C57.3106 14.8669 57.2967 15.0102 57.316 15.1509H54.3837C54.3766 14.7153 54.4791 14.2847 54.6818 13.8986C54.8846 13.5124 55.1812 13.1829 55.5446 12.94C56.4172 12.3447 57.4601 12.0471 58.517 12.0917C59.5404 12.0321 60.5508 12.3428 61.362 12.9667C61.7113 13.2612 61.9893 13.6304 62.1752 14.0468C62.3611 14.4632 62.4501 14.916 62.4356 15.3714V19.5261C62.407 20.2164 62.545 20.9036 62.8382 21.5299V21.6769L59.8993 21.6568ZM58.0608 19.7465C58.3813 19.7581 58.6983 19.6769 58.9733 19.5127C59.1894 19.3824 59.3675 19.1982 59.49 18.9783V17.4821H58.6378C57.6112 17.4821 57.1013 17.9363 57.1013 18.818C57.0931 18.9422 57.113 19.0667 57.1595 19.1822C57.2059 19.2978 57.2777 19.4016 57.3697 19.486C57.5581 19.6575 57.8054 19.7507 58.0608 19.7465Z" fill="#414141"/>
<path d="M44.956 35.2758C45.1303 35.2871 45.305 35.2633 45.4699 35.2059C45.6347 35.1486 45.7863 35.0587 45.9155 34.9419C46.0337 34.8178 46.1246 34.6705 46.1824 34.5095C46.2401 34.3485 46.2635 34.1772 46.251 34.0067H48.9819C48.9953 34.4847 48.903 34.9597 48.7117 35.3983C48.5204 35.8369 48.2347 36.2283 47.8748 36.5449C46.9885 37.2286 45.8858 37.5741 44.766 37.5189C43.6461 37.4638 42.583 37.0117 41.7688 36.2444C40.9294 35.2555 40.5042 33.9832 40.5812 32.6908V32.5639C40.5668 31.7 40.748 30.8439 41.1112 30.0591C41.4392 29.3613 41.9697 28.7773 42.6344 28.3825C43.3526 27.9814 44.1663 27.7806 44.9896 27.8014C45.5193 27.7708 46.0498 27.8448 46.5508 28.019C47.0517 28.1932 47.5131 28.4643 47.9084 28.8167C48.2727 29.1723 48.5568 29.601 48.7419 30.0743C48.927 30.5477 49.0089 31.0548 48.9819 31.562H46.2309C46.2575 31.1568 46.1306 30.7564 45.8753 30.4398C45.7567 30.3166 45.6139 30.2192 45.4557 30.1537C45.2975 30.0882 45.1273 30.056 44.956 30.0591C44.1911 30.0591 43.7482 30.54 43.614 31.5086C43.568 31.9277 43.5478 32.3494 43.5536 32.771C43.5014 33.4431 43.6166 34.1177 43.8891 34.7348C44.0019 34.9119 44.1604 35.0557 44.3481 35.1508C44.5358 35.246 44.7458 35.2892 44.956 35.2758Z" fill="#414141"/>
<path d="M54.8868 37.36C54.76 37.0921 54.6676 36.8093 54.6117 36.5184C54.3396 36.8539 53.9918 37.1208 53.5965 37.2972C53.2012 37.4737 52.7697 37.5547 52.337 37.5337C51.5107 37.5551 50.7054 37.272 50.0758 36.7388C49.7787 36.4963 49.5406 36.1901 49.3791 35.8432C49.2176 35.4962 49.1369 35.1173 49.1431 34.7349C49.1176 34.2862 49.2085 33.8386 49.4071 33.435C49.6057 33.0314 49.9053 32.6854 50.2771 32.4305C51.2717 31.8471 52.4196 31.5748 53.5717 31.649H54.4775V31.148C54.4775 30.2864 54.1017 29.8522 53.3502 29.8522C53.2139 29.8363 53.0757 29.8512 52.946 29.8958C52.8163 29.9405 52.6983 30.0137 52.601 30.11C52.5036 30.2063 52.4293 30.3232 52.3836 30.452C52.3379 30.5809 52.322 30.7183 52.337 30.8541H49.3713C49.3641 30.4185 49.4666 29.9879 49.6693 29.6018C49.8721 29.2156 50.1687 28.8861 50.5321 28.6432C51.4047 28.0479 52.4477 27.7502 53.5046 27.7949C54.532 27.735 55.5468 28.0456 56.363 28.6699C56.7119 28.9647 56.9896 29.334 57.1754 29.7503C57.3613 30.1666 57.4505 30.6192 57.4366 31.0745V35.2292C57.4079 35.9196 57.546 36.6068 57.8391 37.2331V37.38L54.8868 37.36ZM53.0483 35.4497C53.3688 35.4613 53.6858 35.3801 53.9608 35.2159C54.1769 35.0856 54.355 34.9014 54.4775 34.6815V33.1853H53.6253C52.5987 33.1853 52.0888 33.6395 52.0888 34.5212C52.0807 34.6454 52.1006 34.7699 52.147 34.8854C52.1934 35.001 52.2652 35.1048 52.3572 35.1892C52.5457 35.3607 52.7929 35.4539 53.0483 35.4497Z" fill="#414141"/>
<path d="M64.0994 30.614L63.1332 30.5472C62.2072 30.5472 61.61 30.8344 61.3484 31.4155V37.3603H58.4094V27.9689H61.1672L61.2611 29.1712C61.4357 28.7679 61.7237 28.4235 62.0903 28.1794C62.457 27.9352 62.8867 27.8018 63.3278 27.7952C63.604 27.79 63.8796 27.8238 64.1464 27.8954L64.0994 30.614Z" fill="#414141"/>
<path d="M68.3531 25.6305V27.9684H69.9031V29.9723H68.3531V34.2672C68.326 34.5275 68.3952 34.7888 68.5477 35.002C68.6534 35.0862 68.7749 35.1485 68.9051 35.1852C69.0353 35.2219 69.1716 35.2323 69.3059 35.2157C69.5508 35.2181 69.7954 35.2002 70.0373 35.1623V37.253C69.5013 37.4222 68.9423 37.5078 68.38 37.5068C67.5674 37.5733 66.7614 37.3162 66.1389 36.7921C65.8788 36.4993 65.6807 36.1574 65.5562 35.7867C65.4317 35.416 65.3834 35.0242 65.4142 34.6346V29.9589H64.2131V27.955H65.4142V25.6172L68.3531 25.6305Z" fill="#414141"/>
<path d="M74.9626 37.5332C74.3211 37.5599 73.6807 37.4597 73.0783 37.2384C72.476 37.0171 71.9237 36.6792 71.4533 36.2441C71.0081 35.8113 70.6587 35.2906 70.4275 34.7155C70.1964 34.1403 70.0887 33.5234 70.1113 32.9043V32.6638C70.0911 31.7857 70.2748 30.9148 70.6481 30.1189C70.9841 29.4068 71.5293 28.8128 72.2115 28.4156C72.9556 27.9979 73.8 27.79 74.6539 27.8145C75.2341 27.7846 75.814 27.8789 76.3545 28.0909C76.8951 28.3029 77.3837 28.6277 77.7875 29.0435C78.6046 29.9905 79.0187 31.2174 78.9416 32.4635V33.599H73.0973C73.1717 34.0773 73.4085 34.5158 73.7682 34.8414C74.1469 35.1471 74.6228 35.3082 75.1102 35.2956C75.5251 35.315 75.9388 35.2368 76.3176 35.0674C76.6965 34.8979 77.03 34.642 77.2909 34.3204L78.6329 35.9034C78.2302 36.4345 77.693 36.8494 77.0762 37.1058C76.4085 37.3908 75.6891 37.5363 74.9626 37.5332ZM74.6338 30.0588C73.775 30.0588 73.2918 30.6199 73.0973 31.7554H76.063V31.5283C76.0811 31.3323 76.0589 31.1347 75.9978 30.9475C75.9366 30.7603 75.8378 30.5875 75.7074 30.4396C75.564 30.3065 75.3948 30.2041 75.2102 30.1386C75.0255 30.0731 74.8294 30.046 74.6338 30.0588Z" fill="#414141"/>
<path d="M81.2768 34.5206C81.703 34.5035 82.1193 34.652 82.4376 34.9348C82.5838 35.0686 82.7005 35.2313 82.7803 35.4123C82.8601 35.5934 82.9014 35.789 82.9014 35.9868C82.9014 36.1845 82.8601 36.3801 82.7803 36.5612C82.7005 36.7423 82.5838 36.9049 82.4376 37.0388C82.1107 37.307 81.7003 37.4537 81.2768 37.4537C80.8532 37.4537 80.4428 37.307 80.116 37.0388C79.9715 36.9039 79.8564 36.7409 79.7777 36.56C79.699 36.379 79.6584 36.184 79.6584 35.9868C79.6584 35.7896 79.699 35.5945 79.7777 35.4136C79.8564 35.2326 79.9715 35.0697 80.116 34.9348C80.4353 34.6538 80.8508 34.5056 81.2768 34.5206Z" fill="#414141"/>
</svg>
