<svg width="550" height="550" viewBox="0 0 550 550" fill="none" xmlns="http://www.w3.org/2000/svg">
<path d="M105.512 404.577C113.919 433.805 160.999 444.063 185.848 438.14C225.292 428.768 278.24 416.138 328.681 394.033C381.404 370.941 431.29 337.407 457.578 283.207C479.439 238.109 454.849 199.416 443.369 186.154C415.678 154.537 379.447 133.294 342.401 115.554C303.672 96.9587 260.512 80.7963 215.184 88.3354C198.012 91.1748 180.586 96.7633 165.458 107.995C149.755 120.035 136.98 135.399 128.075 152.953C113.283 181.265 107.434 213.577 106.118 244.755C104.803 275.933 107.783 306.539 109.363 337.337C110.4 357.429 98.4498 379.972 105.512 404.577Z" fill="#F4F7FA"/>
<path d="M358.525 323.888C335.456 303.967 305.663 292.963 274.797 292.963C243.931 292.963 214.139 303.967 191.07 323.888C189.12 325.526 187.526 327.525 186.378 329.767C185.231 332.01 184.553 334.451 184.385 336.95C184.217 339.449 184.561 341.955 185.399 344.324C186.236 346.692 187.549 348.875 189.263 350.747C190.976 352.618 193.054 354.14 195.378 355.224C197.702 356.308 200.224 356.933 202.798 357.062C205.373 357.191 207.948 356.822 210.374 355.977C212.801 355.131 215.03 353.826 216.933 352.136C232.877 338.37 253.466 330.766 274.797 330.766C296.128 330.766 316.718 338.37 332.662 352.136C336.52 355.468 341.583 357.174 346.737 356.879C351.89 356.585 356.712 354.314 360.142 350.565C363.571 346.817 365.328 341.899 365.024 336.892C364.721 331.886 362.383 327.202 358.525 323.87V323.888Z" fill="#97A6B7"/>
<path d="M274.701 211.35C221.917 211.275 171.093 231.974 132.591 269.228C130.641 271.03 129.06 273.215 127.94 275.656C126.82 278.096 126.183 280.743 126.067 283.441C125.952 286.138 126.359 288.833 127.266 291.366C128.173 293.899 129.561 296.219 131.348 298.192C133.136 300.164 135.287 301.748 137.676 302.852C140.065 303.955 142.643 304.555 145.259 304.616C147.876 304.678 150.478 304.2 152.913 303.21C155.348 302.221 157.567 300.739 159.44 298.853C190.703 268.696 231.903 251.919 274.701 251.919C317.499 251.919 358.698 268.696 389.961 298.853C391.834 300.739 394.053 302.221 396.488 303.21C398.923 304.2 401.525 304.678 404.142 304.616C406.758 304.555 409.337 303.955 411.725 302.852C414.114 301.748 416.265 300.164 418.053 298.192C419.841 296.219 421.228 293.899 422.135 291.366C423.042 288.833 423.45 286.138 423.334 283.441C423.218 280.743 422.582 278.096 421.461 275.656C420.341 273.215 418.76 271.03 416.811 269.228C378.308 231.974 327.484 211.275 274.701 211.35Z" fill="#CBD0D8"/>
<path d="M469.309 205.017C416.599 156.532 348.428 129.737 277.787 129.737C207.146 129.737 138.974 156.532 86.2646 205.017C84.2836 206.761 82.6608 208.896 81.4916 211.297C80.3223 213.697 79.6302 216.314 79.4559 218.994C79.2816 221.673 79.6286 224.362 80.4766 226.902C81.3245 229.442 82.6563 231.781 84.3937 233.782C86.131 235.784 88.2389 237.407 90.5934 238.557C92.948 239.707 95.5017 240.36 98.1045 240.478C100.707 240.596 103.307 240.176 105.75 239.244C108.193 238.311 110.431 236.885 112.332 235.048C157.873 193.177 216.761 170.037 277.782 170.037C338.803 170.037 397.692 193.177 443.232 235.048C447.098 238.612 452.178 240.447 457.356 240.149C462.533 239.851 467.384 237.445 470.841 233.46C474.297 229.475 476.077 224.237 475.788 218.9C475.499 213.562 473.165 208.561 469.3 204.997L469.309 205.017Z" fill="#CBD0D8"/>
<path d="M310.879 77.2712H244.352C240.257 77.2712 237.004 80.7135 237.235 84.802L253.917 379.51C254.13 383.284 257.253 386.235 261.033 386.235H294.197C297.978 386.235 301.1 383.284 301.314 379.51L317.996 84.802C318.227 80.7135 314.974 77.2712 310.879 77.2712Z" fill="#FDB249"/>
<rect x="254.297" y="403.723" width="46.6361" height="52.4655" rx="3.888" fill="#FDB249"/>
<mask id="mask0_78_4832" style="mask-type:alpha" maskUnits="userSpaceOnUse" x="204" y="59" width="83" height="436">
<path d="M277.615 494.081C247.302 197.942 270.814 81.1575 286.36 59.7827H204.747L230.979 488.251L277.615 494.081Z" fill="#C4C4C4"/>
</mask>
<g mask="url(#mask0_78_4832)">
<path d="M310.879 77.2714H244.352C240.257 77.2714 237.004 80.7137 237.235 84.8022L253.917 379.51C254.13 383.284 257.253 386.235 261.033 386.235H294.197C297.978 386.235 301.1 383.284 301.314 379.51L317.996 84.8022C318.227 80.7137 314.974 77.2714 310.879 77.2714Z" fill="#E49F3E"/>
<rect x="254.297" y="403.724" width="46.636" height="52.4656" rx="3.888" fill="#E49F3E"/>
</g>
<path d="M386.815 413.937C364.743 407.593 379.928 390.402 390.279 382.599C394.026 378.134 410.887 358.037 430.983 374.899C451.08 391.76 435.809 382.752 429.393 404.003C422.978 425.254 414.405 421.866 386.815 413.937Z" fill="#F2F2F3"/>
</svg>
