<svg width="514" height="448" viewBox="0 0 514 448" fill="none" xmlns="http://www.w3.org/2000/svg">
<g clip-path="url(#clip0_78_4551)">
<path d="M364.939 397.903C454.639 341.621 504.571 262.315 512.474 197.798C515.667 171.239 512.797 137.805 497.222 110.166C441.158 10.3233 318.059 -0.220231 295.769 68.3365C259.172 180.65 220.165 161.938 99.7622 157.864C8.59183 154.443 -76.5342 359.838 131.169 426.19C216.043 453.062 300.952 438.172 364.939 397.903Z" fill="white"/>
<path d="M405.517 77.8795L408.251 79.4986L409.711 80.3659L413.824 82.7945C413.824 82.7945 491.671 43.9144 481.719 8.41124C478.66 -2.51727 462.764 -5.37371 446.717 25.4111C431.898 53.9987 405.517 77.8795 405.517 77.8795Z" fill="#CBD0D8"/>
<path d="M408.251 79.4986L409.711 80.3659C426.059 69.3218 439.94 55.0743 449.012 44.643C455.243 37.5497 461.046 30.0928 466.391 22.3119C466.457 22.2288 466.505 22.1328 466.531 22.0302C466.558 21.9276 466.563 21.8206 466.546 21.716C466.529 21.6114 466.49 21.5114 466.433 21.4225C466.375 21.3336 466.299 21.2577 466.21 21.1997C466.121 21.1416 466.021 21.1027 465.916 21.0854C465.812 21.068 465.704 21.0726 465.602 21.0989C465.499 21.1252 465.402 21.1726 465.319 21.2381C465.235 21.3036 465.166 21.3857 465.117 21.4792C459.81 29.2037 454.054 36.61 447.876 43.66C438.723 54.1491 424.727 68.5007 408.251 79.4986Z" fill="#97A6B7"/>
<path d="M391.267 87.1077L393.85 90.6465L395.229 92.5315L399.122 97.8627C399.122 97.8627 519.19 90.924 525.991 40.4563C528.065 24.9135 509.527 12.632 472.266 42.9658C437.785 71.0792 391.267 87.1077 391.267 87.1077Z" fill="#97A6B7"/>
<path d="M393.849 90.6469L395.227 92.5319C422.015 87.432 447.365 76.9082 464.64 68.6049C476.414 62.993 487.843 56.6868 498.866 49.72C498.982 49.6441 499.081 49.546 499.159 49.4313C499.236 49.3167 499.29 49.1877 499.317 49.052C499.344 48.9164 499.344 48.7767 499.316 48.6412C499.288 48.5057 499.234 48.3771 499.155 48.2628C499.002 48.0298 498.762 47.8672 498.488 47.8108C498.214 47.7544 497.929 47.8089 497.696 47.9621C486.747 54.8885 475.391 61.1523 463.69 66.7198C446.392 75.0695 420.763 85.6626 393.849 90.6469Z" fill="#CBD0D8"/>
<path d="M245.906 339.793L243.149 341.389L241.689 342.245L237.564 344.65C237.564 344.65 159.937 305.331 170.11 269.863C173.238 258.946 189.146 256.193 205.007 287.071C219.71 315.693 245.906 339.793 245.906 339.793Z" fill="#CBD0D8"/>
<path d="M243.149 341.389L241.69 342.245C225.469 331.097 211.623 316.803 202.609 306.291C196.436 299.158 190.691 291.666 185.404 283.856C185.348 283.772 185.31 283.678 185.292 283.579C185.274 283.48 185.275 283.379 185.297 283.281C185.319 283.183 185.36 283.09 185.418 283.008C185.476 282.926 185.55 282.856 185.636 282.803C185.805 282.694 186.011 282.655 186.208 282.696C186.406 282.738 186.579 282.855 186.69 283.023C191.935 290.789 197.646 298.231 203.791 305.308C212.84 315.855 226.755 330.287 243.149 341.389Z" fill="#97A6B7"/>
<path d="M260.1 349.091L257.493 352.63L256.102 354.503L252.175 359.812C252.175 359.812 132.153 352.156 125.654 301.63C123.661 286.076 142.349 273.875 179.367 304.464C213.674 332.785 260.1 349.091 260.1 349.091Z" fill="#97A6B7"/>
<path d="M257.492 352.63L256.102 354.503C229.338 349.23 203.964 338.567 186.84 330.16C175.098 324.482 163.707 318.106 152.73 311.067C152.504 310.91 152.348 310.672 152.296 310.402C152.244 310.133 152.299 309.853 152.45 309.624C152.601 309.394 152.836 309.233 153.105 309.174C153.374 309.115 153.655 309.164 153.889 309.309C164.8 316.304 176.121 322.641 187.79 328.287C205.042 336.729 230.601 347.472 257.492 352.63Z" fill="#CBD0D8"/>
<path d="M430.011 48.2151V378.163C430.011 380.623 429.525 383.059 428.582 385.331C427.638 387.603 426.256 389.668 424.513 391.407C422.769 393.145 420.7 394.524 418.423 395.464C416.146 396.405 413.705 396.888 411.241 396.886H246.613C244.149 396.888 241.709 396.405 239.433 395.464C237.156 394.524 235.088 393.145 233.346 391.406C231.604 389.667 230.222 387.602 229.28 385.33C228.338 383.058 227.853 380.622 227.855 378.163V48.2151C227.855 43.2494 229.831 38.4872 233.349 34.9759C236.867 31.4647 241.638 29.4921 246.613 29.4921H411.241C413.705 29.4905 416.146 29.9737 418.423 30.914C420.7 31.8542 422.769 33.2331 424.513 34.9718C426.256 36.7106 427.638 38.7751 428.582 41.0474C429.525 43.3198 430.011 45.7554 430.011 48.2151Z" fill="#97A6B7"/>
<path d="M423.024 48.2151V378.163C423.024 380.623 422.538 383.059 421.595 385.331C420.652 387.603 419.269 389.668 417.526 391.407C415.783 393.145 413.713 394.524 411.436 395.464C409.159 396.405 406.719 396.888 404.254 396.886H239.626C237.162 396.888 234.723 396.405 232.446 395.464C230.169 394.524 228.101 393.145 226.359 391.406C224.617 389.667 223.235 387.602 222.293 385.33C221.351 383.058 220.867 380.622 220.868 378.163V48.2151C220.868 43.2494 222.844 38.4872 226.362 34.9759C229.88 31.4647 234.651 29.4921 239.626 29.4921H404.254C406.719 29.4905 409.159 29.9737 411.436 30.914C413.713 31.8542 415.783 33.2331 417.526 34.9718C419.269 36.7106 420.652 38.7751 421.595 41.0474C422.538 43.3198 423.024 45.7554 423.024 48.2151Z" fill="#CBD0D8"/>
<path d="M426.581 110.663H429.177C430.338 110.663 431.452 110.203 432.273 109.383C433.095 108.563 433.556 107.451 433.556 106.292V85.2213C433.556 84.0619 433.095 82.95 432.273 82.1302C431.452 81.3104 430.338 80.8499 429.177 80.8499H426.581V110.663Z" fill="#97A6B7"/>
<path d="M220.869 110.664H218.83C217.908 110.664 217.024 110.298 216.372 109.647C215.72 108.997 215.354 108.114 215.354 107.194V84.2385C215.354 83.3184 215.72 82.436 216.372 81.7853C217.024 81.1347 217.908 80.7692 218.83 80.7692H220.869V110.664Z" fill="#97A6B7"/>
<path d="M220.869 149.705H218.83C217.908 149.705 217.024 149.34 216.372 148.689C215.72 148.038 215.354 147.156 215.354 146.236V123.384C215.354 122.464 215.72 121.582 216.372 120.931C217.024 120.28 217.908 119.915 218.83 119.915H220.869V149.705Z" fill="#97A6B7"/>
<path d="M413.663 47.0588V379.285C413.663 381.475 412.792 383.575 411.24 385.124C409.689 386.672 407.585 387.542 405.391 387.542H238.55C237.463 387.544 236.387 387.331 235.384 386.917C234.38 386.502 233.468 385.894 232.701 385.127C231.933 384.359 231.325 383.448 230.911 382.446C230.497 381.444 230.286 380.369 230.289 379.285V47.0588C230.289 44.8719 231.159 42.7747 232.708 41.2283C234.257 39.682 236.359 38.8133 238.55 38.8133H405.391C405.923 38.8101 406.455 38.8604 406.978 38.9636C407.547 39.0679 408.103 39.2347 408.635 39.4609C409.91 40.0112 411.027 40.8707 411.885 41.9612C412.743 43.0518 413.314 44.3389 413.547 45.7057C413.621 46.153 413.66 46.6054 413.663 47.0588Z" fill="white"/>
<path d="M372.29 326.423V356.237C372.27 356.736 372.152 357.228 371.943 357.682C371.733 358.136 371.435 358.545 371.067 358.884C370.699 359.223 370.268 359.487 369.798 359.66C369.328 359.833 368.828 359.911 368.327 359.891H279.936C279.435 359.911 278.936 359.833 278.465 359.66C277.995 359.487 277.564 359.223 277.196 358.884C276.828 358.545 276.53 358.136 276.321 357.682C276.111 357.228 275.993 356.736 275.974 356.237V326.423C275.993 325.924 276.111 325.432 276.321 324.978C276.53 324.524 276.828 324.115 277.196 323.776C277.564 323.437 277.995 323.173 278.465 323C278.936 322.827 279.435 322.749 279.936 322.769H368.327C368.828 322.749 369.328 322.827 369.798 323C370.268 323.173 370.699 323.437 371.067 323.776C371.435 324.115 371.733 324.524 371.943 324.978C372.152 325.432 372.27 325.924 372.29 326.423Z" fill="#FC4041"/>
<path d="M310.615 332.702C311.839 333.223 312.882 334.092 313.616 335.2C314.349 336.308 314.74 337.607 314.74 338.936C314.74 340.264 314.349 341.563 313.616 342.671C312.882 343.779 311.839 344.648 310.615 345.169C309.175 345.771 307.623 346.063 306.062 346.025H303.35V350.65H297.001V331.835H306.062C307.623 331.806 309.174 332.102 310.615 332.702ZM307.603 340.566C307.821 340.357 307.991 340.103 308.101 339.821C308.211 339.539 308.259 339.237 308.24 338.936C308.258 338.636 308.211 338.335 308.101 338.056C307.991 337.776 307.821 337.524 307.603 337.317C307.049 336.887 306.355 336.68 305.656 336.738H303.339V341.144H305.656C306.355 341.193 307.049 340.983 307.603 340.555V340.566Z" fill="#E33A3A"/>
<path d="M328.621 347.356H321.461L320.198 350.64H313.721L321.959 331.836H328.204L336.442 350.64H329.942L328.621 347.356ZM326.872 342.8L325.041 338.07L323.21 342.8H326.872Z" fill="#E33A3A"/>
<path d="M347.459 343.817V350.641H341.099V343.702L333.996 331.802H340.705L344.551 338.301L348.421 331.802H354.562L347.459 343.817Z" fill="#E33A3A"/>
<path d="M308.843 332.705C310.067 333.226 311.11 334.094 311.844 335.203C312.577 336.311 312.968 337.61 312.968 338.938C312.968 340.266 312.577 341.565 311.844 342.673C311.11 343.781 310.067 344.65 308.843 345.171C307.407 345.774 305.859 346.066 304.301 346.027H301.578V350.653H295.183V331.837H304.255C305.828 331.801 307.392 332.096 308.843 332.705ZM305.831 340.569C306.05 340.36 306.222 340.106 306.334 339.824C306.446 339.543 306.496 339.24 306.479 338.938C306.496 338.637 306.446 338.337 306.334 338.057C306.222 337.777 306.05 337.525 305.831 337.319C305.281 336.891 304.59 336.685 303.896 336.741H301.578V341.147H303.896C304.591 341.194 305.28 340.984 305.831 340.557V340.569Z" fill="white"/>
<path d="M326.849 347.355H319.689L318.426 350.64H311.972L320.21 331.836H326.466L334.704 350.64H328.135L326.849 347.355ZM325.099 342.799L323.269 338.069L321.438 342.799H325.099Z" fill="white"/>
<path d="M345.687 343.816V350.64H339.337V343.701L332.258 331.836H338.955L342.802 338.335L346.683 331.836H352.812L345.687 343.816Z" fill="white"/>
<path d="M314.254 141.287H230.752V288.769H314.254V141.287Z" fill="#E9E2E8"/>
<path d="M340.288 129.792V283.045C340.288 287.308 338.591 291.397 335.571 294.412C332.55 297.426 328.454 299.12 324.183 299.12C319.912 299.12 315.815 297.426 312.795 294.412C309.775 291.397 308.078 287.308 308.078 283.045V129.792C308.078 125.528 309.775 121.44 312.795 118.425C315.815 115.41 319.912 113.717 324.183 113.717C328.454 113.717 332.55 115.41 335.571 118.425C338.591 121.44 340.288 125.528 340.288 129.792Z" fill="#97A6B7"/>
<path d="M340.288 129.792V283.045C340.281 286.42 339.212 289.708 337.234 292.444C335.255 295.181 332.465 297.229 329.258 298.299C326.057 297.22 323.273 295.17 321.296 292.435C319.319 289.7 318.246 286.418 318.228 283.045V129.792C318.238 126.419 319.308 123.134 321.286 120.399C323.265 117.665 326.053 115.619 329.258 114.549C332.458 115.628 335.24 117.676 337.217 120.409C339.194 123.141 340.268 126.421 340.288 129.792Z" fill="#CBD0D8"/>
<path d="M413.663 47.0587V81.2089H230.23V47.0587C230.23 44.8719 231.101 42.7746 232.65 41.2283C234.199 39.6819 236.3 38.8132 238.491 38.8132H405.39C405.923 38.81 406.455 38.8604 406.978 38.9635C407.547 39.0678 408.102 39.2346 408.635 39.4608C409.91 40.0112 411.027 40.8706 411.885 41.9611C412.742 43.0517 413.314 44.3388 413.547 45.7057C413.621 46.153 413.66 46.6054 413.663 47.0587Z" fill="#E9E2E8"/>
<path d="M225.538 82.354V93.7798C225.52 98.1561 223.83 102.361 220.811 105.535C217.792 108.708 213.673 110.612 209.296 110.857C204.918 111.103 200.612 109.67 197.257 106.853C193.902 104.036 191.75 100.046 191.243 95.6995C191.173 95.062 191.138 94.4211 191.138 93.7798V82.6431L233.138 40.7216C233.746 40.1126 234.468 39.6295 235.264 39.3001C236.059 38.9706 236.912 38.8013 237.773 38.8019H268.499L225.538 82.354Z" fill="#FC4041"/>
<path d="M225.48 82.4121V93.8378C225.463 98.2141 223.772 102.419 220.753 105.593C217.735 108.767 213.616 110.67 209.238 110.915C204.861 111.161 200.554 109.728 197.199 106.911C193.844 104.094 191.693 100.104 191.185 95.7575L191.081 82.6433L225.527 82.3542L225.48 82.4121Z" fill="#E33A3A"/>
<path d="M337.276 38.8019L294.303 81.7527V93.8954C294.362 96.1874 293.961 98.4681 293.124 100.603C292.286 102.738 291.029 104.684 289.426 106.326C287.823 107.968 285.907 109.273 283.79 110.164C281.674 111.055 279.4 111.514 277.103 111.514C274.806 111.514 272.532 111.055 270.416 110.164C268.299 109.273 266.383 107.968 264.78 106.326C263.177 104.684 261.92 102.738 261.082 100.603C260.244 98.4681 259.844 96.1874 259.903 93.8954V82.0765L302.876 38.8019H337.276Z" fill="#FC4041"/>
<path d="M294.302 81.7526V93.8375C294.362 96.1295 293.961 98.4102 293.124 100.545C292.286 102.68 291.029 104.626 289.426 106.268C287.823 107.91 285.906 109.215 283.79 110.106C281.673 110.997 279.4 111.457 277.103 111.457C274.806 111.457 272.532 110.997 270.415 110.106C268.299 109.215 266.383 107.91 264.78 106.268C263.177 104.626 261.919 102.68 261.082 100.545C260.244 98.4102 259.843 96.1295 259.903 93.8375V82.0764L294.302 81.7526Z" fill="#E33A3A"/>
<path d="M364.143 81.2207V93.8376C364.143 98.3903 362.332 102.757 359.108 105.977C355.883 109.197 351.51 111.008 346.949 111.011C337.448 111.011 328.701 103.321 328.701 93.8376L328.782 81.7527L328.967 81.5676L371.651 38.8019H407.104L364.143 81.2207Z" fill="#FC4041"/>
<path d="M364.154 93.8382C364.154 98.3929 362.341 102.761 359.115 105.982C355.888 109.202 351.512 111.012 346.948 111.012C337.448 111.012 328.7 103.321 328.7 93.8382L328.781 81.7533L328.967 81.5682L364.154 81.2791V93.8382Z" fill="#E33A3A"/>
<path d="M398.543 80.932V93.838C398.543 98.3927 396.73 102.761 393.503 105.981C390.277 109.202 385.9 111.011 381.337 111.011C376.774 111.011 372.398 109.202 369.171 105.981C365.944 102.761 364.132 98.3927 364.132 93.838V81.2095L407 38.9527C407.569 39.0569 408.125 39.2237 408.657 39.4499C409.932 40.0003 411.049 40.8597 411.907 41.9503C412.765 43.0408 413.337 44.3279 413.57 45.6948C413.644 46.1421 413.683 46.5945 413.686 47.0479V66.1178L398.543 80.932Z" fill="white"/>
<path d="M398.555 93.8379C398.555 98.3926 396.742 102.761 393.516 105.981C390.289 109.202 385.913 111.011 381.35 111.011C376.786 111.011 372.41 109.202 369.183 105.981C365.957 102.761 364.144 98.3926 364.144 93.8379V81.221L398.543 80.9319L398.555 93.8379Z" fill="#F2F4F8"/>
<path d="M302.863 38.8018L259.89 82.0764V93.8375C259.89 98.3922 258.077 102.76 254.851 105.981C251.624 109.202 247.248 111.011 242.685 111.011C238.121 111.011 233.745 109.202 230.518 105.981C227.292 102.76 225.479 98.3922 225.479 93.8375V82.4118L268.406 38.8596L302.863 38.8018Z" fill="white"/>
<path d="M259.89 82.0766V93.8377C259.89 98.3924 258.077 102.761 254.851 105.981C251.624 109.202 247.248 111.011 242.684 111.011C238.121 111.011 233.745 109.202 230.518 105.981C227.292 102.761 225.479 98.3924 225.479 93.8377V82.412L259.89 82.0766Z" fill="#F2F4F8"/>
<path d="M371.651 38.8019L328.701 81.7527V93.8954C328.701 96.1507 328.256 98.3838 327.392 100.467C326.527 102.551 325.26 104.444 323.662 106.039C322.064 107.634 320.168 108.898 318.08 109.762C315.993 110.625 313.755 111.069 311.496 111.069C309.237 111.069 306.999 110.625 304.912 109.762C302.824 108.898 300.928 107.634 299.33 106.039C297.732 104.444 296.465 102.551 295.6 100.467C294.736 98.3838 294.291 96.1507 294.291 93.8954V81.7527L337.275 38.8597L371.651 38.8019Z" fill="white"/>
<path d="M328.886 81.5099L328.701 81.6949V93.8377C328.701 96.0929 328.256 98.3261 327.391 100.41C326.527 102.493 325.259 104.386 323.662 105.981C322.064 107.576 320.167 108.841 318.08 109.704C315.992 110.567 313.755 111.011 311.496 111.011C309.236 111.011 306.999 110.567 304.911 109.704C302.824 108.841 300.927 107.576 299.329 105.981C297.732 104.386 296.464 102.493 295.6 100.41C294.735 98.3261 294.29 96.0929 294.29 93.8377V81.7527L328.886 81.5099Z" fill="#F2F4F8"/>
<path d="M333.557 143.115V269.955C333.554 272.695 332.462 275.321 330.519 277.258C328.577 279.194 325.944 280.282 323.199 280.282H107.407C104.663 280.279 102.034 279.19 100.094 277.254C98.1542 275.318 97.0631 272.693 97.0601 269.955V143.115C97.0601 140.376 98.1501 137.749 100.09 135.812C102.031 133.875 104.662 132.787 107.407 132.787H323.199C325.944 132.787 328.577 133.875 330.519 135.811C332.462 137.748 333.554 140.375 333.557 143.115Z" fill="#F2F4F8"/>
<path d="M333.545 158.865H97.0593V186.979H333.545V158.865Z" fill="#CBD0D8"/>
<path d="M311.553 241.772H265.753C263.04 241.772 260.84 243.968 260.84 246.676V256.321C260.84 259.029 263.04 261.224 265.753 261.224H311.553C314.266 261.224 316.465 259.029 316.465 256.321V246.676C316.465 243.968 314.266 241.772 311.553 241.772Z" fill="#CBD0D8"/>
<path d="M127.624 209.715H112.029C111.344 209.715 110.789 210.269 110.789 210.952V219.082C110.789 219.765 111.344 220.319 112.029 220.319H127.624C128.308 220.319 128.863 219.765 128.863 219.082V210.952C128.863 210.269 128.308 209.715 127.624 209.715Z" fill="#CBD0D8"/>
<path d="M159.449 209.714H143.854C143.17 209.714 142.615 210.268 142.615 210.951V219.081C142.615 219.765 143.17 220.319 143.854 220.319H159.449C160.134 220.319 160.689 219.765 160.689 219.081V210.951C160.689 210.268 160.134 209.714 159.449 209.714Z" fill="#CBD0D8"/>
<path d="M191.278 209.714H175.683C174.998 209.714 174.443 210.268 174.443 210.951V219.081C174.443 219.765 174.998 220.319 175.683 220.319H191.278C191.963 220.319 192.518 219.765 192.518 219.081V210.951C192.518 210.268 191.963 209.714 191.278 209.714Z" fill="#CBD0D8"/>
<path d="M223.105 209.714H207.51C206.826 209.714 206.271 210.268 206.271 210.951V219.081C206.271 219.765 206.826 220.319 207.51 220.319H223.105C223.79 220.319 224.345 219.765 224.345 219.081V210.951C224.345 210.268 223.79 209.714 223.105 209.714Z" fill="#CBD0D8"/>
<path d="M254.933 209.714H239.338C238.653 209.714 238.098 210.268 238.098 210.951V219.081C238.098 219.765 238.653 220.319 239.338 220.319H254.933C255.618 220.319 256.173 219.765 256.173 219.081V210.951C256.173 210.268 255.618 209.714 254.933 209.714Z" fill="#CBD0D8"/>
<path d="M286.758 209.714H271.163C270.479 209.714 269.924 210.268 269.924 210.951V219.081C269.924 219.765 270.479 220.319 271.163 220.319H286.758C287.443 220.319 287.998 219.765 287.998 219.081V210.951C287.998 210.268 287.443 209.714 286.758 209.714Z" fill="#CBD0D8"/>
<path d="M318.587 209.714H302.992C302.307 209.714 301.752 210.268 301.752 210.951V219.081C301.752 219.765 302.307 220.319 302.992 220.319H318.587C319.272 220.319 319.827 219.765 319.827 219.081V210.951C319.827 210.268 319.272 209.714 318.587 209.714Z" fill="#CBD0D8"/>
<path d="M333.545 143.97H97.0593V149.359H333.545V143.97Z" fill="#CBD0D8"/>
<path d="M134.587 232.219H118.818C114.384 232.219 110.789 235.807 110.789 240.233V255.973C110.789 260.399 114.384 263.987 118.818 263.987H134.587C139.022 263.987 142.616 260.399 142.616 255.973V240.233C142.616 235.807 139.022 232.219 134.587 232.219Z" fill="#CBD0D8"/>
<path d="M250.484 247.126H152.963C151.44 247.126 150.205 248.358 150.205 249.878V253.128C150.205 254.648 151.44 255.88 152.963 255.88H250.484C252.007 255.88 253.241 254.648 253.241 253.128V249.878C253.241 248.358 252.007 247.126 250.484 247.126Z" fill="#CBD0D8"/>
<path opacity="0.2" d="M245.931 132.787L100.663 277.784C99.5334 276.815 98.6265 275.613 98.0046 274.262C97.3828 272.911 97.0605 271.442 97.0601 269.955V225.454L189.9 132.787H245.931Z" fill="white"/>
<path opacity="0.2" d="M322.757 132.787L174.999 280.281H147.574L295.345 132.787H322.757Z" fill="white"/>
<path d="M168.485 391.602V391.683C168.442 392.581 168.206 393.459 167.792 394.257C167.378 395.056 166.796 395.755 166.086 396.309C165.687 396.674 165.266 397.014 164.823 397.326C163.323 398.372 161.715 399.256 160.027 399.963L158.752 400.483C157.292 401.062 155.693 401.64 153.956 402.091C153.55 402.218 153.121 402.334 152.693 402.449C151.148 402.858 149.549 403.243 147.896 403.606L146.633 403.86C145.092 404.149 143.493 404.415 141.836 404.647L140.574 404.82C139.009 405.017 137.41 405.202 135.777 405.352L134.502 405.456C132.958 405.587 131.359 405.691 129.706 405.768H128.443C126.898 405.83 125.299 405.865 123.646 405.872H122.383C120.761 405.872 119.162 405.873 117.587 405.792H116.312C115.153 405.792 113.937 405.676 112.767 405.595L111.527 405.502L110.252 405.398C108.619 405.26 107.02 405.086 105.456 404.89L104.193 404.716C103.196 404.577 102.223 404.439 101.273 404.277L99.3962 403.953L98.1333 403.71C96.4533 403.375 94.8544 403.005 93.3366 402.611L92.4445 402.38L92.0621 402.276C91.3785 402.079 90.7182 401.883 90.0693 401.675C89.0845 401.362 88.1576 401.039 87.2655 400.703L86.0026 400.206C84.5292 399.601 83.1071 398.877 81.7504 398.043L81.2059 397.685L80.5802 397.234C80.3586 397.08 80.1458 396.914 79.943 396.737C79.137 396.182 78.465 395.456 77.9759 394.609C77.4869 393.763 77.1931 392.819 77.116 391.845C77.116 391.729 77.116 391.613 77.116 391.486V381.749H168.45V391.845L168.485 391.602Z" fill="#FDB249"/>
<path d="M81.2063 381.632V397.568L80.5806 397.117C80.359 396.963 80.1462 396.797 79.9434 396.619V381.585L81.2063 381.632Z" fill="#F9934F"/>
<path d="M87.2656 381.621V400.587L86.0027 400.09V381.587L87.2656 381.621Z" fill="#F9934F"/>
<path d="M93.337 381.61V402.495L92.4449 402.264L92.0625 402.16V381.621L93.337 381.61Z" fill="#F9934F"/>
<path d="M99.3977 381.61V403.837L98.1348 403.594V381.621L99.3977 381.61Z" fill="#F9934F"/>
<path d="M105.457 381.599V404.728L104.194 404.554V381.599H105.457Z" fill="#F9934F"/>
<path d="M111.528 381.587V405.387L110.253 405.283V381.587H111.528Z" fill="#F9934F"/>
<path d="M117.586 381.576V405.734H116.312V381.576H117.586Z" fill="#F9934F"/>
<path d="M123.647 381.564V405.849H122.384V381.564H123.647Z" fill="#F9934F"/>
<path d="M129.707 381.564V405.664H128.444V381.564H129.707Z" fill="#F9934F"/>
<path d="M135.777 381.552V405.248L134.502 405.352V381.552H135.777Z" fill="#F9934F"/>
<path d="M141.838 381.541V404.543L140.575 404.716V381.587L141.838 381.541Z" fill="#F9934F"/>
<path d="M147.896 381.529V403.501L146.634 403.756V381.54L147.896 381.529Z" fill="#F9934F"/>
<path d="M153.921 381.529V402.09C153.516 402.218 153.087 402.333 152.658 402.449V381.633L153.921 381.529Z" fill="#F9934F"/>
<path d="M160.028 381.517V399.905L158.753 400.425V381.517H160.028Z" fill="#F9934F"/>
<path d="M166.087 381.506V396.309C165.688 396.674 165.266 397.014 164.824 397.326V381.506H166.087Z" fill="#F9934F"/>
<path d="M168.473 381.622C168.473 388.78 148.035 394.574 122.801 394.574C119.325 394.574 116 394.47 112.767 394.262C108.712 394.007 104.854 393.591 101.285 393.048C98.099 392.562 95.1329 391.984 92.4565 391.301C91.6339 391.093 90.846 390.885 90.0813 390.654C87.1861 389.871 84.3938 388.749 81.7624 387.312C81.3453 387.069 80.9514 386.826 80.6038 386.583C78.3677 385.056 77.1279 383.38 77.1279 381.622C77.1169 381.464 77.1169 381.305 77.1279 381.148C78.0201 374.209 98.1105 368.681 122.766 368.681C128.499 368.67 134.228 368.986 139.925 369.629C140.945 369.745 141.953 369.872 142.937 370.011C146.845 370.535 150.715 371.308 154.524 372.324C155.277 372.532 156.007 372.74 156.702 372.96C158.908 373.627 161.049 374.494 163.097 375.55C164.655 376.315 166.052 377.371 167.211 378.661C167.829 379.357 168.231 380.216 168.369 381.136C168.416 381.295 168.451 381.457 168.473 381.622Z" fill="#FFC145"/>
<path opacity="0.3" d="M167.28 378.672L112.825 394.261C108.77 394.007 104.912 393.591 101.343 393.047L163.19 375.562C164.74 376.329 166.128 377.385 167.28 378.672Z" fill="white"/>
<path opacity="0.3" d="M142.972 370.01L81.7624 387.357C81.3453 387.114 80.9513 386.871 80.6038 386.629L140.018 369.629C140.979 369.71 141.987 369.872 142.972 370.01Z" fill="white"/>
<path opacity="0.3" d="M156.771 372.971L92.5141 391.301C91.6915 391.093 90.9036 390.885 90.1389 390.654L154.651 372.335C155.346 372.543 156.076 372.752 156.771 372.971Z" fill="white"/>
<path d="M159.309 381.621C159.32 381.783 159.32 381.945 159.309 382.107C158.428 387.589 142.405 391.972 122.835 391.972C103.266 391.972 87.2543 387.589 86.3738 382.107C86.3624 381.945 86.3624 381.783 86.3738 381.621C86.3738 375.92 102.745 371.283 122.87 371.283C142.995 371.283 159.309 375.92 159.309 381.621Z" fill="#F9934F"/>
<path d="M159.274 382.107C158.394 387.589 142.37 391.972 122.801 391.972H121.48C117.342 391.933 113.208 391.682 109.095 391.22C105.582 390.837 102.098 390.223 98.667 389.381C97.8907 389.184 97.1376 388.988 96.4193 388.768C93.7074 388.058 91.1288 386.914 88.784 385.38C88.3784 385.092 87.9914 384.779 87.6254 384.443C86.9488 383.831 86.4826 383.022 86.293 382.13C87.1735 376.637 103.186 372.254 122.755 372.254C125.234 372.254 127.656 372.323 129.996 372.451C131.155 372.52 132.313 372.612 133.472 372.705C137.739 373.055 141.975 373.712 146.147 374.671C146.947 374.856 147.711 375.064 148.464 375.272C150.925 375.911 153.298 376.847 155.532 378.059C157.005 378.767 158.22 379.915 159.008 381.344C159.129 381.586 159.218 381.842 159.274 382.107Z" fill="#FDB249"/>
<path opacity="0.2" d="M159.042 381.275L121.479 391.972C117.341 391.933 113.207 391.682 109.094 391.22L155.589 378.037C157.046 378.736 158.252 379.866 159.042 381.275Z" fill="white"/>
<path opacity="0.2" d="M133.564 372.682L88.7831 385.403C88.3775 385.116 87.9906 384.803 87.6245 384.467L129.995 372.451C131.235 372.497 132.405 372.59 133.564 372.682Z" fill="white"/>
<path opacity="0.2" d="M148.545 375.249L98.6664 389.37C97.8901 389.173 97.137 388.977 96.4187 388.757L146.239 374.636C147.039 374.833 147.803 375.041 148.545 375.249Z" fill="white"/>
<path d="M127.876 387.496V389.219H120.171V387.577C115.471 387.544 110.778 387.181 106.129 386.49L110.288 383.83C114.462 384.479 118.681 384.808 122.905 384.813C126.567 384.813 127.876 384.604 127.876 384.234C127.876 382.87 106.731 383.968 106.731 379.921C106.731 378.175 111.215 376.706 120.171 376.347V374.659H127.876V376.313C131.591 376.385 135.298 376.687 138.976 377.215L135.094 379.863C131.565 379.339 128.003 379.069 124.435 379.053C120.669 379.053 119.464 379.366 119.464 379.736C119.464 381.043 140.609 379.956 140.609 383.945C140.609 385.622 136.345 387.056 127.876 387.496Z" fill="#F9934F"/>
<path d="M127.656 386.93V388.641H119.951V387.057C115.251 387.022 110.559 386.662 105.908 385.981L110.068 383.31C114.242 383.964 118.46 384.296 122.685 384.304C126.347 384.304 127.656 384.085 127.656 383.715C127.656 382.35 106.511 383.449 106.511 379.413C106.511 377.655 110.995 376.186 119.951 375.828V374.139H127.656V375.804C131.367 375.873 135.07 376.171 138.744 376.695L134.874 379.343C131.344 378.829 127.782 378.563 124.215 378.545C120.449 378.545 119.244 378.858 119.244 379.228C119.244 380.523 140.389 379.436 140.389 383.437C140.389 385.056 136.125 386.513 127.656 386.93Z" fill="#FFC145"/>
<path d="M171.357 375.631V375.758C171.299 376.638 171.056 377.496 170.643 378.276C170.229 379.055 169.655 379.738 168.958 380.28C168.555 380.646 168.13 380.986 167.684 381.298C166.185 382.346 164.576 383.23 162.887 383.935L161.624 384.455C160.164 385.033 158.554 385.611 156.828 386.062L155.565 386.421C154.02 386.83 152.421 387.215 150.768 387.577L149.505 387.832C147.964 388.121 146.354 388.387 144.708 388.618L143.434 388.792C141.881 388.988 140.283 389.173 138.637 389.324L137.374 389.428C135.83 389.559 134.231 389.663 132.578 389.74H131.315C129.77 389.794 128.171 389.829 126.518 389.844H125.255C123.633 389.844 122.034 389.844 120.459 389.763H119.184C118.025 389.763 116.797 389.648 115.639 389.567L114.387 389.474L113.125 389.37C111.491 389.22 109.88 389.058 108.328 388.861L107.065 388.688C106.069 388.549 105.095 388.41 104.145 388.248L102.268 387.924L101.005 387.682C99.3254 387.346 97.7149 386.976 96.1971 386.583L95.3166 386.352L94.9342 386.247C94.2506 386.051 93.5786 385.854 92.9414 385.646C91.9566 385.334 91.0297 385.01 90.1376 384.675L88.8746 384.177C87.4001 383.575 85.9779 382.851 84.6225 382.015L84.078 381.656L83.4407 381.205C83.2206 381.043 83.012 380.882 82.8151 380.708C82.0091 380.154 81.337 379.427 80.848 378.581C80.3589 377.735 80.0651 376.79 79.988 375.816C79.988 375.701 79.988 375.585 79.988 375.458V365.663H171.299V375.758L171.357 375.631Z" fill="#FDB249"/>
<path d="M84.079 365.661V381.597L83.4418 381.146C83.2217 380.984 83.0131 380.822 82.8162 380.649V365.615L84.079 365.661Z" fill="#F9934F"/>
<path d="M90.1962 365.651V384.617L88.9333 384.12V365.616L90.1962 365.651Z" fill="#F9934F"/>
<path d="M96.1972 365.639V386.525L95.3167 386.294L94.9343 386.19V365.651L96.1972 365.639Z" fill="#F9934F"/>
<path d="M102.269 365.639V387.867L101.006 387.624V365.651L102.269 365.639Z" fill="#F9934F"/>
<path d="M108.33 365.627V388.757L107.067 388.583V365.627H108.33Z" fill="#F9934F"/>
<path d="M114.388 365.616V389.37L113.125 389.266V365.616H114.388Z" fill="#F9934F"/>
<path d="M120.458 365.605V389.763H119.184V365.605H120.458Z" fill="#F9934F"/>
<path d="M126.519 365.593V389.879H125.256V365.593H126.519Z" fill="#F9934F"/>
<path d="M132.579 365.593V389.694H131.316V365.593H132.579Z" fill="#F9934F"/>
<path d="M138.639 365.582V389.278L137.376 389.382V365.582H138.639Z" fill="#F9934F"/>
<path d="M144.709 365.571V388.572L143.434 388.746V365.617L144.709 365.571Z" fill="#F9934F"/>
<path d="M150.768 365.559V387.531L149.505 387.786V365.57L150.768 365.559Z" fill="#F9934F"/>
<path d="M156.828 365.559V386.063L155.565 386.421V365.605L156.828 365.559Z" fill="#F9934F"/>
<path d="M162.888 365.547V383.934L161.625 384.455V365.547H162.888Z" fill="#F9934F"/>
<path d="M168.982 365.536V380.28C168.579 380.646 168.153 380.986 167.708 381.298V365.536H168.982Z" fill="#F9934F"/>
<path d="M171.3 365.651C171.3 372.81 150.85 378.603 125.627 378.603C122.151 378.603 118.826 378.499 115.594 378.291C111.539 378.037 107.68 377.62 104.112 377.077C100.914 376.591 97.9596 376.001 95.2831 375.331C94.4605 375.122 93.6726 374.914 92.908 374.683C90.0127 373.9 87.2204 372.778 84.5891 371.341C84.172 371.098 83.778 370.855 83.4305 370.612C81.1943 369.086 79.9546 367.409 79.9546 365.651C79.9435 365.493 79.9435 365.335 79.9546 365.177C80.8467 358.238 100.937 352.71 125.593 352.71C131.326 352.699 137.055 353.016 142.752 353.659C143.771 353.774 144.779 353.902 145.764 354.04C149.672 354.564 153.542 355.337 157.35 356.353C158.103 356.561 158.822 356.77 159.529 356.989C161.733 357.661 163.874 358.528 165.924 359.58C167.482 360.344 168.878 361.401 170.037 362.691C170.65 363.389 171.052 364.248 171.196 365.165C171.242 365.325 171.277 365.487 171.3 365.651Z" fill="#FFC145"/>
<path opacity="0.3" d="M170.141 362.702L115.686 378.291C111.63 378.037 107.772 377.62 104.204 377.077L166.085 359.591C167.623 360.362 168.999 361.418 170.141 362.702Z" fill="white"/>
<path opacity="0.3" d="M145.81 354.041L84.6 371.387C84.1829 371.144 83.789 370.902 83.4414 370.659L142.809 353.705C143.852 353.775 144.86 353.902 145.81 354.041Z" fill="white"/>
<path opacity="0.3" d="M159.643 356.989L95.3285 375.319C94.5059 375.111 93.7181 374.902 92.9534 374.671L157.465 356.353C158.218 356.573 158.937 356.781 159.643 356.989Z" fill="white"/>
<path d="M162.181 365.651C162.181 365.813 162.181 365.975 162.181 366.136C161.3 371.618 145.277 376.001 125.708 376.001C106.139 376.001 90.1149 371.618 89.2344 366.136C89.2344 365.975 89.2344 365.813 89.2344 365.651C89.2344 359.949 105.617 355.312 125.742 355.312C145.868 355.312 162.181 359.949 162.181 365.651Z" fill="#F9934F"/>
<path d="M162.146 366.136C161.265 371.618 145.241 376.001 125.672 376.001H124.363C120.224 375.962 116.091 375.711 111.978 375.249C108.465 374.866 104.981 374.252 101.55 373.411C100.774 373.214 100.021 373.017 99.3022 372.798C96.5903 372.088 94.0118 370.943 91.6669 369.409C91.2566 369.128 90.8692 368.815 90.5083 368.472C89.8329 367.858 89.3636 367.05 89.1643 366.16C90.0449 360.666 106.069 356.283 125.638 356.283C128.117 356.283 130.539 356.353 132.879 356.48C134.038 356.549 135.196 356.642 136.355 356.734C140.622 357.086 144.858 357.743 149.03 358.7C149.83 358.885 150.594 359.094 151.347 359.302C153.806 359.945 156.179 360.881 158.415 362.089C159.888 362.796 161.103 363.944 161.891 365.373C162.008 365.616 162.093 365.872 162.146 366.136Z" fill="#FDB249"/>
<path opacity="0.2" d="M161.914 365.35L124.363 376.001C120.225 375.961 116.091 375.711 111.978 375.249L158.485 362.065C159.94 362.78 161.138 363.928 161.914 365.35Z" fill="white"/>
<path opacity="0.2" d="M136.437 356.712L91.6562 369.433C91.2458 369.152 90.8584 368.838 90.4976 368.496L132.868 356.48C134.108 356.527 135.278 356.619 136.437 356.712Z" fill="white"/>
<path opacity="0.2" d="M151.418 359.302L101.598 373.434C100.822 373.238 100.068 373.041 99.3501 372.821L149.171 358.701C149.912 358.863 150.677 359.071 151.418 359.302Z" fill="white"/>
<path d="M130.748 371.526V373.249H123.044V371.607C118.343 371.575 113.651 371.212 109.001 370.52L113.161 367.86C117.335 368.51 121.553 368.839 125.778 368.843C129.439 368.843 130.748 368.635 130.748 368.265C130.748 366.901 109.604 367.999 109.604 363.952C109.604 362.205 114.088 360.737 123.044 360.378V358.69H130.748V360.343C134.464 360.41 138.171 360.712 141.848 361.246L137.967 363.928C134.437 363.405 130.875 363.135 127.307 363.119C123.542 363.119 122.337 363.431 122.337 363.801C122.337 365.108 143.482 364.021 143.482 368.011C143.493 369.711 139.218 371.11 130.748 371.526Z" fill="#F9934F"/>
<path d="M130.529 370.96V372.671H122.824V371.029C118.124 370.994 113.432 370.635 108.781 369.954L112.929 367.282C117.107 367.935 121.329 368.268 125.558 368.277C129.22 368.277 130.529 368.057 130.529 367.687C130.529 366.322 109.384 367.421 109.384 363.385C109.384 361.627 113.856 360.158 122.824 359.8V358.146H130.529V359.811C134.24 359.875 137.943 360.172 141.617 360.702L137.701 363.316C134.175 362.796 130.617 362.529 127.053 362.518C123.276 362.518 122.082 362.83 122.082 363.2C122.082 364.495 143.227 363.408 143.227 367.409C143.262 369.086 138.998 370.532 130.529 370.96Z" fill="#FFC145"/>
<path d="M170.94 359.661V359.788C170.882 360.668 170.639 361.526 170.226 362.306C169.812 363.085 169.238 363.768 168.541 364.31C168.138 364.676 167.713 365.016 167.267 365.328C165.766 366.374 164.158 367.258 162.47 367.964L161.207 368.485C159.747 369.063 158.137 369.641 156.411 370.092L155.148 370.451C153.603 370.859 152.004 371.245 150.351 371.607L149.076 371.862C147.547 372.151 145.937 372.417 144.28 372.648L143.017 372.822C141.464 373.018 139.865 373.203 138.22 373.354L136.957 373.458C135.412 373.589 133.814 373.693 132.161 373.77H130.898C129.353 373.832 127.754 373.866 126.101 373.874H124.827C123.216 373.874 121.617 373.874 120.03 373.793H118.767C117.608 373.793 116.38 373.677 115.21 373.596L113.97 373.504L112.707 373.4C111.062 373.249 109.463 373.088 107.911 372.891L106.648 372.718C105.651 372.579 104.678 372.44 103.728 372.278L101.851 371.954L100.577 371.711C98.9082 371.376 97.2978 371.006 95.78 370.613L94.8878 370.381L94.5171 370.277C93.8335 370.081 93.1615 369.884 92.5127 369.676C91.5394 369.364 90.601 369.04 89.7204 368.705L88.4575 368.196C86.9833 367.597 85.5611 366.877 84.2054 366.045L83.6608 365.686L83.0236 365.235C82.8034 365.073 82.5949 364.911 82.3979 364.738C80.5673 363.223 79.5593 361.569 79.5593 359.846C79.5593 359.731 79.5593 359.615 79.5593 359.488V349.75H170.893V359.846L170.94 359.661Z" fill="#FDB249"/>
<path d="M83.6596 349.69V365.626L83.0224 365.175C82.8023 365.013 82.5937 364.851 82.3967 364.678V349.644L83.6596 349.69Z" fill="#F9934F"/>
<path d="M89.7194 349.68V368.646L88.4565 368.137V349.634L89.7194 349.68Z" fill="#F9934F"/>
<path d="M95.7797 349.668V370.554L94.8876 370.323L94.5168 370.219V349.668H95.7797Z" fill="#F9934F"/>
<path d="M101.851 349.668V371.895L100.576 371.653V349.68L101.851 349.668Z" fill="#F9934F"/>
<path d="M107.91 349.657V372.786L106.647 372.613V349.657H107.91Z" fill="#F9934F"/>
<path d="M113.969 349.645V373.445L112.706 373.341V349.645H113.969Z" fill="#F9934F"/>
<path d="M120.029 349.634V373.792H118.766V349.634H120.029Z" fill="#F9934F"/>
<path d="M126.113 349.622V373.908H124.838V349.622H126.113Z" fill="#F9934F"/>
<path d="M132.159 349.622V373.723H130.896V349.622H132.159Z" fill="#F9934F"/>
<path d="M138.219 349.611V373.307L136.956 373.411V349.611H138.219Z" fill="#F9934F"/>
<path d="M144.28 349.599V372.601L143.017 372.774V349.645L144.28 349.599Z" fill="#F9934F"/>
<path d="M150.351 349.588V371.56L149.076 371.815V349.599L150.351 349.588Z" fill="#F9934F"/>
<path d="M156.409 349.588V370.092L155.146 370.45V349.634L156.409 349.588Z" fill="#F9934F"/>
<path d="M162.469 349.576V367.964L161.206 368.484V349.576H162.469Z" fill="#F9934F"/>
<path d="M168.54 349.565V364.309C168.137 364.675 167.712 365.015 167.266 365.327V349.565H168.54Z" fill="#F9934F"/>
<path d="M170.93 349.68C170.93 356.839 150.48 362.633 125.257 362.633C121.804 362.633 118.46 362.528 115.223 362.32C111.168 362.066 107.31 361.65 103.741 361.106C100.544 360.62 97.5892 360.031 94.9128 359.36C94.0902 359.152 93.2907 358.943 92.526 358.712C89.6345 357.929 86.8459 356.808 84.2187 355.37C83.8016 355.123 83.4154 354.88 83.0601 354.641C80.8356 353.115 79.5842 351.438 79.5842 349.68C79.5732 349.522 79.5732 349.364 79.5842 349.206C80.4648 342.267 100.567 336.74 125.222 336.74C130.951 336.73 136.676 337.043 142.37 337.676L145.382 338.07C149.29 338.593 153.16 339.366 156.968 340.382C157.722 340.579 158.44 340.799 159.147 341.018C161.352 341.69 163.492 342.557 165.542 343.609C167.097 344.373 168.489 345.43 169.644 346.72C170.261 347.416 170.663 348.275 170.802 349.195C170.857 349.353 170.899 349.515 170.93 349.68Z" fill="#FFC145"/>
<path opacity="0.3" d="M169.725 346.731L115.27 362.32C111.214 362.066 107.356 361.649 103.788 361.106L165.669 343.62C167.207 344.39 168.584 345.446 169.725 346.731Z" fill="white"/>
<path opacity="0.3" d="M145.417 338.07L84.2187 355.416C83.8016 355.17 83.4154 354.927 83.0601 354.688L142.428 337.723L145.417 338.07Z" fill="white"/>
<path opacity="0.3" d="M159.227 341.03L94.9119 359.36C94.0893 359.152 93.2898 358.944 92.5251 358.712L157.049 340.394C157.802 340.591 158.555 340.799 159.227 341.03Z" fill="white"/>
<path d="M161.765 349.681C161.765 349.843 161.765 350.005 161.765 350.166C160.884 355.648 144.861 360.031 125.292 360.031C105.723 360.031 89.6989 355.648 88.8183 350.166C88.807 350.005 88.807 349.842 88.8183 349.681C88.8183 343.979 105.201 339.342 125.326 339.342C145.452 339.342 161.765 343.979 161.765 349.681Z" fill="#F9934F"/>
<path d="M161.73 350.166C160.849 355.647 144.825 360.03 125.256 360.03H123.947C119.808 359.991 115.674 359.74 111.562 359.279C108.049 358.895 104.565 358.281 101.134 357.44C100.358 357.243 99.6046 357.047 98.8862 356.827C96.1727 356.122 93.5934 354.977 91.2509 353.439C90.8406 353.157 90.4532 352.844 90.0923 352.502C89.4169 351.887 88.9476 351.079 88.7483 350.189C89.6288 344.696 105.653 340.313 125.222 340.313C127.701 340.313 130.115 340.378 132.463 340.509C133.622 340.579 134.78 340.671 135.939 340.764C140.21 341.114 144.45 341.771 148.626 342.73C149.425 342.915 150.19 343.123 150.943 343.331C153.402 343.975 155.775 344.91 158.011 346.118C159.483 346.825 160.698 347.973 161.486 349.402C161.594 349.648 161.676 349.904 161.73 350.166Z" fill="#FDB249"/>
<path opacity="0.2" d="M161.498 349.38L123.947 360.031C119.809 359.991 115.675 359.741 111.562 359.279L158.069 346.095C159.524 346.81 160.722 347.958 161.498 349.38Z" fill="white"/>
<path opacity="0.2" d="M136.009 340.799L91.2402 353.52C90.8298 353.239 90.4424 352.925 90.0815 352.583L132.452 340.568C133.68 340.556 134.862 340.649 136.009 340.799Z" fill="white"/>
<path opacity="0.2" d="M151.002 343.309L101.124 357.44C100.347 357.244 99.5943 357.047 98.876 356.827L148.697 342.707C149.496 342.892 150.261 343.112 151.002 343.309Z" fill="white"/>
<path d="M130.333 355.555V357.278H122.639V355.636C117.939 355.604 113.246 355.241 108.597 354.549L112.756 351.889C116.931 352.539 121.149 352.867 125.374 352.872C129.035 352.872 130.344 352.664 130.344 352.282C130.344 350.929 109.199 352.028 109.199 347.98C109.199 346.234 113.683 344.765 122.639 344.407V342.718H130.344V344.372C134.056 344.438 137.759 344.74 141.432 345.274L137.562 347.922C134.033 347.399 130.471 347.128 126.903 347.113C123.138 347.113 121.933 347.425 121.933 347.795C121.933 349.102 143.077 348.015 143.077 352.005C143.066 353.681 138.86 355.139 130.333 355.555Z" fill="#F9934F"/>
<path d="M130.112 354.989V356.7H122.407V355.058C117.707 355.023 113.015 354.664 108.364 353.983L112.512 351.311C116.69 351.965 120.912 352.298 125.141 352.306C128.802 352.306 130.112 352.086 130.112 351.716C130.112 350.351 108.967 351.45 108.967 347.414C108.967 345.656 113.439 344.187 122.407 343.829V342.14H130.112V343.806C133.823 343.869 137.526 344.166 141.199 344.696L137.318 347.344C133.793 346.825 130.234 346.558 126.67 346.547C122.893 346.547 121.688 346.847 121.688 347.229C121.688 348.524 142.845 347.437 142.845 351.438C142.845 353.115 138.581 354.561 130.112 354.989Z" fill="#FFC145"/>
<path d="M168.657 345.425C168.662 345.467 168.662 345.51 168.657 345.552C168.598 346.433 168.353 347.292 167.938 348.071C167.522 348.85 166.946 349.533 166.247 350.074C165.845 350.436 165.424 350.776 164.984 351.092C163.483 352.138 161.876 353.022 160.188 353.728L158.925 354.249C157.453 354.815 155.854 355.405 154.128 355.856L152.865 356.203C151.347 356.608 149.748 356.99 148.057 357.36L146.794 357.614C145.253 357.903 143.654 358.169 141.997 358.4L140.734 358.574C139.182 358.771 137.571 358.956 135.938 359.094L134.675 359.21C133.099 359.337 131.5 359.441 129.878 359.511L128.604 359.568C127.028 359.568 125.429 359.661 123.819 359.673H122.544C120.922 359.673 119.323 359.673 117.747 359.58H116.484C115.326 359.58 114.098 359.464 112.928 359.383L111.688 359.291L110.425 359.187C108.78 359.04 107.181 358.867 105.628 358.666L104.354 358.505L101.446 358.065L99.5571 357.73C99.14 357.66 98.7113 357.579 98.2942 357.487C96.6142 357.163 95.0153 356.793 93.4975 356.4L92.6054 356.157C92.4779 356.157 92.3621 356.088 92.2346 356.053C91.551 355.868 90.879 355.671 90.2302 355.463C89.257 355.151 88.3185 354.827 87.4379 354.492C86.9976 354.33 86.5806 354.156 86.175 353.983C84.6958 353.382 83.2696 352.659 81.9113 351.82L81.3784 351.473L80.7411 351.022L80.1039 350.525C78.2733 348.998 77.2769 347.356 77.2769 345.633C77.2769 345.518 77.2769 345.39 77.2769 345.275V335.537H168.611V345.633L168.657 345.425Z" fill="#FDB249"/>
<path d="M81.3911 335.409V351.345L80.7539 350.894L80.1167 350.397V335.363L81.3911 335.409Z" fill="#F9934F"/>
<path d="M87.4514 335.398V354.364C87.0111 354.202 86.594 354.029 86.1885 353.855V335.352L87.4514 335.398Z" fill="#F9934F"/>
<path d="M93.5109 335.387V356.273L92.6188 356.03C92.4914 356.03 92.3755 355.96 92.248 355.926V335.387H93.5109Z" fill="#F9934F"/>
<path d="M99.5695 335.375V357.602C99.1524 357.533 98.7237 357.452 98.3066 357.36V335.387L99.5695 335.375Z" fill="#F9934F"/>
<path d="M105.641 335.375V358.504L104.367 358.343V335.375H105.641Z" fill="#F9934F"/>
<path d="M111.701 335.363V359.163L110.438 359.059V335.363H111.701Z" fill="#F9934F"/>
<path d="M117.76 335.352V359.499H116.497V335.352H117.76Z" fill="#F9934F"/>
<path d="M123.797 335.34V359.626H122.523V335.34H123.797Z" fill="#F9934F"/>
<path d="M129.892 335.34V359.429L128.617 359.487V335.34H129.892Z" fill="#F9934F"/>
<path d="M135.95 335.329V359.013L134.687 359.129V335.329H135.95Z" fill="#F9934F"/>
<path d="M142.009 335.318V358.32L140.747 358.493V335.364L142.009 335.318Z" fill="#F9934F"/>
<path d="M148.128 335.306V357.279L146.865 357.533V335.306H148.128Z" fill="#F9934F"/>
<path d="M154.14 335.295V355.833L152.877 356.18V335.364L154.14 335.295Z" fill="#F9934F"/>
<path d="M160.2 335.295V353.682L158.938 354.203V335.295H160.2Z" fill="#F9934F"/>
<path d="M166.26 335.283V350.051C165.858 350.413 165.437 350.753 164.997 351.068V335.283H166.26Z" fill="#F9934F"/>
<path d="M168.657 335.399C168.657 342.546 148.207 348.351 122.984 348.351C119.508 348.351 116.171 348.235 112.95 348.039C108.884 347.773 105.037 347.368 101.457 346.824C98.2706 346.339 95.3045 345.749 92.6281 345.078C91.8171 344.87 91.0176 344.65 90.2529 344.431C87.3607 343.65 84.5719 342.528 81.9457 341.088C81.5285 340.846 81.1346 340.603 80.787 340.348C78.5625 338.822 77.3112 337.156 77.3112 335.399C77.2993 335.241 77.2993 335.082 77.3112 334.924C78.1917 327.986 98.2822 322.458 122.949 322.458C128.678 322.449 134.403 322.762 140.097 323.395L143.109 323.776C147.017 324.3 150.887 325.072 154.695 326.089C155.437 326.297 156.167 326.517 156.862 326.737C159.071 327.406 161.216 328.273 163.269 329.327C164.822 330.095 166.214 331.151 167.371 332.438C167.983 333.138 168.384 333.995 168.529 334.913C168.585 335.071 168.627 335.234 168.657 335.399Z" fill="#FFC145"/>
<path opacity="0.3" d="M167.453 332.45L112.998 348.039C108.931 347.773 105.084 347.368 101.504 346.824L163.398 329.339C164.934 330.111 166.309 331.167 167.453 332.45Z" fill="white"/>
<path opacity="0.3" d="M143.145 323.776L81.9465 341.123C81.5294 340.88 81.1354 340.637 80.7878 340.383L140.132 323.452L143.145 323.776Z" fill="white"/>
<path opacity="0.3" d="M156.944 326.748L92.6291 345.078C91.8181 344.87 91.0186 344.65 90.2539 344.43L154.777 326.101C155.519 326.309 156.237 326.529 156.944 326.748Z" fill="white"/>
<path d="M159.481 335.399C159.493 335.557 159.493 335.715 159.481 335.873C158.601 341.366 142.589 345.749 123.02 345.749C103.451 345.749 87.4268 341.366 86.5463 335.873C86.5344 335.715 86.5344 335.557 86.5463 335.399C86.5463 329.698 102.918 325.049 123.054 325.049C143.191 325.049 159.481 329.698 159.481 335.399Z" fill="#F9934F"/>
<path d="M159.446 335.873C158.566 341.366 142.554 345.749 122.985 345.749H121.676C117.537 345.72 113.403 345.473 109.29 345.009C105.778 344.621 102.295 344.007 98.8623 343.17C98.086 342.974 97.3329 342.777 96.5451 342.557C93.8332 341.847 91.2546 340.703 88.9098 339.169C88.5214 338.883 88.1535 338.57 87.8091 338.232C87.1295 337.621 86.6593 336.812 86.4651 335.919C87.3456 330.438 103.369 326.043 122.938 326.043C125.406 326.043 127.828 326.124 130.168 326.251C131.327 326.321 132.485 326.402 133.644 326.506C137.915 326.856 142.155 327.513 146.331 328.472C147.119 328.657 147.895 328.853 148.648 329.073C151.106 329.709 153.476 330.645 155.704 331.86C157.18 332.562 158.397 333.712 159.18 335.144C159.298 335.376 159.387 335.62 159.446 335.873Z" fill="#FDB249"/>
<path opacity="0.2" d="M159.227 335.098L121.676 345.738C117.538 345.708 113.403 345.461 109.291 344.998L155.786 331.814C157.249 332.522 158.453 333.671 159.227 335.098Z" fill="white"/>
<path opacity="0.2" d="M133.736 326.459L88.9559 339.18C88.5675 338.894 88.1997 338.581 87.8552 338.243L130.214 326.228C131.408 326.274 132.589 326.355 133.736 326.459Z" fill="white"/>
<path opacity="0.2" d="M148.73 329.026L98.9095 343.158C98.1332 342.962 97.3801 342.765 96.5923 342.545L146.413 328.425C147.212 328.61 147.989 328.807 148.73 329.026Z" fill="white"/>
<path d="M128.061 341.273V342.996H120.321V341.354C115.621 341.316 110.929 340.953 106.279 340.267L110.427 337.595C114.604 338.254 118.826 338.587 123.056 338.59C126.717 338.59 128.026 338.37 128.026 338C128.026 336.635 106.881 337.746 106.881 333.698C106.881 331.952 111.354 330.471 120.321 330.125V328.436H128.026V330.09C131.737 330.157 135.441 330.458 139.114 330.992L135.233 333.64C131.707 333.117 128.149 332.846 124.585 332.831C120.808 332.831 119.615 333.143 119.615 333.513C119.615 334.808 140.759 333.733 140.759 337.722C140.794 339.399 136.542 340.856 128.061 341.273Z" fill="#F9934F"/>
<path d="M127.828 340.695V342.418H120.134V340.799C115.434 340.768 110.741 340.404 106.092 339.712L110.24 337.052C114.414 337.706 118.632 338.038 122.857 338.047C126.518 338.047 127.828 337.827 127.828 337.457C127.828 336.092 106.683 337.191 106.683 333.155C106.683 331.397 111.167 329.928 120.134 329.57V327.881H127.828V329.535C131.542 329.608 135.249 329.909 138.927 330.437L135.046 333.085C131.516 332.565 127.954 332.299 124.386 332.288C120.621 332.288 119.416 332.588 119.416 332.958C119.416 334.265 140.561 333.178 140.561 337.179C140.561 338.821 136.297 340.279 127.828 340.695Z" fill="#FFC145"/>
<path d="M249.228 391.602V391.682C249.17 392.562 248.927 393.42 248.514 394.2C248.1 394.979 247.526 395.662 246.829 396.204C246.426 396.57 246.001 396.91 245.555 397.222C244.054 398.268 242.446 399.152 240.758 399.859L239.495 400.379C238.035 400.957 236.425 401.535 234.699 401.986L233.436 402.345C231.891 402.754 230.292 403.139 228.639 403.501L227.365 403.756C225.835 404.045 224.225 404.311 222.568 404.542L221.305 404.716C219.752 404.912 218.153 405.097 216.508 405.248L215.245 405.352C213.701 405.483 212.102 405.587 210.449 405.664H209.186C207.641 405.726 206.042 405.76 204.389 405.768H203.115C201.504 405.768 199.894 405.768 198.318 405.687H197.055C195.896 405.687 194.668 405.571 193.498 405.491L192.258 405.398L190.995 405.294C189.35 405.155 187.751 404.982 186.199 404.785L184.936 404.612C183.939 404.473 182.966 404.334 182.016 404.172L180.139 403.848L178.865 403.606C177.196 403.27 175.586 402.9 174.068 402.507L173.188 402.276L172.805 402.172C172.122 401.975 171.45 401.778 170.801 401.57C169.828 401.258 168.889 400.934 168.008 400.599L166.746 400.101C165.271 399.499 163.849 398.775 162.493 397.939L161.949 397.58L161.312 397.129C161.092 396.967 160.883 396.806 160.686 396.632C158.855 395.117 157.847 393.463 157.847 391.74C157.847 391.625 157.847 391.509 157.847 391.382V381.644H249.181V391.74L249.228 391.602Z" fill="#FDB249"/>
<path d="M161.949 381.632V397.568L161.312 397.117C161.092 396.955 160.883 396.793 160.687 396.619V381.586L161.949 381.632Z" fill="#F9934F"/>
<path d="M168.009 381.622V400.587L166.747 400.09V381.587L168.009 381.622Z" fill="#F9934F"/>
<path d="M174.069 381.611V402.496L173.189 402.265L172.806 402.161V381.622L174.069 381.611Z" fill="#F9934F"/>
<path d="M180.139 381.611V403.838L178.865 403.595V381.622L180.139 381.611Z" fill="#F9934F"/>
<path d="M186.198 381.599V404.728L184.936 404.554V381.599H186.198Z" fill="#F9934F"/>
<path d="M192.258 381.587V405.387L190.995 405.283V381.587H192.258Z" fill="#F9934F"/>
<path d="M198.319 381.576V405.734H197.056V381.576H198.319Z" fill="#F9934F"/>
<path d="M204.39 381.564V405.849H203.115V381.564H204.39Z" fill="#F9934F"/>
<path d="M210.449 381.564V405.664H209.187V381.564H210.449Z" fill="#F9934F"/>
<path d="M216.485 381.552V405.248L215.223 405.352V381.552H216.485Z" fill="#F9934F"/>
<path d="M222.569 381.541V404.543L221.306 404.717V381.587L222.569 381.541Z" fill="#F9934F"/>
<path d="M228.64 381.529V403.501L227.366 403.756V381.54L228.64 381.529Z" fill="#F9934F"/>
<path d="M234.699 381.529V402.09L233.436 402.449V381.633L234.699 381.529Z" fill="#F9934F"/>
<path d="M240.817 381.517V399.905L239.554 400.425V381.517H240.817Z" fill="#F9934F"/>
<path d="M246.83 381.506V396.309C246.427 396.675 246.002 397.014 245.556 397.326V381.506H246.83Z" fill="#F9934F"/>
<path d="M249.217 381.622C249.217 388.78 228.767 394.574 203.544 394.574C200.091 394.574 196.747 394.47 193.51 394.262C189.455 394.007 185.597 393.591 182.028 393.047C178.831 392.562 175.876 391.984 173.188 391.301C172.377 391.093 171.578 390.885 170.813 390.654C167.921 389.871 165.133 388.749 162.506 387.311C162.088 387.065 161.702 386.822 161.347 386.583C159.122 385.056 157.871 383.379 157.871 381.622C157.86 381.464 157.86 381.305 157.871 381.148C158.752 374.209 178.854 368.681 203.509 368.681C209.238 368.67 214.964 368.986 220.657 369.629C221.688 369.745 222.684 369.872 223.669 370.011C227.577 370.534 231.447 371.307 235.255 372.324C236.008 372.532 236.727 372.74 237.433 372.96C239.638 373.631 241.779 374.498 243.829 375.55C245.384 376.315 246.776 377.371 247.931 378.661C248.548 379.357 248.95 380.217 249.089 381.136C249.144 381.295 249.186 381.457 249.217 381.622Z" fill="#FFC145"/>
<path opacity="0.3" d="M248.011 378.672L193.556 394.261C189.501 394.007 185.643 393.591 182.074 393.047L243.956 375.562C245.494 376.331 246.87 377.387 248.011 378.672Z" fill="white"/>
<path opacity="0.3" d="M223.704 370.011L162.506 387.358C162.088 387.111 161.702 386.868 161.347 386.629L220.715 369.676C221.723 369.71 222.719 369.872 223.704 370.011Z" fill="white"/>
<path opacity="0.3" d="M237.515 372.971L173.188 391.301C172.377 391.093 171.578 390.885 170.813 390.653L235.337 372.335C236.09 372.543 236.808 372.752 237.515 372.971Z" fill="white"/>
<path d="M240.052 381.621C240.052 381.783 240.052 381.945 240.052 382.107C239.171 387.589 223.148 391.972 203.579 391.972C184.009 391.972 167.986 387.589 167.105 382.107C167.094 381.945 167.094 381.783 167.105 381.621C167.105 375.92 183.488 371.283 203.613 371.283C223.739 371.283 240.052 375.92 240.052 381.621Z" fill="#F9934F"/>
<path d="M240.017 382.107C239.137 387.588 223.113 391.971 203.544 391.971H202.235C198.092 391.933 193.954 391.682 189.838 391.22C186.325 390.836 182.842 390.222 179.41 389.381C178.634 389.184 177.881 388.988 177.162 388.768C174.449 388.063 171.869 386.918 169.527 385.38C169.117 385.098 168.729 384.785 168.368 384.443C167.693 383.828 167.224 383.02 167.024 382.13C167.905 376.637 183.929 372.254 203.498 372.254C205.977 372.254 208.391 372.319 210.739 372.45C211.898 372.52 213.056 372.612 214.215 372.705C218.486 373.056 222.726 373.713 226.902 374.671C227.701 374.856 228.466 375.064 229.219 375.272C231.675 375.914 234.044 376.849 236.275 378.059C237.749 378.765 238.965 379.913 239.751 381.344C239.866 381.588 239.956 381.844 240.017 382.107Z" fill="#FDB249"/>
<path opacity="0.2" d="M239.785 381.275L202.235 391.926C198.093 391.902 193.955 391.667 189.837 391.22L236.333 378.037C237.791 378.734 238.998 379.865 239.785 381.275Z" fill="white"/>
<path opacity="0.2" d="M214.296 372.682L169.527 385.403C169.117 385.122 168.729 384.809 168.368 384.467L210.739 372.451C211.967 372.497 213.149 372.59 214.296 372.682Z" fill="white"/>
<path opacity="0.2" d="M229.288 375.249L179.41 389.37C178.634 389.173 177.88 388.976 177.162 388.757L226.983 374.636C227.782 374.833 228.547 375.041 229.288 375.249Z" fill="white"/>
<path d="M208.618 387.496V389.219H200.913V387.577C196.212 387.545 191.52 387.182 186.871 386.49L191.018 383.83C195.197 384.479 199.419 384.808 203.647 384.813C207.309 384.813 208.618 384.605 208.618 384.235C208.618 382.87 187.473 383.969 187.473 379.921C187.473 378.175 191.957 376.707 200.913 376.348V374.66H208.618V376.313C212.329 376.385 216.032 376.687 219.706 377.215L215.836 379.864C212.307 379.34 208.745 379.07 205.177 379.054C201.411 379.054 200.206 379.366 200.206 379.736C200.206 381.043 221.351 379.956 221.351 383.946C221.351 385.623 217.087 387.057 208.618 387.496Z" fill="#F9934F"/>
<path d="M208.376 386.93V388.641H200.671V387.057C195.971 387.022 191.279 386.663 186.629 385.981L190.777 383.31C194.955 383.964 199.177 384.297 203.406 384.304C207.067 384.304 208.376 384.085 208.376 383.715C208.376 382.35 187.231 383.449 187.231 379.413C187.231 377.655 191.704 376.186 200.671 375.828V374.139H208.376V375.804C212.087 375.874 215.79 376.171 219.464 376.695L215.583 379.343C212.057 378.829 208.499 378.563 204.935 378.545C201.158 378.545 199.953 378.858 199.953 379.228C199.953 380.523 221.109 379.436 221.109 383.437C221.121 385.056 216.869 386.513 208.376 386.93Z" fill="#FFC145"/>
<path d="M252.092 375.632C252.097 375.675 252.097 375.717 252.092 375.76C252.035 376.641 251.791 377.5 251.375 378.279C250.96 379.059 250.382 379.741 249.682 380.281C249.283 380.647 248.862 380.987 248.419 381.299C246.919 382.345 245.311 383.229 243.623 383.936L242.36 384.456C240.888 385.034 239.29 385.613 237.563 386.064L236.3 386.422C234.782 386.827 233.172 387.197 231.492 387.579L230.229 387.833C228.688 388.122 227.089 388.388 225.432 388.619L224.17 388.793C222.617 388.989 221.006 389.174 219.373 389.325L218.11 389.429C216.565 389.56 214.966 389.664 213.313 389.741H212.039C210.463 389.799 208.864 389.834 207.254 389.845H205.979C204.357 389.845 202.758 389.845 201.183 389.764H199.92C198.761 389.764 197.533 389.649 196.363 389.568L195.123 389.475L193.86 389.371C192.215 389.221 190.616 389.059 189.063 388.862L187.789 388.689C186.804 388.55 185.831 388.411 184.881 388.249L182.992 387.925L181.729 387.683C180.049 387.347 178.45 386.977 176.933 386.584L176.04 386.353L175.67 386.249C174.986 386.052 174.314 385.855 173.665 385.647C172.692 385.335 171.754 385.011 170.873 384.676L169.61 384.179C168.133 383.573 166.707 382.85 165.346 382.016L164.813 381.657L164.176 381.206L163.539 380.709C162.733 380.155 162.061 379.428 161.572 378.582C161.083 377.736 160.789 376.791 160.712 375.817C160.712 375.702 160.712 375.586 160.712 375.459V365.664H252.046V375.76L252.092 375.632Z" fill="#FDB249"/>
<path d="M164.825 365.662V381.598L164.187 381.147L163.55 380.65V365.616L164.825 365.662Z" fill="#F9934F"/>
<path d="M170.885 365.652V384.618L169.622 384.121V365.617L170.885 365.652Z" fill="#F9934F"/>
<path d="M176.945 365.641V386.526L176.053 386.295L175.682 386.191V365.652L176.945 365.641Z" fill="#F9934F"/>
<path d="M183.004 365.641V387.868L181.741 387.625V365.652L183.004 365.641Z" fill="#F9934F"/>
<path d="M189.074 365.629V388.758L187.799 388.584V365.629H189.074Z" fill="#F9934F"/>
<path d="M195.134 365.617V389.371L193.872 389.267V365.617H195.134Z" fill="#F9934F"/>
<path d="M201.195 365.606V389.765H199.932V365.606H201.195Z" fill="#F9934F"/>
<path d="M207.219 365.594V389.88H205.944V365.594H207.219Z" fill="#F9934F"/>
<path d="M213.324 365.594V389.695H212.05V365.594H213.324Z" fill="#F9934F"/>
<path d="M219.384 365.583V389.279L218.121 389.383V365.583H219.384Z" fill="#F9934F"/>
<path d="M225.444 365.572V388.574L224.181 388.747V365.618L225.444 365.572Z" fill="#F9934F"/>
<path d="M231.55 365.56V387.533L230.287 387.787V365.572L231.55 365.56Z" fill="#F9934F"/>
<path d="M237.575 365.56V386.064L236.312 386.422V365.606L237.575 365.56Z" fill="#F9934F"/>
<path d="M243.634 365.548V383.936L242.372 384.456V365.548H243.634Z" fill="#F9934F"/>
<path d="M249.695 365.537V380.282C249.296 380.647 248.874 380.987 248.432 381.299V365.537H249.695Z" fill="#F9934F"/>
<path d="M252.091 365.652C252.091 372.81 231.641 378.604 206.418 378.604C202.942 378.604 199.606 378.5 196.385 378.292C192.318 378.038 188.471 377.621 184.891 377.078C181.705 376.592 178.739 376.002 176.063 375.331C175.251 375.123 174.452 374.915 173.687 374.684C170.795 373.903 168.006 372.781 165.38 371.342C164.963 371.095 164.577 370.852 164.221 370.613C161.997 369.087 160.746 367.41 160.746 365.652C160.735 365.494 160.735 365.336 160.746 365.178C161.626 358.239 181.717 352.711 206.384 352.711C212.113 352.7 217.838 353.017 223.531 353.659C224.551 353.775 225.559 353.902 226.544 354.041C230.451 354.565 234.321 355.337 238.13 356.354C238.871 356.562 239.601 356.77 240.296 356.99C242.506 357.66 244.65 358.527 246.703 359.58C248.256 360.348 249.648 361.404 250.805 362.691C251.417 363.391 251.819 364.249 251.964 365.166C252.018 365.325 252.061 365.487 252.091 365.652Z" fill="#FFC145"/>
<path opacity="0.3" d="M250.886 362.703L196.431 378.292C192.364 378.037 188.517 377.621 184.937 377.078L246.831 359.592C248.367 360.365 249.742 361.42 250.886 362.703Z" fill="white"/>
<path opacity="0.3" d="M226.579 354.041L165.381 371.388C164.964 371.142 164.577 370.899 164.222 370.66L223.59 353.706C224.598 353.776 225.594 353.903 226.579 354.041Z" fill="white"/>
<path opacity="0.3" d="M240.379 356.99L176.064 375.32C175.253 375.112 174.453 374.903 173.688 374.672L238.212 356.354C238.953 356.574 239.66 356.782 240.379 356.99Z" fill="white"/>
<path d="M242.915 365.652C242.927 365.813 242.927 365.976 242.915 366.137C242.035 371.619 226.023 376.002 206.454 376.002C186.884 376.002 170.861 371.619 169.98 366.137C169.969 365.976 169.969 365.813 169.98 365.652C169.98 359.95 186.351 355.313 206.488 355.313C226.625 355.313 242.915 359.95 242.915 365.652Z" fill="#F9934F"/>
<path d="M242.881 366.137C242 371.619 225.988 376.002 206.419 376.002H205.11C200.971 375.963 196.837 375.712 192.724 375.25C189.211 374.868 185.728 374.254 182.296 373.411C181.509 373.215 180.767 373.018 179.979 372.799C177.267 372.088 174.689 370.944 172.344 369.41C171.955 369.124 171.588 368.811 171.243 368.473C170.564 367.861 170.094 367.053 169.899 366.16C170.78 360.667 186.803 356.284 206.372 356.284C208.84 356.284 211.262 356.354 213.602 356.481C214.761 356.55 215.977 356.643 217.078 356.735C221.368 357.083 225.628 357.74 229.823 358.701C230.611 358.886 231.387 359.095 232.14 359.303C234.601 359.942 236.974 360.878 239.208 362.09C240.677 362.802 241.891 363.949 242.684 365.374C242.781 365.619 242.847 365.876 242.881 366.137Z" fill="#FDB249"/>
<path opacity="0.2" d="M242.66 365.351L205.11 376.002C200.971 375.963 196.837 375.712 192.724 375.25L239.219 362.066C240.676 362.784 241.876 363.931 242.66 365.351Z" fill="white"/>
<path opacity="0.2" d="M217.171 356.713L172.39 369.434C172.002 369.148 171.634 368.835 171.289 368.497L213.648 356.481C214.842 356.528 216.024 356.62 217.171 356.713Z" fill="white"/>
<path opacity="0.2" d="M232.152 359.303L182.331 373.435C181.544 373.239 180.802 373.042 180.014 372.822L229.835 358.702C230.646 358.864 231.422 359.072 232.152 359.303Z" fill="white"/>
<path d="M211.493 371.527V373.25H203.742V371.608C199.041 371.576 194.349 371.213 189.699 370.521L193.847 367.861C198.026 368.511 202.248 368.84 206.476 368.844C210.137 368.844 211.447 368.636 211.447 368.266C211.447 366.901 190.302 368 190.302 363.952C190.302 362.206 194.774 360.738 203.742 360.379V358.691H211.447V360.344C215.158 360.411 218.861 360.712 222.535 361.246L218.7 363.929C215.174 363.406 211.616 363.135 208.052 363.12C204.275 363.12 203.081 363.432 203.081 363.802C203.081 365.109 224.226 364.022 224.226 368.012C224.226 369.712 219.963 371.111 211.493 371.527Z" fill="#F9934F"/>
<path d="M211.262 370.961V372.672H203.558V371.03C198.858 370.995 194.166 370.635 189.515 369.955L193.675 367.283C197.849 367.937 202.067 368.269 206.292 368.278C209.953 368.278 211.262 368.058 211.262 367.688C211.262 366.323 190.118 367.422 190.118 363.386C190.118 361.628 194.601 360.159 203.558 359.801V358.147H211.262V359.812C214.977 359.876 218.685 360.173 222.362 360.703L218.481 363.351C214.951 362.831 211.389 362.564 207.821 362.553C204.056 362.553 202.851 362.865 202.851 363.236C202.851 364.531 223.996 363.444 223.996 367.445C223.996 369.087 219.732 370.533 211.262 370.961Z" fill="#FFC145"/>
<path d="M443.358 148.504V182.827C443.355 183.878 442.935 184.883 442.19 185.625C441.445 186.366 440.436 186.783 439.384 186.783H405.008C403.617 186.691 402.279 186.217 401.142 185.413C400.004 184.609 399.113 183.506 398.566 182.226C398.493 182.098 398.435 181.962 398.392 181.821L398.183 181.197C398.183 181.197 398.183 181.197 398.183 181.128V181.035L398.114 153.951V146.018C398.114 145.04 398.476 144.096 399.13 143.368C399.784 142.64 400.685 142.18 401.659 142.074H402.076L437.159 142.213C437.317 142.201 437.476 142.201 437.634 142.213C441.168 142.629 443.358 146.411 443.358 148.504Z" fill="#F9934F"/>
<path d="M440.405 146.017V180.329C440.406 180.849 440.305 181.364 440.106 181.844C439.908 182.325 439.616 182.762 439.248 183.129C438.879 183.497 438.442 183.788 437.96 183.986C437.479 184.184 436.963 184.286 436.442 184.284H402.054C401.343 184.285 400.645 184.094 400.033 183.732C399.421 183.37 398.919 182.849 398.579 182.226C398.506 182.097 398.448 181.962 398.405 181.821L398.196 181.196C398.196 181.196 398.196 181.196 398.196 181.127C398.196 181.058 398.196 181.058 398.196 181.034C398.15 180.802 398.126 180.566 398.127 180.329V146.017C398.127 145.039 398.489 144.096 399.143 143.368C399.797 142.64 400.698 142.179 401.672 142.073H436.431C436.823 142.073 437.214 142.131 437.589 142.247C438.4 142.494 439.11 142.992 439.617 143.671C440.123 144.349 440.399 145.171 440.405 146.017Z" fill="#FFC145"/>
<path d="M421.762 174.813V178.282H417.417V175.01C414.64 174.884 411.929 174.124 409.492 172.789L411.891 167.516C414.054 168.776 416.5 169.472 419.004 169.54C421.078 169.54 421.82 169.135 421.82 168.383C421.82 165.666 409.875 167.759 409.944 159.71C409.944 156.24 412.528 153.326 417.603 152.655V149.302H421.959V152.598C424.149 152.775 426.279 153.401 428.215 154.436L425.979 159.687C424.137 158.672 422.081 158.106 419.978 158.033C417.846 158.033 417.162 158.634 417.151 159.374C417.151 161.953 429.096 159.895 429.038 167.851C428.98 171.147 426.547 174.027 421.762 174.813Z" fill="white"/>
</g>
<defs>
<clipPath id="clip0_78_4551">
<rect width="525.8" height="446.6" fill="white" transform="translate(0.965332 0.800583)"/>
</clipPath>
</defs>
</svg>
