<svg width="181" height="164" viewBox="0 0 181 164" fill="none" xmlns="http://www.w3.org/2000/svg">
<path d="M51.2887 13.9307C46.0086 21.3061 51.981 33.4172 44.2035 38.9244C36.6325 44.2855 27.4967 35.2716 20.3669 39.8797C9.78959 46.7158 11.3748 78.5205 26.5223 98.4308C31.0781 104.418 34.9129 106.769 36.551 113.504C40.069 127.965 27.0803 136.409 29.4598 143.569C34.8171 159.688 119.671 174.059 154.286 126.146C170.452 103.769 173.178 71.238 159.207 46.3663C133.962 1.41903 63.1362 -2.61961 51.2887 13.9307Z" fill="#F4F7FA"/>
<path d="M87.1243 129.331C88.4622 129.256 91.3066 127.918 91.9043 127.263C95.8789 122.91 103.851 115.241 103.937 109.015C103.952 107.952 99.283 106.625 98.6892 105.608C95.918 104.04 94.8593 103.668 92.9607 100.886C87.3484 92.6751 102.504 79.1213 86.482 72.8083C74.7457 68.1827 64.3005 71.5738 66.9506 53.0635C69.6006 34.5533 57.2897 -0.421576 36.6556 11.1271C24.813 17.754 35.1282 34.4077 28.4633 45.6546C22.1289 56.3421 26.1742 65.8133 37.4967 73.3261C48.8193 80.8389 42.1368 85.4964 37.9374 95.7848C32.8919 108.144 52.2427 111.805 61.3212 112.734C68.6256 113.479 86.7343 120.307 87.1243 129.331Z" fill="#97A6B7"/>
<g style="mix-blend-mode:soft-light">
<g style="mix-blend-mode:soft-light">
<g style="mix-blend-mode:soft-light">
<path d="M97.7158 118.662L97.859 118.416C59.9071 96.4224 39.1447 54.3436 42.3201 5.85512L42.0353 5.83643C40.5311 28.8168 44.5823 51.2058 53.7528 70.5823C63.3938 90.9564 78.5958 107.582 97.7158 118.662Z" fill="#97A6B7"/>
</g>
<g style="mix-blend-mode:soft-light">
<path d="M35.2436 100.677C46.8912 97.7795 65.9242 99.0607 77.6748 103.535L77.7761 103.269C65.981 98.7781 46.8703 97.4927 35.1748 100.402L35.2436 100.677Z" fill="#97A6B7"/>
</g>
<g style="mix-blend-mode:soft-light">
<path d="M90.3159 114.259L90.5213 114.062C86.0002 109.352 84.0393 102.542 84.6931 93.8209C85.1723 87.4266 87.0198 80.1732 90.1853 72.2614L89.9204 72.1558C86.7449 80.0945 84.8904 87.3766 84.4089 93.7995C83.7484 102.605 85.7347 109.488 90.3159 114.259Z" fill="#97A6B7"/>
</g>
<g style="mix-blend-mode:soft-light">
<path d="M52.5587 67.783L52.7741 67.5972C44.7096 58.2811 32.1509 55.0328 23.036 53.949L23.0024 54.2314C32.0672 55.3093 44.5537 58.5356 52.5587 67.783Z" fill="#97A6B7"/>
</g>
<g style="mix-blend-mode:soft-light">
<path d="M44.093 40.8993H44.3778C44.3822 27.0305 53.2245 15.4516 58.4947 9.78441L58.2859 9.59094C52.9859 15.2895 44.0963 26.9339 44.093 40.8993Z" fill="#97A6B7"/>
</g>
</g>
</g>
<path d="M87.1981 145.136C88.3349 144.771 90.4858 142.977 90.8533 142.278C93.2994 137.633 98.4452 129.232 97.1167 123.845C96.8902 122.926 92.5647 122.829 91.8232 122.083C89.0808 121.353 88.0838 121.269 85.8193 119.298C79.1296 113.477 89.1435 98.3924 73.9063 96.5434C62.7451 95.1885 54.5037 100.456 52.6172 83.9019C50.7306 67.3478 32.2347 39.9566 17.0476 54.5416C8.32928 62.9118 20.9755 74.9546 17.7637 86.1488C14.711 96.7842 20.3321 104.043 31.7853 107.981C43.2384 111.918 38.5278 117.434 37.2251 127.246C35.6598 139.033 53.1691 137.848 61.2056 136.613C67.6765 135.619 84.8284 137.443 87.1981 145.136Z" fill="#CBD0D8"/>
<g style="mix-blend-mode:soft-light">
<g style="mix-blend-mode:soft-light">
<g style="mix-blend-mode:soft-light">
<path d="M93.9263 133.56L93.9941 133.316C56.3182 122.868 28.9337 91.2465 20.7453 48.7285L20.4963 48.7764C24.3768 68.9268 32.9151 87.3216 45.1883 101.972C58.0913 117.374 74.9446 128.296 93.9263 133.56Z" fill="#FCFDFE"/>
</g>
<g style="mix-blend-mode:soft-light">
<path d="M36.0108 132.07C45.4006 126.959 62.1009 123.793 73.2384 125.013L73.266 124.761C62.0844 123.537 45.3174 126.716 35.8896 131.848L36.0108 132.07Z" fill="#FCFDFE"/>
</g>
<g style="mix-blend-mode:soft-light">
<path d="M86.5533 131.425L86.686 131.209C81.7286 128.162 78.5014 122.73 77.1018 115.065C76.074 109.444 76.0326 102.775 76.979 95.2441L76.7267 95.2122C75.7777 102.769 75.8195 109.464 76.8517 115.109C78.2652 122.85 81.5293 128.338 86.5533 131.425Z" fill="#FCFDFE"/>
</g>
<g style="mix-blend-mode:soft-light">
<path d="M43.5271 99.8246L43.6714 99.6157C34.6188 93.3928 23.0593 93.4098 14.9546 94.5211L14.9887 94.7724C23.0516 93.667 34.5422 93.6473 43.5271 99.8246Z" fill="#FCFDFE"/>
</g>
<g style="mix-blend-mode:soft-light">
<path d="M30.1689 78.5453L30.4146 78.481C27.2926 66.5228 32.3084 54.5563 35.5752 48.4873L35.3515 48.3669C32.067 54.4689 27.026 66.503 30.1689 78.5453Z" fill="#FCFDFE"/>
</g>
</g>
</g>
<path d="M115.384 140.427C114.052 140.576 111.024 139.729 110.325 139.183C105.678 135.553 96.5351 129.319 95.4093 123.197C95.2165 122.153 99.5988 120.063 100.014 118.96C102.484 116.953 103.465 116.41 104.875 113.354C109.035 104.323 91.8263 93.4841 106.568 84.59C117.364 78.0748 128.231 79.6797 122.523 61.8702C116.815 44.0607 123.104 7.52592 145.382 15.4752C158.166 20.037 150.781 38.1747 159.234 48.1543C167.266 57.6376 164.861 67.6495 154.958 76.9415C145.053 86.2334 152.417 89.7142 158.279 99.1589C165.32 110.504 146.853 117.336 138.057 119.764C130.972 121.717 114.259 131.465 115.384 140.427Z" fill="#97A6B7"/>
<g style="mix-blend-mode:soft-light">
<g style="mix-blend-mode:soft-light">
<g style="mix-blend-mode:soft-light">
<path d="M103.157 131.671L102.974 131.451C136.716 103.446 150.151 58.5005 138.912 11.2211L139.187 11.1552C144.513 33.5623 144.262 56.3124 138.46 76.9453C132.365 98.6391 120.155 117.562 103.157 131.671Z" fill="#FCFDFE"/>
</g>
<g style="mix-blend-mode:soft-light">
<path d="M161.747 103.535C149.778 102.618 131.225 107.053 120.388 113.416L120.244 113.171C131.122 106.78 149.75 102.33 161.769 103.251L161.747 103.535Z" fill="#FCFDFE"/>
</g>
<g style="mix-blend-mode:soft-light">
<path d="M109.717 126.097L109.481 125.937C113.151 120.54 113.946 113.499 111.843 105.01C110.3 98.7848 107.266 91.9408 102.822 84.667L103.065 84.5187C107.524 91.8171 110.571 98.6886 112.12 104.942C114.243 113.513 113.434 120.629 109.717 126.097Z" fill="#FCFDFE"/>
</g>
<g style="mix-blend-mode:soft-light">
<path d="M139.172 73.9861L138.929 73.8389C145.321 63.3107 157.161 58.0173 165.968 55.4302L166.049 55.705C157.29 58.2757 145.518 63.5361 139.172 73.9861Z" fill="#FCFDFE"/>
</g>
<g style="mix-blend-mode:soft-light">
<path d="M143.025 46.0696L142.744 46.1168C140.421 32.4438 129.766 22.5 123.622 17.7891L123.795 17.5637C129.972 22.3004 140.685 32.3004 143.025 46.0696Z" fill="#FCFDFE"/>
</g>
</g>
</g>
<path d="M120.177 48.5225C98.56 26.7574 63.6409 26.2539 42.4439 50.1714C19.8284 75.6844 23.8615 115.84 50.8471 136.714C75.8404 156.045 109.556 149.784 126.841 125.307C143.17 102.182 140.359 68.8433 120.177 48.5225Z" fill="#97A6B7"/>
<path d="M125.095 47.9207C103.348 25.9604 67.9809 25.6774 46.3454 50.0972C23.2623 76.1495 27.0718 116.897 54.2628 137.917C79.4462 157.383 113.641 150.805 131.318 125.841C148.017 102.255 145.398 68.4223 125.095 47.9207Z" fill="#CBD0D8"/>
<path d="M121.364 52.7959C102.428 33.9404 72.0032 34.08 53.6136 55.1945C34.1781 77.5109 37.3729 112.206 60.3242 130.362C81.8166 147.366 111.369 142.114 126.814 120.594C141.514 100.111 139.202 70.5576 121.364 52.7959Z" fill="white"/>
<g style="mix-blend-mode:multiply" opacity="0.3">
<g style="mix-blend-mode:multiply" opacity="0.3">
<path d="M68.7428 93.1318C84.7385 106.308 101.84 100.024 114.026 113.677C119.199 119.474 121.844 127.011 122.949 135.109C104.359 151.417 76.3771 153.674 55.0115 137.115C27.8804 116.088 24.0798 75.3845 47.1106 49.3844C47.7093 48.7084 48.3224 48.0548 48.9431 47.4161C51.4141 72.8325 60.0564 85.9763 68.7428 93.1318Z" fill="#D8DEE8"/>
</g>
</g>
<path d="M91.2793 91.5533C100.182 91.5533 107.404 84.3306 107.404 75.4283C107.404 66.5259 100.182 59.3032 91.2793 59.3032C82.3769 59.3032 75.1542 66.5259 75.1542 75.4283C75.1542 84.3306 82.3769 91.5533 91.2793 91.5533ZM105.613 95.1366H99.4425C96.9566 96.2788 94.1907 96.9283 91.2793 96.9283C88.3678 96.9283 85.6131 96.2788 83.116 95.1366H76.9459C69.0289 95.1366 62.6125 101.553 62.6125 109.47V111.262C62.6125 114.229 65.0201 116.637 67.9876 116.637H114.571C117.538 116.637 119.946 114.229 119.946 111.262V109.47C119.946 101.553 113.53 95.1366 105.613 95.1366Z" fill="#FC4041"/>
</svg>
