<svg width="181" height="164" viewBox="0 0 181 164" fill="none" xmlns="http://www.w3.org/2000/svg">
<path d="M79.762 150.651C46.0229 145.145 18.6058 110.759 23.5868 72.5402C27.8363 39.946 54.3465 14.5803 86.137 12.1854C88.4399 12.0113 90.7668 11.9598 93.1177 12.031C110.852 12.5834 126.61 20.2297 138.264 31.8007C149.863 43.3194 157.401 58.7188 158.771 74.8779C162.425 117.871 121.725 157.501 79.762 150.651Z" fill="#F4F7FA"/>
<path d="M60.4717 148.675C52.5817 147.582 42.5784 144.711 38.5606 136.616C37.6067 134.69 36.6459 130.948 39.0585 129.541C41.2636 128.253 44.1152 129.614 45.754 131.289C46.9591 132.521 47.8994 135.272 49.2536 136.141C51.2353 137.414 52.3019 133.942 52.2602 132.508C52.1669 129.303 48.51 127.991 46.0799 127.295C42.0456 126.14 37.3483 125.148 37.6013 120.249C37.8544 115.35 42.2865 112.409 45.6967 114.553C48.5061 116.32 48.1107 120.091 50.0303 122.355C51.7356 124.365 52.3291 121.103 52.216 119.503C51.9683 116.029 49.1351 113.517 47.0499 111.189C44.6923 108.553 42.0879 103.258 44.6009 99.7775C46.0469 97.7749 49.7199 97.3057 51.891 97.644C62.518 99.298 55.4712 114.122 57.4034 115.776C59.3356 117.429 61.1638 114.535 61.1589 110.132C61.1541 105.73 61.7792 102.483 66.0413 103.892C70.3035 105.301 71.1146 116.801 66.2478 121.22C61.3809 125.639 66.5533 130.46 67.8599 127.293C68.8031 125.007 69.6322 119.021 72.3585 118.361C76.9009 117.269 76.8329 127.266 75.5254 129.594C73.6933 132.856 69.5511 133.564 67.2357 136.378C66.5635 137.196 65.0456 139.221 65.6329 140.415C66.4552 142.082 68.7492 140.299 69.5919 139.525C71.4862 137.789 74.1091 131.887 76.7805 135.808C80.077 140.647 74.5651 147.821 60.4717 148.675Z" fill="#B6C3D1"/>
<g style="mix-blend-mode:soft-light" opacity="0.8">
<g style="mix-blend-mode:soft-light" opacity="0.8">
<path d="M59.3352 147.954C59.5207 147.954 59.6723 147.726 59.6752 147.526C59.6781 147.352 59.8977 129.884 52.8349 109.147C52.8049 109.054 52.7424 108.978 52.6608 108.934C52.5791 108.89 52.4847 108.882 52.3977 108.912C52.3559 108.927 52.3174 108.952 52.2845 108.984C52.2516 109.016 52.2249 109.054 52.206 109.097C52.1871 109.141 52.1765 109.187 52.1746 109.235C52.1728 109.283 52.1798 109.33 52.1952 109.375C59.2143 129.982 58.9952 147.341 58.9952 147.513C58.9918 147.717 59.1409 147.952 59.3299 147.952L59.3352 147.954Z" fill="#B6C3D1"/>
</g>
</g>
<path d="M54.1938 147.238C54.4585 145.451 57.6292 144.941 58.9052 144.681C59.6464 144.53 60.7023 144.375 61.0817 143.549C61.4819 142.682 60.8738 142.012 60.0942 141.859C58.6983 141.584 57.1969 142.539 55.8996 142.975C54.5061 143.442 53.0606 143.662 51.6788 143.017C50.5772 142.502 49.4488 141.28 49.2094 139.994C48.5459 136.434 51.8541 136.64 54.0097 137.14C55.0559 137.382 57.1124 137.565 57.297 135.972C57.4913 134.276 55.4921 133.421 54.2559 133.371C52.6405 133.305 51.0502 133.688 49.4498 133.813C48.0048 133.926 46.2927 133.756 45.8929 131.964C45.5835 130.579 46.3068 128.987 47.3501 128.166C49.7646 126.266 52.9465 129.506 55.5241 129.499C56.4353 129.499 57.9396 128.776 58.1917 127.719C58.4477 126.644 57.1527 125.92 56.4431 125.528C54.339 124.367 44.6738 122.879 48.1374 118.381C49.0088 117.249 50.6923 116.297 52.0513 116.257C54.6149 116.181 57.4957 118.057 59.4706 119.675C62.5791 122.22 65.2953 125.723 67.0603 129.476C70.9606 137.77 69.0712 143.331 69.0712 143.331C67.9404 145.341 66.1904 147.432 64.2626 148.567C61.9992 149.898 58.4923 150.484 56.0264 149.447C55.2293 149.113 54.0301 148.346 54.1938 147.238Z" fill="#97A6B7"/>
<g style="mix-blend-mode:multiply" opacity="0.7">
<path d="M147.318 97.8089L144.043 98.0472C143.674 96.4878 143.178 94.9664 142.562 93.5004L145.278 91.5349C145.454 91.4066 145.605 91.2419 145.722 91.0503C145.839 90.8588 145.92 90.6441 145.959 90.4188C145.999 90.1935 145.997 89.9619 145.953 89.7375C145.909 89.5131 145.824 89.3003 145.704 89.1113L142.535 84.085C142.293 83.6988 141.92 83.431 141.496 83.3397C141.072 83.2484 140.632 83.3408 140.27 83.597L137.517 85.5772C136.471 84.4207 135.335 83.3627 134.121 82.4148L135.573 79.2021C135.965 78.3356 135.622 77.2832 134.808 76.8518L129.708 74.1459C128.89 73.7124 127.91 74.0637 127.515 74.9313L126.053 78.1549C124.607 77.704 123.127 77.3887 121.63 77.2125L121.375 73.5998C121.339 73.1296 121.133 72.6934 120.802 72.3847C120.471 72.076 120.041 71.9192 119.604 71.9479L113.902 72.3103C113.687 72.3218 113.476 72.3797 113.282 72.4804C113.088 72.581 112.914 72.7226 112.772 72.8966C112.629 73.0706 112.52 73.2735 112.451 73.4936C112.383 73.7136 112.355 73.9463 112.371 74.1778L112.626 77.8031C111.159 78.1739 109.724 78.682 108.338 79.3215L106.415 76.2989C106.165 75.9067 105.783 75.6351 105.35 75.5418C104.918 75.4485 104.468 75.5409 104.097 75.7994L99.3252 79.1775C99.1436 79.3053 98.9877 79.4712 98.8668 79.6653C98.7458 79.8593 98.6623 80.0776 98.6211 80.3071C98.5799 80.5366 98.582 80.7728 98.6271 81.0014C98.6722 81.2301 98.7594 81.4467 98.8837 81.6383L100.813 84.6609C99.7187 85.7768 98.7168 86.9939 97.819 88.2982L94.7313 86.6903C93.8954 86.2552 92.8905 86.6154 92.4868 87.495L89.9611 93.0046C89.5565 93.8863 89.9082 94.9534 90.7465 95.3869L93.8114 96.9728C93.391 98.5391 93.1022 100.143 92.9483 101.765L89.5551 102.012C88.6259 102.079 87.9284 102.93 87.9974 103.912L88.4297 110.051C88.4986 111.032 89.3083 111.771 90.237 111.701L93.6025 111.445C93.9766 113.039 94.4821 114.593 95.1131 116.089L92.3445 118.078C92.1625 118.207 92.0062 118.374 91.885 118.569C91.7637 118.764 91.68 118.983 91.6387 119.214C91.5973 119.445 91.5992 119.682 91.6443 119.911C91.6894 120.141 91.7767 120.359 91.9011 120.552L95.1724 125.63C95.4278 126.02 95.8146 126.287 96.2503 126.374C96.6859 126.461 97.1358 126.361 97.5038 126.095L100.251 124.106C101.33 125.283 102.503 126.356 103.756 127.313L102.323 130.484C102.227 130.694 102.172 130.923 102.16 131.156C102.148 131.39 102.179 131.624 102.251 131.845C102.324 132.065 102.437 132.268 102.583 132.441C102.73 132.613 102.907 132.753 103.104 132.851L108.301 135.489C108.699 135.691 109.156 135.717 109.571 135.56C109.987 135.404 110.329 135.077 110.524 134.651L111.941 131.515C113.424 131.954 114.94 132.252 116.471 132.405L116.714 135.871C116.732 136.104 116.791 136.33 116.89 136.538C116.989 136.745 117.125 136.93 117.29 137.081C117.455 137.231 117.646 137.346 117.852 137.417C118.058 137.488 118.275 137.514 118.491 137.494L124.184 137.01C124.619 136.975 125.023 136.756 125.308 136.4C125.593 136.045 125.736 135.582 125.705 135.113L125.462 131.658C126.941 131.256 128.385 130.714 129.776 130.038L131.594 132.885C131.841 133.27 132.22 133.534 132.647 133.619C133.074 133.704 133.515 133.604 133.874 133.339L138.543 129.907C138.72 129.778 138.871 129.612 138.989 129.419C139.106 129.226 139.187 129.01 139.227 128.784C139.267 128.557 139.264 128.324 139.221 128.099C139.177 127.873 139.092 127.659 138.971 127.468L137.148 124.603C138.227 123.47 139.212 122.236 140.091 120.918L143.005 122.425C143.394 122.626 143.841 122.654 144.248 122.5C144.656 122.347 144.99 122.026 145.178 121.607L147.609 116.166C147.795 115.747 147.82 115.266 147.677 114.828C147.535 114.39 147.237 114.031 146.848 113.83L143.929 112.311C144.33 110.759 144.601 109.172 144.741 107.568L147.988 107.321C148.201 107.306 148.408 107.245 148.598 107.142C148.788 107.04 148.958 106.898 149.097 106.725C149.236 106.551 149.341 106.35 149.408 106.132C149.474 105.915 149.5 105.685 149.484 105.456L149.058 99.4357C149.026 98.972 148.824 98.5411 148.498 98.2365C148.172 97.9318 147.748 97.7782 147.318 97.8089ZM117.802 86.9966C126.979 86.3683 134.935 93.7743 135.622 103.535C136.309 113.296 129.474 121.802 120.304 122.537C111.08 123.277 102.997 115.88 102.303 106.012C101.608 96.1434 108.57 87.6285 117.802 86.9966Z" fill="#D8DEE8"/>
</g>
<g style="mix-blend-mode:multiply" opacity="0.7">
<path d="M136.97 44.423L135.17 44.5539C134.966 43.6967 134.694 42.8603 134.355 42.0544L135.848 40.9737C135.945 40.9031 136.028 40.8126 136.092 40.7072C136.157 40.6019 136.201 40.4839 136.223 40.36C136.244 40.2361 136.243 40.1088 136.219 39.9854C136.195 39.862 136.148 39.745 136.082 39.6412L134.34 36.8783C134.207 36.666 134.002 36.5188 133.769 36.4686C133.536 36.4184 133.294 36.4693 133.095 36.6102L131.582 37.6987C131.006 37.0631 130.382 36.4816 129.715 35.9605L130.513 34.1939C130.615 33.9623 130.628 33.6964 130.55 33.4543C130.471 33.2122 130.306 33.0135 130.092 32.9017L127.288 31.4143C127.182 31.3571 127.067 31.323 126.95 31.3138C126.832 31.3045 126.714 31.3205 126.602 31.3606C126.49 31.4007 126.386 31.4643 126.297 31.5476C126.208 31.6309 126.135 31.7324 126.082 31.8462L125.278 33.6185C124.483 33.3703 123.669 33.1967 122.847 33.0996L122.707 31.1101C122.686 30.8522 122.573 30.613 122.392 30.4434C122.211 30.2738 121.975 30.1871 121.735 30.2017L118.601 30.4011C118.482 30.4076 118.366 30.4394 118.26 30.4948C118.153 30.5501 118.058 30.6279 117.979 30.7236C117.901 30.8192 117.841 30.9308 117.803 31.0517C117.765 31.1727 117.75 31.3006 117.759 31.4279L117.899 33.4206C117.092 33.6254 116.304 33.9057 115.542 34.2583L114.485 32.5965C114.347 32.3809 114.137 32.2316 113.899 32.1803C113.661 32.129 113.414 32.1797 113.21 32.3216L110.587 34.1793C110.487 34.2494 110.402 34.3405 110.335 34.447C110.269 34.5536 110.223 34.6734 110.2 34.7995C110.178 34.9255 110.179 35.0552 110.203 35.1808C110.228 35.3064 110.276 35.4254 110.344 35.5306L111.405 37.193C110.803 37.8063 110.253 38.4752 109.759 39.192L108.059 38.3082C107.841 38.1922 107.589 38.1736 107.358 38.2564C107.127 38.3393 106.936 38.5168 106.825 38.7506L105.437 41.7795C105.384 41.8958 105.354 42.0222 105.347 42.1513C105.341 42.2804 105.358 42.4096 105.398 42.5314C105.439 42.6532 105.501 42.7652 105.582 42.8608C105.662 42.9565 105.76 43.0338 105.868 43.0884L107.553 43.9602C107.322 44.8218 107.162 45.704 107.077 46.5964L105.211 46.732C105.091 46.7392 104.973 46.7722 104.865 46.8289C104.756 46.8857 104.66 46.9651 104.58 47.0625C104.5 47.1599 104.439 47.2734 104.401 47.3965C104.362 47.5195 104.347 47.6496 104.355 47.7792L104.593 51.1547C104.613 51.4167 104.73 51.6592 104.916 51.8292C105.102 51.9991 105.343 52.0827 105.586 52.0615L107.437 51.9212C107.642 52.797 107.92 53.6513 108.267 54.4736L106.745 55.5689C106.645 55.6399 106.559 55.7318 106.492 55.8393C106.425 55.9467 106.379 56.0674 106.357 56.1943C106.334 56.3212 106.335 56.4517 106.36 56.5781C106.385 56.7045 106.433 56.8242 106.502 56.9302L108.299 59.7219C108.439 59.9368 108.652 60.0839 108.892 60.1317C109.132 60.1794 109.379 60.1241 109.582 59.9774L111.092 58.8847C111.686 59.532 112.33 60.122 113.019 60.6481L112.23 62.3885C112.178 62.5042 112.147 62.6299 112.14 62.7584C112.134 62.8869 112.151 63.0155 112.191 63.1368C112.231 63.258 112.293 63.3695 112.373 63.4646C112.454 63.5597 112.551 63.6365 112.659 63.6906L115.516 65.1404C115.735 65.2521 115.986 65.2664 116.214 65.1803C116.443 65.0942 116.631 64.9145 116.738 64.6802L117.515 62.9561C118.331 63.1975 119.164 63.3613 120.006 63.4456L120.14 65.3514C120.15 65.4791 120.183 65.6034 120.237 65.7173C120.292 65.8312 120.366 65.9323 120.457 66.015C120.548 66.0977 120.653 66.1603 120.766 66.1992C120.879 66.238 120.999 66.2524 121.117 66.2415L124.247 65.9755C124.366 65.9666 124.482 65.9324 124.588 65.8751C124.695 65.8178 124.79 65.7385 124.868 65.6415C124.946 65.5446 125.005 65.4321 125.043 65.3103C125.081 65.1886 125.096 65.06 125.087 64.932L124.954 63.0315C125.767 62.8105 126.561 62.5127 127.325 62.1414L128.325 63.7069C128.461 63.9185 128.669 64.0635 128.904 64.1103C129.138 64.1571 129.381 64.1019 129.578 63.9566L132.145 62.0717C132.242 62.0005 132.326 61.9093 132.39 61.8033C132.455 61.6973 132.499 61.5786 132.521 61.454C132.543 61.3294 132.542 61.2014 132.518 61.0774C132.494 60.9533 132.447 60.8355 132.381 60.7309L131.378 59.1559C131.971 58.5329 132.513 57.8548 132.996 57.1297L134.599 57.9585C134.813 58.0692 135.059 58.084 135.283 57.9997C135.507 57.9154 135.69 57.7389 135.794 57.5088L137.129 54.5129C137.231 54.2828 137.245 54.0184 137.166 53.7777C137.088 53.537 136.924 53.3397 136.711 53.2291L135.108 52.3913C135.328 51.538 135.477 50.6652 135.554 49.7834L137.339 49.6483C137.456 49.6396 137.57 49.6062 137.674 49.5498C137.779 49.4935 137.872 49.4154 137.949 49.32C138.025 49.2247 138.083 49.114 138.12 48.9943C138.156 48.8746 138.171 48.7483 138.162 48.6226L137.929 45.3147C137.91 45.0599 137.799 44.8233 137.619 44.6564C137.44 44.4894 137.206 44.4055 136.97 44.423ZM120.743 38.4783C125.788 38.1333 130.162 42.2052 130.539 47.5713C130.917 52.9374 127.159 57.6135 122.119 58.0208C117.047 58.4271 112.603 54.3605 112.222 48.9352C111.84 43.5099 115.667 38.826 120.743 38.4783Z" fill="#D8DEE8"/>
</g>
<path d="M114.571 18.6892L126.064 143.295C126.235 145.151 125.05 146.773 123.426 146.901L67.4232 151.957C64.0096 152.086 62.1673 150.104 61.9832 148.14L49.53 16.2447C49.343 14.2634 51.0483 12.5095 54.4969 12.5854L111.261 15.165C112.91 15.2321 114.397 16.818 114.571 18.6892Z" fill="#97A6B7"/>
<path d="M117.115 18.5302L128.656 143.778C128.828 145.643 127.636 147.274 126.007 147.403L67.9496 151.99C66.1369 152.134 64.4977 150.636 64.3111 148.663L51.8025 16.0679C51.6146 14.0756 52.9721 12.5075 54.814 12.5824L113.793 14.9872C115.449 15.0547 116.942 16.649 117.115 18.5302Z" fill="#CBD0D8"/>
<path d="M115.893 25.4411L126.598 141.527C126.758 143.27 125.645 144.791 124.12 144.908L69.5106 149.092C67.8247 149.221 66.3005 147.823 66.1271 145.985L54.5841 23.5133C54.4092 21.6599 55.6696 20.1912 57.3803 20.2499L112.789 22.151C114.335 22.2044 115.731 23.6845 115.893 25.4411Z" fill="white"/>
<path d="M86.5227 17.7631C86.5854 18.4333 86.1468 18.959 85.542 18.937C84.9373 18.915 84.3957 18.3527 84.3331 17.6804C84.2704 17.0081 84.7105 16.484 85.3157 16.5071C85.9209 16.5301 86.4605 17.0935 86.5227 17.7631Z" fill="white"/>
<g style="mix-blend-mode:overlay" opacity="0.3">
<g style="mix-blend-mode:soft-light" opacity="0.3">
<path d="M81.147 78.8996C75.3767 60.5221 85.4212 51.2632 79.7321 34.2412C76.6357 24.9796 70.4433 18.08 63.6287 12.9405L54.814 12.5824C52.9721 12.5075 51.6146 14.0756 51.8025 16.0679L64.3111 148.662C64.4977 150.636 66.1369 152.133 67.9496 151.99L118.075 148.029C117.918 134.185 114.655 124.331 111.026 117.327C101.053 98.0787 87.1217 97.93 81.147 78.8996Z" fill="#F4F7FA"/>
</g>
</g>
<path d="M114.174 34.8262L140.108 57.984C117.807 68.7943 120.402 101.836 98.1007 112.645L72.167 89.4876C94.4686 78.6768 91.8729 45.6354 114.174 34.8262Z" fill="#97A6B7"/>
<path d="M135.736 57.5885C116.817 69.0799 117.533 98.1012 98.6116 109.593L76.5383 89.8821C95.4569 78.3912 94.7439 49.3699 113.662 37.8784L135.736 57.5885Z" fill="white"/>
<path d="M80.4623 86.4934C80.5594 86.5798 80.6449 86.6625 80.7333 86.7552C80.7406 86.7635 80.7478 86.7709 80.7556 86.7787C81.762 87.8222 82.2341 89.1421 82.1156 90.4045C82.0156 91.5082 81.4604 92.5627 80.4088 93.3407C80.2501 93.457 80.0857 93.564 79.9163 93.6611C79.2587 94.0428 78.5063 94.2947 77.7044 94.4329L72.1672 89.4877C74.4283 88.3949 76.5537 87.0017 78.4941 85.3405C79.1673 85.552 79.8799 85.9729 80.4623 86.4934Z" fill="url(#paint0_linear_619_2413)"/>
<path d="M103.05 106.661C103.657 107.202 104.061 107.798 104.399 108.521C102.467 110.171 100.351 111.556 98.1012 112.643L92.4338 107.582C92.9267 107.076 93.4825 106.647 94.0853 106.307C94.2592 106.206 94.4374 106.111 94.6196 106.022C97.3114 104.691 100.612 104.691 102.813 106.458L102.839 106.479C102.908 106.539 102.983 106.603 103.05 106.661Z" fill="url(#paint1_linear_619_2413)"/>
<path d="M114.174 34.8262L119.711 39.7724C119.219 40.2781 118.663 40.7072 118.06 41.0473C117.886 41.1484 117.708 41.2437 117.526 41.3327C114.861 42.6495 111.609 42.6704 109.408 40.9573C109.305 40.8777 109.221 40.8091 109.124 40.7222C108.541 40.2023 108.07 39.5661 107.842 38.9734C109.784 37.3118 111.911 35.9186 114.174 34.8262Z" fill="#97A6B7"/>
<path d="M134.44 52.9227L140.108 57.9831C137.858 59.0701 135.742 60.4546 133.81 62.1047C132.99 61.7932 132.323 61.4319 131.716 60.89C131.649 60.8298 131.577 60.7628 131.512 60.6984L131.489 60.6759C130.508 59.7004 130.005 58.4679 130.024 57.2611C130.043 56.0542 130.597 54.8699 131.743 54.0222C131.901 53.9048 132.064 53.7968 132.232 53.6987C132.889 53.318 133.64 53.061 134.44 52.9227Z" fill="#97A6B7"/>
<path d="M110.658 64.0852C114.798 67.7822 116.021 75.0013 113.635 80.4297C111.25 85.8582 105.731 87.0572 101.554 83.3272C97.414 79.6308 96.191 72.4112 98.5763 66.9832C100.962 61.5553 106.481 60.3558 110.658 64.0852Z" fill="url(#paint2_linear_619_2413)"/>
<path d="M107.624 70.564C106.895 70.7488 106.142 71.2824 105.271 72.3761L103.43 70.7321C103.454 70.6865 103.478 70.641 103.502 70.596C103.728 70.173 103.996 69.7783 104.303 69.419C104.467 69.2283 104.643 69.0504 104.831 68.8865C105.037 68.7079 105.037 68.321 104.836 68.1011L104.078 67.2791C103.919 67.1079 103.69 67.1027 103.544 67.265C103.295 67.5351 103.05 67.8409 102.825 68.1357C102.515 68.5458 102.231 68.9772 101.973 69.4273L101.329 68.8514C101.141 68.6833 100.895 68.71 100.77 68.9346C100.711 69.0475 100.691 69.1792 100.713 69.3065C100.735 69.4338 100.799 69.5485 100.892 69.6305L101.549 70.2169C101.024 71.3855 100.804 72.4793 100.904 73.4688C101.005 74.4584 101.42 75.2883 102.15 75.9396C102.855 76.5679 103.57 76.7888 104.295 76.6024C105.021 76.4161 105.767 75.8227 106.536 74.8223L108.58 76.659C108.32 77.1502 108.017 77.6135 107.675 78.0423C107.46 78.3097 107.229 78.5616 106.984 78.7962C106.775 78.9962 106.771 79.4031 106.984 79.6287L107.965 80.6759C108 80.7166 108.042 80.749 108.089 80.771C108.136 80.793 108.186 80.8041 108.237 80.8035C108.289 80.803 108.339 80.7908 108.385 80.7678C108.432 80.7449 108.473 80.7115 108.507 80.6701C108.758 80.3747 108.992 80.0633 109.209 79.7376C109.526 79.2578 109.814 78.7566 110.072 78.2371C110.105 78.1706 110.138 78.1041 110.169 78.0376L110.87 78.6627C111.059 78.8313 111.302 78.8072 111.411 78.5659L111.414 78.5585C111.466 78.4407 111.481 78.3076 111.455 78.18C111.43 78.0524 111.366 77.9375 111.273 77.8533L110.563 77.2192C110.9 76.3511 111.087 75.5202 111.115 74.7443C111.13 74.4138 111.115 74.0825 111.071 73.7552C110.925 72.7044 110.48 71.8604 109.742 71.2017C109.057 70.5897 108.35 70.3818 107.624 70.564ZM107.081 74.1097C107.373 73.7866 107.664 73.5599 107.921 73.5055C108.177 73.451 108.429 73.529 108.677 73.7505C108.936 73.974 109.109 74.2939 109.16 74.6474C109.211 74.9972 109.148 75.3705 108.96 75.7872L107.081 74.1097ZM103.973 73.6385C103.74 73.6992 103.513 73.6318 103.293 73.4364C103.064 73.2354 102.917 72.9471 102.881 72.6316C102.837 72.3013 102.906 71.9033 103.035 71.5504L104.726 73.0599C104.449 73.3976 104.205 73.5756 103.971 73.6374L103.973 73.6385Z" fill="white"/>
<g style="mix-blend-mode:multiply" opacity="0.2">
<path d="M140.024 57.9082L140.108 57.9831C117.807 68.7933 120.403 101.835 98.1014 112.644L72.7161 89.9767C74.0422 89.8224 75.3759 89.7562 76.7096 89.7783C78.5261 89.8121 80.3361 90.0211 82.118 90.4029C84.2945 90.8668 86.675 91.6276 89.3134 92.8302C102.347 98.7917 106.092 93.7727 108.353 85.2944C108.974 83.0467 109.509 80.5728 110.159 78.0575C110.445 76.9517 110.764 75.837 111.121 74.7302C111.819 72.5631 112.659 70.4253 113.674 68.4405C116.994 61.6512 122.82 57.0569 130.027 57.2621C131.378 57.2852 132.723 57.4538 134.043 57.7653C134.409 57.8496 134.779 57.9127 135.152 57.9543C136.552 58.1181 138.183 58.0537 140.024 57.9082Z" fill="#CBD0D8"/>
</g>
<path d="M118.28 62.8489C119.054 63.1798 119.455 64.0631 119.171 64.8123L101.255 112.301C100.949 113.108 99.8746 113.689 99.0766 113.331L69.8905 100.249C69.109 99.8987 68.7851 98.6783 69.1066 97.8882L87.1752 51.147C87.4724 50.414 88.335 50.0778 89.0923 50.4014L118.28 62.8489Z" fill="url(#paint3_linear_619_2413)"/>
<path d="M118.757 61.9082C119.534 62.2407 119.939 63.1313 119.652 63.8874L101.407 111.98C101.098 112.793 100.188 113.164 99.3845 112.804L70.0143 99.6476C69.2279 99.2953 68.8486 98.356 69.1735 97.5612L87.434 50.1409C87.7336 49.4 88.6021 49.0613 89.3647 49.3864L118.757 61.9082Z" fill="#CBD0D8"/>
<g opacity="0.7">
<path opacity="0.7" d="M96.7139 94.8131L93.6224 102.618C93.5518 102.788 93.4257 102.924 93.268 103.001C93.1102 103.077 92.9319 103.089 92.767 103.033L90.9441 102.373C90.8663 102.346 90.7946 102.302 90.7337 102.243C90.6728 102.184 90.6242 102.113 90.5909 102.032C90.5576 101.952 90.5404 101.865 90.5405 101.777C90.5406 101.688 90.558 101.601 90.5915 101.521L93.7054 93.7198C93.7762 93.5518 93.9018 93.4176 94.0583 93.3428C94.2148 93.268 94.3914 93.2578 94.5544 93.3141L96.3618 93.9706C96.4389 93.997 96.5099 94.0406 96.5703 94.0986C96.6307 94.1566 96.6791 94.2276 96.7123 94.3071C96.7456 94.3866 96.7629 94.4727 96.7631 94.5599C96.7634 94.6471 96.7466 94.7333 96.7139 94.8131Z" fill="#F4F7FA"/>
<path opacity="0.7" d="M100.782 84.5423L97.7476 92.2044C97.6774 92.3718 97.5525 92.5055 97.3968 92.58C97.241 92.6546 97.0652 92.6647 96.903 92.6086L95.0975 91.9525C95.0209 91.9262 94.9503 91.8828 94.8902 91.8252C94.8302 91.7676 94.782 91.697 94.7489 91.618C94.7158 91.539 94.6984 91.4534 94.698 91.3667C94.6976 91.28 94.7141 91.1942 94.7464 91.1148L97.8035 83.4564C97.8739 83.2912 97.9982 83.1596 98.1528 83.0867C98.3074 83.0138 98.4814 83.0047 98.6418 83.0611L100.432 83.7145C100.508 83.7404 100.578 83.7831 100.637 83.8399C100.697 83.8968 100.745 83.9664 100.778 84.0445C100.811 84.1225 100.828 84.2071 100.829 84.2928C100.83 84.3786 100.814 84.4636 100.782 84.5423Z" fill="#F4F7FA"/>
<path opacity="0.7" d="M104.776 74.4606L101.795 81.9818C101.726 82.1466 101.602 82.2779 101.448 82.3506C101.294 82.4232 101.12 82.4321 100.96 82.3755L99.1726 81.7226C99.0966 81.697 99.0266 81.6545 98.9669 81.5978C98.9073 81.5411 98.8594 81.4714 98.8264 81.3934C98.7934 81.3154 98.776 81.2308 98.7754 81.1451C98.7748 81.0593 98.791 80.9744 98.8228 80.8959L101.825 73.3768C101.895 73.2151 102.018 73.0866 102.17 73.0156C102.322 72.9445 102.493 72.9357 102.65 72.9909L104.423 73.6412C104.498 73.6659 104.569 73.7075 104.628 73.7634C104.688 73.8193 104.736 73.8882 104.77 73.9656C104.803 74.0429 104.821 74.127 104.822 74.2123C104.823 74.2976 104.808 74.3822 104.776 74.4606Z" fill="#F4F7FA"/>
<path opacity="0.7" d="M108.699 64.5556L105.772 71.9437C105.703 72.1063 105.58 72.2355 105.428 72.3065C105.275 72.3774 105.104 72.3851 104.946 72.328L103.176 71.6783C103.101 71.6532 103.032 71.6115 102.973 71.5557C102.914 71.4999 102.866 71.4313 102.833 71.3544C102.8 71.2775 102.783 71.194 102.782 71.1094C102.781 71.0247 102.797 70.9408 102.828 70.8631L105.775 63.4807C105.905 63.1561 106.273 62.987 106.594 63.1048L108.353 63.7503C108.427 63.7752 108.495 63.8165 108.554 63.8716C108.612 63.9267 108.659 63.9944 108.691 64.0703C108.724 64.1461 108.741 64.2285 108.743 64.3121C108.744 64.3957 108.729 64.4786 108.699 64.5556Z" fill="#F4F7FA"/>
</g>
<path d="M87.983 95.3451L86.5259 99.0463C86.2607 99.7201 85.4962 100.027 84.8259 99.7269L81.1831 98.1038C80.5162 97.807 80.1903 97.0148 80.4579 96.3441L81.9301 92.6602C82.1963 91.9937 82.9569 91.6895 83.6209 91.9838L87.2496 93.5917C87.917 93.8854 88.2468 94.6755 87.983 95.3451Z" fill="url(#paint4_linear_619_2413)"/>
<path d="M87.5304 95.4497L86.2777 98.6288C86.032 99.2513 85.3286 99.5341 84.7103 99.2571L81.5828 97.8644C80.966 97.5895 80.6658 96.8607 80.913 96.2413L82.1759 93.0743C82.4217 92.457 83.1221 92.1769 83.737 92.4496L86.8543 93.8313C87.4716 94.1047 87.7747 94.8303 87.5304 95.4497ZM81.0704 96.3104C80.8572 96.8445 81.1156 97.4723 81.6469 97.7089L84.774 99.1016C85.3082 99.3393 85.9125 99.0953 86.1238 98.5592L87.3769 95.3806C87.5872 94.8476 87.3283 94.2225 86.794 93.9868L83.6763 92.6046C83.1463 92.3701 82.5436 92.6114 82.3313 93.1429L81.0704 96.3104Z" fill="url(#paint5_linear_619_2413)"/>
<path d="M81.9998 97.9588L84.0912 92.6974L81.9998 97.9588Z" fill="#F4F7FA"/>
<path d="M84.17 92.7322L82.0785 97.9941L81.9231 97.925L84.0146 92.6636L84.17 92.7322Z" fill="url(#paint6_linear_619_2413)"/>
<path d="M83.1758 98.483L85.2643 93.2174L83.1758 98.483Z" fill="#F4F7FA"/>
<path d="M85.3421 93.2521L83.255 98.5177L83.0991 98.4486L85.1872 93.183L85.3421 93.2521Z" fill="url(#paint7_linear_619_2413)"/>
<path d="M84.3528 99.0065L86.437 93.7367L84.3528 99.0065Z" fill="#F4F7FA"/>
<path d="M86.515 93.7717L84.4313 99.0415L84.2754 98.9724L86.3601 93.7026L86.515 93.7717Z" fill="url(#paint8_linear_619_2413)"/>
<path d="M86.5531 96.0145L85.9702 97.4879C85.8245 97.8628 85.3966 98.0335 85.0245 97.868L82.2948 96.6533C81.9237 96.4884 81.7416 96.0475 81.8902 95.6742L82.4731 94.2045C82.6212 93.8323 83.0457 93.6621 83.4163 93.8265L86.1417 95.036C86.5171 95.2009 86.7007 95.6412 86.5531 96.0145Z" fill="#FEC045"/>
<path d="M86.6318 96.0503L86.0489 97.5242C85.8838 97.9431 85.4107 98.1326 84.9944 97.9478L82.2647 96.7331C81.8494 96.5482 81.6474 96.0582 81.8135 95.6409L82.3964 94.1712C82.5625 93.7523 83.0341 93.5665 83.4484 93.7523L86.1733 94.9613C86.5934 95.1419 86.7965 95.633 86.6318 96.0503ZM81.9689 95.7095C81.8368 96.0409 81.9976 96.4299 82.3269 96.5765L85.0566 97.7912C85.3869 97.9378 85.7624 97.787 85.8935 97.4546L86.4764 95.9812C86.6075 95.6503 86.4453 95.2613 86.1155 95.1152L83.3906 93.9057C83.0613 93.7597 82.6868 93.9099 82.5552 94.2403L81.9689 95.7095Z" fill="url(#paint9_linear_619_2413)"/>
<g style="mix-blend-mode:multiply" opacity="0.15">
<path d="M99.9569 92.7559C98.8927 96.9293 97.9504 99.4708 95.9313 101.908C93.1578 105.255 89.7029 106.78 87.5435 107.5L99.3837 112.804C100.187 113.164 101.097 112.793 101.406 111.981L119.654 63.8875C119.941 63.1314 119.537 62.2408 118.758 61.9084L114.052 59.8994C106.877 65.1708 104.168 70.5484 103.041 74.58C101.677 79.4503 102.484 82.8425 99.9569 92.7559Z" fill="#CBD0D8"/>
</g>
<g style="mix-blend-mode:multiply" opacity="0.42">
<g style="mix-blend-mode:multiply" opacity="0.42">
<path d="M103.274 94.9445L99.1532 105.71C99.1108 105.811 99.033 105.889 98.9368 105.929C98.8407 105.968 98.7341 105.964 98.6403 105.919L96.965 105.173C96.8693 105.133 96.7918 105.055 96.7494 104.954C96.7071 104.854 96.7032 104.739 96.7387 104.636L100.873 93.8853C100.95 93.6837 101.179 93.5915 101.381 93.6806L103.045 94.4136C103.249 94.5052 103.35 94.7429 103.274 94.9445Z" fill="#97A6B7"/>
</g>
<g style="mix-blend-mode:multiply" opacity="0.42">
<path d="M111.237 74.2948L105.753 88.6152C105.711 88.7159 105.633 88.7944 105.537 88.8337C105.441 88.8729 105.335 88.8697 105.241 88.8247L103.566 88.0916C103.518 88.0728 103.475 88.044 103.438 88.007C103.401 87.97 103.371 87.9255 103.35 87.8761C103.329 87.8266 103.317 87.7732 103.315 87.7188C103.313 87.6644 103.321 87.6102 103.339 87.5592L108.842 73.2613C108.919 73.0618 109.146 72.9697 109.348 73.0571L111.009 73.7749C111.211 73.8603 111.313 74.0938 111.237 74.2948Z" fill="#97A6B7"/>
</g>
</g>
<g style="mix-blend-mode:multiply" opacity="0.26">
<path d="M94.2193 57.0256C96.2398 57.8921 97.17 60.411 96.3025 62.631C95.4428 64.83 93.1419 65.9012 91.1583 65.0436C89.1746 64.186 88.2352 61.7194 89.0585 59.5115C89.8867 57.2832 92.1996 56.1611 94.2193 57.0256Z" fill="#CBD0D8"/>
</g>
<g opacity="0.53">
<path opacity="0.53" d="M86.6762 90.5716C86.7391 90.7401 86.738 90.9285 86.6731 91.0961C86.6082 91.2637 86.4847 91.3971 86.3294 91.4674C86.2528 91.5032 86.1704 91.5221 86.087 91.523C86.0035 91.5239 85.9207 91.5068 85.8436 91.4726C85.7664 91.4384 85.6963 91.3879 85.6375 91.3241C85.5787 91.2603 85.5324 91.1844 85.5013 91.1009C85.4403 90.9322 85.4432 90.7444 85.5093 90.578C85.5754 90.4115 85.6995 90.2797 85.8548 90.2109C85.9307 90.1761 86.0122 90.1579 86.0946 90.1572C86.1771 90.1566 86.2588 90.1735 86.3351 90.207C86.4115 90.2406 86.4809 90.29 86.5394 90.3526C86.598 90.4152 86.6444 90.4896 86.6762 90.5716Z" fill="#F4F7FA"/>
<g opacity="0.53">
<path opacity="0.53" d="M89.7434 89.6045C89.7323 89.6354 89.7155 89.6636 89.694 89.6873C89.6726 89.711 89.6469 89.7299 89.6186 89.7427C89.5604 89.7684 89.4953 89.7684 89.4371 89.7428C89.3789 89.7171 89.3325 89.6678 89.3077 89.6056C88.5354 87.6861 86.4707 86.7783 84.6449 87.5537C84.5868 87.5795 84.5217 87.5796 84.4636 87.5541C84.4055 87.5285 84.3591 87.4792 84.3345 87.417C84.3235 87.386 84.3183 87.353 84.3192 87.3198C84.3201 87.2867 84.3272 87.254 84.3399 87.2238C84.3527 87.1936 84.3709 87.1664 84.3934 87.1439C84.416 87.1213 84.4425 87.1038 84.4715 87.0924C86.5314 86.2243 88.8604 87.2495 89.7376 89.4097C89.7504 89.4402 89.7575 89.4731 89.7585 89.5065C89.7595 89.5399 89.7544 89.5732 89.7434 89.6045Z" fill="#F4F7FA"/>
<path opacity="0.53" d="M88.8766 89.9989C88.8652 90.0301 88.848 90.0585 88.8263 90.0825C88.8045 90.1065 88.7785 90.1256 88.7499 90.1387C88.6914 90.1649 88.6256 90.1652 88.567 90.1392C88.5083 90.1133 88.4616 90.0634 88.4371 90.0005C87.8736 88.5758 86.3456 87.903 84.9977 88.4858C84.9393 88.5119 84.8737 88.5121 84.8152 88.4863C84.7567 88.4605 84.7101 88.4108 84.6854 88.3481C84.6742 88.3167 84.6689 88.2833 84.6698 88.2497C84.6706 88.2162 84.6776 88.1831 84.6903 88.1525C84.703 88.1218 84.7213 88.0942 84.7439 88.0711C84.7666 88.0481 84.7933 88.0301 84.8224 88.0182C86.4092 87.3376 88.2068 88.1287 88.8742 89.8026C88.8866 89.8335 88.8932 89.8668 88.8936 89.9005C88.894 89.9342 88.8883 89.9676 88.8766 89.9989Z" fill="#F4F7FA"/>
<path opacity="0.53" d="M87.9983 90.3983C87.9802 90.4457 87.9494 90.4863 87.9099 90.5149C87.8704 90.5435 87.8239 90.5587 87.7763 90.5587C87.7287 90.5587 87.6822 90.5435 87.6427 90.5149C87.6031 90.4863 87.5724 90.4457 87.5543 90.3983C87.3802 89.9561 87.0511 89.6059 86.6386 89.4241C86.2261 89.2423 85.7637 89.2435 85.3521 89.4276C85.3232 89.4401 85.2923 89.4465 85.2612 89.4462C85.2301 89.4459 85.1993 89.439 85.1706 89.4259C85.142 89.4128 85.116 89.3938 85.0942 89.3698C85.0723 89.3459 85.0551 89.3176 85.0434 89.2865C85.0317 89.2554 85.0259 89.2221 85.0261 89.1885C85.0264 89.1549 85.0328 89.1218 85.0449 89.0909C85.0571 89.06 85.0748 89.032 85.097 89.0084C85.1192 88.9849 85.1455 88.9663 85.1743 88.9537C85.7044 88.7197 86.2986 88.7197 86.8287 88.9537C87.0899 89.0679 87.3277 89.2368 87.5281 89.4504C87.7286 89.6641 87.8879 89.9185 87.9968 90.1988C88.0217 90.2625 88.0222 90.3342 87.9983 90.3983Z" fill="#F4F7FA"/>
</g>
</g>
<path d="M95.6355 85.9828C95.6355 94.5736 89.4033 101.332 81.4381 101.069C73.1489 100.794 66.177 93.0767 66.177 83.8429C66.177 74.6092 73.1489 67.9042 81.4381 68.8346C89.4033 69.7273 95.6355 77.393 95.6355 85.9828Z" fill="url(#paint10_linear_619_2413)"/>
<path d="M97.7879 85.242C97.7879 93.8334 91.5557 100.592 83.591 100.328C75.3013 100.053 68.3303 92.3359 68.3303 83.1C68.3303 73.8642 75.3018 67.1613 83.5915 68.0917C91.5557 68.9865 97.7879 76.6506 97.7879 85.242Z" fill="url(#paint11_linear_619_2413)"/>
<path d="M97.1631 85.1942C97.1631 93.407 91.2 99.8543 83.5913 99.5925C75.6868 99.3166 69.05 91.9514 69.05 83.1522C69.05 74.353 75.6868 67.9528 83.5913 68.8256C91.2 69.667 97.1631 76.9834 97.1631 85.1942Z" fill="url(#paint12_linear_619_2413)"/>
<path d="M96.7154 85.164C96.7154 93.1061 90.9456 99.3351 83.5914 99.0691C75.9613 98.7932 69.563 91.6799 69.563 83.1906C69.563 74.7013 75.9613 68.5184 83.5914 69.3514C90.9456 70.1541 96.7154 77.2224 96.7154 85.164Z" fill="url(#paint13_linear_619_2413)"/>
<path d="M83.5157 72.0526C83.7091 72.0772 83.8875 72.1769 84.0177 72.3329C84.148 72.489 84.2211 72.6908 84.2234 72.9007V74.3631C85.0146 74.4589 85.7998 74.6058 86.5747 74.8029C87.1534 74.9495 87.7281 75.124 88.299 75.3265C88.467 75.3867 88.6115 75.5058 88.7094 75.6649C88.8073 75.8239 88.8529 76.0137 88.8391 76.204L88.6725 78.0365C88.6649 78.148 88.6322 78.2558 88.5772 78.3506C88.5222 78.4454 88.4466 78.5242 88.3569 78.5804C88.2672 78.6366 88.1662 78.6683 88.0626 78.6729C87.959 78.6775 87.8559 78.6548 87.7623 78.6067C87.386 78.4259 86.9996 78.2707 86.6053 78.1423C85.8945 77.9128 85.1632 77.7653 84.4235 77.7025L84.2234 77.6847V81.8733C86.2634 82.4885 87.7647 83.3168 88.7332 84.3587C89.7017 85.4006 90.1782 86.6881 90.1782 88.2395C90.1782 89.917 89.6456 91.2609 88.5802 92.271C87.5081 93.2899 86.0016 93.8618 84.0606 93.9868V95.6004C84.0623 95.7004 84.045 95.7997 84.0098 95.8922C83.9745 95.9846 83.9221 96.0684 83.8557 96.1382C83.7893 96.2081 83.7104 96.2625 83.6238 96.2983C83.5372 96.334 83.4447 96.3502 83.352 96.346H83.3389C83.1469 96.3346 82.9663 96.2445 82.834 96.094C82.7018 95.9436 82.628 95.7443 82.6278 95.5371V93.9449L82.3126 93.9297C81.4347 93.8893 80.5601 93.7887 79.6941 93.6286C79.0839 93.5147 78.4799 93.3649 77.8848 93.1799C77.7122 93.1281 77.5615 93.0139 77.4579 92.8563C77.3543 92.6988 77.3042 92.5077 77.316 92.315L77.5103 89.9589C77.5526 89.4494 78.0276 89.1526 78.4769 89.3437C78.9977 89.565 79.5301 89.7529 80.0715 89.9065C80.9046 90.1434 81.7563 90.2967 82.6156 90.3647L82.6283 85.7048C80.6689 85.1812 79.2016 84.4079 78.2374 83.3822C77.2733 82.3566 76.7817 81.0335 76.7817 79.4303C76.7817 77.7709 77.3073 76.4914 78.3584 75.5919C79.4043 74.6984 80.8863 74.2516 82.8046 74.2516V72.7568C82.8022 72.6582 82.8195 72.5602 82.8552 72.4694C82.8909 72.3786 82.9442 72.2971 83.0116 72.2304C83.079 72.1637 83.1588 72.1133 83.2458 72.0826C83.3327 72.0519 83.4248 72.0417 83.5157 72.0526ZM82.8046 77.6433C82.1987 77.6904 81.7266 77.8697 81.3883 78.181C81.0499 78.4924 80.8805 78.9112 80.8802 79.4376C80.8802 79.9361 81.0369 80.3525 81.3504 80.6869C81.6638 81.0213 82.1486 81.2879 82.8046 81.4869V77.6433ZM84.0602 86.0781V90.35C84.7188 90.35 85.2241 90.1807 85.5761 89.8421C85.9281 89.5036 86.1039 89.0241 86.1036 88.4039C86.1036 87.8391 85.9402 87.3705 85.6135 86.9981C85.2868 86.6256 84.7691 86.319 84.0606 86.0781H84.0602Z" fill="url(#paint14_linear_619_2413)"/>
<path style="mix-blend-mode:multiply" opacity="0.3" d="M81.2162 87.1093C81.6597 82.3882 85.6848 80.3897 85.1593 76.0472C84.8358 73.3706 82.9536 71.1151 80.8544 69.3538C74.4867 70.0737 69.563 75.7571 69.563 83.1909C69.563 91.6801 75.9613 98.7934 83.5914 99.0694C84.3156 99.0953 85.0407 99.0571 85.7591 98.9552C82.7288 95.7049 80.8354 91.1634 81.2162 87.1093Z" fill="url(#paint15_linear_619_2413)"/>
<path d="M88.0412 51.7376C88.0412 57.5241 83.8436 62.0756 78.4789 61.8981C72.8961 61.7122 68.2007 56.5147 68.2007 50.2951C68.2007 44.0755 72.8961 39.5618 78.4789 40.1864C83.8436 40.7885 88.0412 45.9505 88.0412 51.7376Z" fill="url(#paint16_linear_619_2413)"/>
<path d="M89.4901 51.2376C89.4901 57.0242 85.293 61.5762 79.9283 61.3982C74.3451 61.2144 69.6497 56.0158 69.6497 49.7962C69.6497 43.5766 74.3451 39.0629 79.9283 39.6875C85.293 40.2896 89.4901 45.4516 89.4901 51.2376Z" fill="url(#paint17_linear_619_2413)"/>
<path d="M89.0701 51.2073C89.0701 56.7389 85.0537 61.083 79.929 60.9039C74.605 60.7181 70.1355 55.7577 70.1355 49.8313C70.1355 43.905 74.6041 39.5943 79.929 40.1823C85.0533 40.7483 89.0701 45.6757 89.0701 51.2073Z" fill="url(#paint18_linear_619_2413)"/>
<path d="M88.7683 51.1853C88.7683 56.5342 84.8826 60.7301 79.9283 60.5505C74.7905 60.3647 70.4807 55.5739 70.4807 49.8565C70.4807 44.139 74.7905 39.9745 79.9288 40.5331C84.8821 41.0761 88.7683 45.8365 88.7683 51.1853Z" fill="url(#paint19_linear_619_2413)"/>
<path d="M79.8784 42.3551C80.0086 42.3716 80.1288 42.4387 80.2165 42.5439C80.3042 42.649 80.3534 42.785 80.3549 42.9263V43.9112C80.8877 43.9756 81.4165 44.0746 81.9383 44.2075C82.3269 44.3059 82.714 44.4234 83.0996 44.5599C83.2129 44.6004 83.3102 44.6806 83.3763 44.7878C83.4423 44.8949 83.4731 45.0228 83.4639 45.151L83.3517 46.3856C83.3466 46.4607 83.3245 46.5334 83.2875 46.5972C83.2504 46.6611 83.1994 46.7143 83.139 46.7521C83.0786 46.79 83.0105 46.8114 82.9407 46.8145C82.8708 46.8176 82.8014 46.8023 82.7383 46.7699C82.4856 46.6476 82.226 46.5427 81.9611 46.4558C81.4824 46.3016 80.9899 46.2024 80.4918 46.1599L80.3568 46.1479V48.9684C81.7319 49.3831 82.7417 49.9412 83.3945 50.6438C84.0473 51.3465 84.3659 52.2146 84.3659 53.257C84.3659 54.3869 84.0073 55.2927 83.29 55.9744C82.5676 56.6603 81.5528 57.0456 80.2456 57.1304V58.2174C80.2466 58.2847 80.2349 58.3516 80.2111 58.4139C80.1874 58.4762 80.152 58.5326 80.1073 58.5796C80.0626 58.6267 80.0095 58.6634 79.9512 58.6875C79.8928 58.7117 79.8305 58.7227 79.7681 58.72H79.7599C79.6305 58.7124 79.5087 58.6517 79.4196 58.5503C79.3304 58.4489 79.2806 58.3146 79.2805 58.175V57.1011L79.0682 57.0906C78.4769 57.0634 77.8879 56.9957 77.3046 56.888C76.8936 56.8113 76.4867 56.7105 76.0859 56.5859C75.9694 56.5507 75.8678 56.4732 75.7982 56.3666C75.7285 56.2599 75.6951 56.1306 75.7037 56.0006L75.8358 54.4131C75.8644 54.0701 76.184 53.8701 76.4871 53.9989C76.8372 54.148 77.1952 54.2748 77.5591 54.3785C78.1202 54.5382 78.6939 54.6415 79.2727 54.6869L79.2809 51.5496C77.9611 51.1971 76.9754 50.6756 76.3239 49.9852C75.6724 49.2948 75.3459 48.4075 75.3442 47.3233C75.3442 46.2064 75.6983 45.3447 76.4065 44.7384C77.1098 44.1358 78.1099 43.8363 79.3999 43.8368V42.83C79.3983 42.7636 79.4098 42.6975 79.4338 42.6364C79.4577 42.5752 79.4936 42.5202 79.5389 42.4752C79.5843 42.4302 79.638 42.3962 79.6966 42.3755C79.7551 42.3548 79.8171 42.3478 79.8784 42.3551ZM79.3995 46.1196C78.9915 46.1521 78.6736 46.273 78.446 46.4825C78.2184 46.6919 78.105 46.9741 78.106 47.3291C78.1023 47.4852 78.1286 47.6406 78.1831 47.7853C78.2376 47.9301 78.3191 48.0612 78.4227 48.1705C78.6335 48.3949 78.9599 48.5743 79.4019 48.7087L79.3995 46.1196ZM80.2456 51.8009V54.678C80.6892 54.678 81.0292 54.564 81.2656 54.3361C81.502 54.1082 81.6203 53.7853 81.6206 53.3675C81.6206 52.987 81.5105 52.6713 81.2903 52.4203C81.0702 52.1694 80.7219 51.9629 80.2456 51.8009Z" fill="url(#paint20_linear_619_2413)"/>
<path style="mix-blend-mode:multiply" opacity="0.3" d="M78.3294 52.4952C78.6281 49.3155 81.3408 47.9694 80.9848 45.0447C80.7667 43.2421 79.4995 41.7232 78.0855 40.5367C73.7967 41.0216 70.4807 44.8494 70.4807 49.8564C70.4807 55.5739 74.79 60.3646 79.9288 60.5504C80.4166 60.568 80.9049 60.5424 81.3889 60.474C79.3479 58.2823 78.0724 55.2267 78.3294 52.4952Z" fill="url(#paint21_linear_619_2413)"/>
<path d="M118.981 95.0658L122.18 135.333C122.263 136.372 121.97 137.348 121.354 138.046C120.818 138.671 120.085 139.057 119.299 139.129L72.1698 143.408C70.1731 143.589 68.4629 142.058 68.321 140.004L65.3582 97.1638C65.2188 95.1475 66.7026 93.394 68.6878 93.3228L115.525 91.6809C117.305 91.6212 118.83 93.1694 118.981 95.0658Z" fill="#FC4041"/>
<g style="mix-blend-mode:multiply" opacity="0.2">
<path d="M121.408 138.046C120.864 138.671 120.125 139.057 119.333 139.129L72.1873 143.408C70.1906 143.589 68.4643 142.059 68.3225 140.005L65.3597 97.1639C65.2203 95.1476 66.7041 93.3942 68.6892 93.323L69.2347 93.3036C69.4324 94.4094 69.6976 95.6513 69.9511 96.8424C69.9861 97.0079 70.022 97.187 70.057 97.3456C70.3484 98.7205 70.6029 99.8514 70.6476 99.997C72.1174 104.741 74.1933 110.192 78.5847 112.843C85.2924 116.899 93.7851 116.17 100.839 118.391C105.484 119.853 110.253 121.83 113.949 125.138C116.649 127.555 118.928 130.535 120.263 134.023C120.752 135.326 121.135 136.672 121.408 138.046Z" fill="#97A6B7"/>
</g>
<g opacity="0.7">
<path opacity="0.7" d="M115.531 137.376L113.908 137.485C113.818 137.489 113.729 137.455 113.662 137.39C113.594 137.325 113.552 137.235 113.545 137.137C113.529 136.939 113.665 136.791 113.85 136.775L115.47 136.659C115.748 136.659 116.018 136.541 116.278 136.45C116.318 136.433 116.361 136.426 116.404 136.427C116.447 136.429 116.49 136.44 116.529 136.459C116.569 136.479 116.604 136.506 116.633 136.541C116.662 136.575 116.685 136.615 116.7 136.659C116.758 136.848 116.666 137.078 116.491 137.139C116.181 137.25 115.862 137.376 115.531 137.376ZM111.363 137.674L108.808 137.9C108.763 137.905 108.718 137.9 108.675 137.886C108.632 137.872 108.593 137.849 108.558 137.818C108.524 137.787 108.495 137.749 108.475 137.706C108.454 137.663 108.441 137.617 108.438 137.569C108.434 137.52 108.439 137.472 108.453 137.426C108.467 137.38 108.489 137.338 108.519 137.301C108.548 137.265 108.584 137.235 108.624 137.213C108.664 137.192 108.708 137.179 108.752 137.176L111.308 136.953C111.352 136.95 111.396 136.955 111.438 136.969C111.48 136.984 111.518 137.007 111.552 137.038C111.586 137.069 111.613 137.106 111.634 137.148C111.654 137.19 111.666 137.237 111.67 137.284C111.673 137.331 111.668 137.379 111.655 137.424C111.641 137.469 111.62 137.511 111.591 137.547C111.563 137.583 111.528 137.613 111.489 137.635C111.45 137.657 111.407 137.67 111.363 137.674ZM106.237 138.128L103.651 138.356C103.605 138.365 103.557 138.363 103.511 138.351C103.465 138.339 103.422 138.317 103.384 138.286C103.347 138.255 103.316 138.215 103.293 138.171C103.27 138.126 103.257 138.076 103.253 138.025C103.249 137.974 103.255 137.923 103.27 137.875C103.286 137.827 103.311 137.783 103.343 137.745C103.375 137.708 103.415 137.678 103.458 137.658C103.502 137.638 103.549 137.628 103.596 137.629L106.182 137.403C106.227 137.398 106.272 137.402 106.315 137.416C106.358 137.43 106.398 137.454 106.432 137.485C106.467 137.515 106.495 137.554 106.516 137.597C106.537 137.639 106.55 137.686 106.553 137.735C106.557 137.783 106.552 137.832 106.538 137.878C106.524 137.924 106.501 137.966 106.472 138.003C106.443 138.04 106.407 138.069 106.366 138.091C106.326 138.112 106.282 138.125 106.237 138.128ZM101.05 138.585L98.4334 138.816C98.3432 138.824 98.2538 138.793 98.1849 138.73C98.116 138.667 98.0732 138.577 98.0659 138.479C98.0586 138.382 98.0875 138.286 98.1461 138.212C98.2047 138.137 98.2883 138.091 98.3785 138.083L100.995 137.855C101.041 137.848 101.088 137.851 101.132 137.864C101.177 137.877 101.219 137.9 101.255 137.931C101.291 137.963 101.321 138.001 101.343 138.045C101.364 138.09 101.378 138.138 101.381 138.188C101.385 138.238 101.379 138.288 101.364 138.335C101.35 138.382 101.326 138.426 101.295 138.463C101.264 138.5 101.226 138.53 101.184 138.551C101.142 138.571 101.096 138.583 101.05 138.584V138.585ZM95.8003 139.049L93.1502 139.28C93.0597 139.287 92.97 139.256 92.9008 139.193C92.8317 139.129 92.7888 139.039 92.7816 138.941C92.7744 138.843 92.8034 138.747 92.8624 138.672C92.9213 138.598 93.0053 138.551 93.0958 138.544L95.7444 138.312C95.7891 138.308 95.834 138.314 95.8766 138.329C95.9192 138.344 95.9587 138.367 95.9928 138.399C96.0269 138.43 96.055 138.468 96.0754 138.511C96.0957 138.554 96.1081 138.601 96.1116 138.649C96.1152 138.697 96.11 138.746 96.0962 138.792C96.0824 138.838 96.0603 138.88 96.0313 138.917C96.0022 138.954 95.9668 138.984 95.9269 139.006C95.887 139.028 95.8435 139.041 95.7988 139.045L95.8003 139.049ZM90.4871 139.52L87.8074 139.751C87.7615 139.756 87.7151 139.752 87.6708 139.737C87.6266 139.723 87.5855 139.699 87.55 139.668C87.5144 139.636 87.4851 139.597 87.4639 139.553C87.4426 139.508 87.4298 139.46 87.4262 139.41C87.4226 139.361 87.4283 139.311 87.4429 139.264C87.4575 139.217 87.4807 139.173 87.5113 139.136C87.5418 139.098 87.5789 139.068 87.6205 139.046C87.6622 139.025 87.7074 139.012 87.7535 139.01L90.4341 138.776C90.5249 138.768 90.6149 138.8 90.6842 138.864C90.7534 138.927 90.7964 139.018 90.8035 139.116C90.8107 139.214 90.7814 139.311 90.7223 139.386C90.6631 139.46 90.5789 139.507 90.488 139.514L90.4871 139.52ZM85.1092 139.994L82.3956 140.234C82.3489 140.241 82.3015 140.237 82.2562 140.223C82.211 140.209 82.1689 140.185 82.1324 140.153C82.0959 140.121 82.0658 140.081 82.044 140.036C82.0222 139.991 82.0091 139.942 82.0054 139.892C82.0018 139.841 82.0078 139.79 82.0229 139.742C82.0381 139.694 82.0621 139.65 82.0936 139.612C82.1251 139.575 82.1634 139.544 82.2061 139.523C82.2488 139.502 82.2951 139.49 82.3421 139.489L85.0553 139.251C85.1014 139.246 85.1479 139.251 85.1923 139.265C85.2366 139.279 85.2779 139.303 85.3135 139.335C85.3492 139.367 85.3785 139.406 85.3998 139.45C85.4211 139.495 85.434 139.543 85.4376 139.593C85.4412 139.643 85.4355 139.693 85.4208 139.74C85.4062 139.787 85.3828 139.831 85.3522 139.869C85.3216 139.906 85.2843 139.936 85.2426 139.958C85.2008 139.98 85.1555 139.992 85.1092 139.994ZM79.6654 140.475L76.9182 140.717C76.8717 140.722 76.8248 140.717 76.7802 140.703C76.7355 140.688 76.6939 140.664 76.6578 140.633C76.6217 140.601 76.5918 140.561 76.5698 140.517C76.5478 140.473 76.5341 140.424 76.5296 140.374C76.5248 140.272 76.5575 140.172 76.6206 140.096C76.6837 140.02 76.7721 139.973 76.8667 139.967L79.6134 139.727C79.6598 139.722 79.7066 139.727 79.7513 139.741C79.7959 139.756 79.8375 139.779 79.8736 139.811C79.9098 139.843 79.9397 139.882 79.9617 139.926C79.9837 139.971 79.9974 140.019 80.002 140.069C80.0059 140.17 79.9729 140.269 79.9099 140.344C79.847 140.419 79.7591 140.465 79.6654 140.471V140.475ZM74.1549 140.874C74.1302 140.877 74.1053 140.877 74.0806 140.874C73.0819 140.756 72.1468 140.287 71.4194 139.54C71.3859 139.506 71.3593 139.464 71.3413 139.418C71.3234 139.372 71.3144 139.322 71.3149 139.272C71.3155 139.222 71.3255 139.172 71.3445 139.127C71.3635 139.081 71.391 139.04 71.4252 139.006C71.4959 138.935 71.589 138.895 71.6858 138.895C71.7826 138.895 71.8757 138.935 71.9464 139.006C72.5568 139.629 73.3397 140.019 74.1753 140.117C74.2219 140.122 74.2672 140.136 74.3085 140.16C74.3499 140.183 74.3864 140.215 74.4159 140.255C74.4454 140.294 74.4673 140.339 74.4803 140.387C74.4933 140.436 74.4971 140.486 74.4915 140.536C74.4788 140.625 74.4386 140.706 74.3774 140.767C74.3163 140.827 74.2378 140.864 74.1549 140.87V140.874ZM118.37 135.496C118.308 135.502 118.244 135.488 118.188 135.457C118.133 135.425 118.086 135.377 118.054 135.318C118.023 135.259 118.007 135.192 118.009 135.124C118.012 135.056 118.032 134.99 118.067 134.934C118.493 134.241 118.688 133.413 118.62 132.585C118.616 132.539 118.621 132.492 118.634 132.447C118.647 132.402 118.668 132.361 118.696 132.325C118.724 132.29 118.758 132.26 118.797 132.239C118.836 132.218 118.878 132.205 118.921 132.201C119.009 132.194 119.096 132.225 119.163 132.286C119.23 132.348 119.272 132.436 119.279 132.53C119.361 133.517 119.129 134.505 118.622 135.331C118.594 135.377 118.557 135.415 118.513 135.443C118.47 135.471 118.421 135.488 118.37 135.492V135.496ZM70.5388 137.105C70.3411 137.122 70.1609 136.983 70.1395 136.78C70.1337 136.724 70.123 136.675 70.1191 136.62L69.9316 133.918C69.9171 133.709 70.039 133.526 70.242 133.51C70.2872 133.505 70.3328 133.51 70.376 133.525C70.4191 133.541 70.459 133.565 70.493 133.597C70.5271 133.63 70.5546 133.669 70.5738 133.714C70.593 133.758 70.6036 133.806 70.6049 133.855L70.7928 136.554C70.7962 136.601 70.8375 136.643 70.8414 136.69C70.848 136.739 70.8451 136.789 70.8329 136.837C70.8207 136.885 70.7994 136.93 70.7704 136.969C70.7415 137.008 70.7054 137.04 70.6645 137.063C70.6235 137.086 70.5786 137.1 70.5325 137.104C70.5286 137.1 70.5432 137.101 70.5388 137.101V137.105ZM118.905 131.56C118.723 131.575 118.625 131.428 118.609 131.231L118.396 128.531C118.381 128.335 118.454 128.165 118.636 128.149C118.818 128.133 118.916 128.282 118.932 128.478L119.145 131.176C119.16 131.368 119.087 131.541 118.905 131.555V131.56ZM70.0963 131.411C70.051 131.416 70.0054 131.41 69.9621 131.395C69.9189 131.38 69.879 131.355 69.8449 131.323C69.8109 131.29 69.7833 131.251 69.7641 131.206C69.7448 131.162 69.7343 131.114 69.733 131.065L69.5348 128.214C69.5207 128.005 69.6422 127.825 69.8457 127.81C69.8909 127.806 69.9365 127.812 69.9796 127.827C70.0227 127.842 70.0624 127.867 70.0963 127.9C70.1302 127.932 70.1577 127.972 70.1769 128.016C70.1961 128.06 70.2067 128.108 70.208 128.157L70.4062 131.005C70.4188 131.208 70.2993 131.391 70.0963 131.407V131.411ZM118.48 126.165C118.298 126.178 118.199 126.031 118.184 125.834L117.971 123.14C117.956 122.944 118.029 122.773 118.211 122.761C118.393 122.748 118.491 122.896 118.507 123.092L118.719 125.784C118.735 125.976 118.662 126.147 118.48 126.16V126.165ZM69.7 125.711C69.6547 125.716 69.6091 125.71 69.5659 125.694C69.5228 125.679 69.483 125.654 69.449 125.622C69.415 125.589 69.3876 125.549 69.3683 125.505C69.3491 125.461 69.3385 125.413 69.3371 125.364L69.1395 122.519C69.1249 122.31 69.2468 122.132 69.4498 122.118C69.4951 122.114 69.5407 122.12 69.5837 122.136C69.6268 122.152 69.6665 122.176 69.7004 122.209C69.7343 122.242 69.7617 122.281 69.7809 122.326C69.8001 122.37 69.8107 122.418 69.8122 122.467L70.0099 125.309C70.0244 125.516 69.903 125.697 69.7 125.711ZM118.055 120.777C117.873 120.789 117.774 120.64 117.759 120.445L117.547 117.756C117.532 117.56 117.605 117.389 117.787 117.38C117.969 117.371 118.067 117.517 118.082 117.713L118.295 120.399C118.31 120.595 118.237 120.764 118.055 120.777ZM69.3046 120.028C69.2592 120.032 69.2136 120.026 69.1705 120.01C69.1274 119.995 69.0877 119.97 69.0538 119.937C69.0199 119.904 68.9925 119.865 68.9732 119.82C68.954 119.776 68.9433 119.728 68.9418 119.679L68.7446 116.841C68.7305 116.631 68.8519 116.456 69.0549 116.443C69.1003 116.44 69.1458 116.446 69.1889 116.462C69.2319 116.478 69.2715 116.503 69.3053 116.536C69.3391 116.568 69.3664 116.608 69.3856 116.653C69.4047 116.697 69.4153 116.745 69.4168 116.794L69.6145 119.629C69.6291 119.836 69.5076 120.015 69.3046 120.028ZM117.63 115.405C117.448 115.416 117.35 115.266 117.334 115.071L117.123 112.388C117.108 112.192 117.181 112.026 117.363 112.015C117.544 112.004 117.642 112.154 117.658 112.35L117.87 115.03C117.886 115.225 117.813 115.392 117.63 115.405ZM68.9097 114.357C68.8644 114.361 68.819 114.354 68.7761 114.338C68.7332 114.322 68.6938 114.297 68.66 114.264C68.6263 114.231 68.599 114.192 68.5798 114.147C68.5605 114.103 68.5496 114.055 68.5479 114.006L68.3507 111.174C68.3366 110.968 68.458 110.791 68.661 110.78C68.7064 110.777 68.752 110.784 68.7949 110.8C68.8379 110.816 68.8774 110.841 68.9112 110.874C68.9449 110.907 68.9722 110.947 68.9914 110.992C69.0106 111.036 69.0213 111.084 69.0229 111.133L69.2172 113.961C69.2342 114.168 69.1127 114.346 68.9097 114.357ZM117.208 110.042C117.026 110.052 116.928 109.901 116.913 109.707L116.702 107.028C116.686 106.834 116.759 106.669 116.941 106.662C117.124 106.655 117.221 106.803 117.236 106.998L117.448 109.674C117.463 109.866 117.39 110.032 117.208 110.042ZM68.5163 108.699C68.4708 108.702 68.4253 108.696 68.3823 108.679C68.3392 108.663 68.2997 108.638 68.2659 108.605C68.2322 108.572 68.2049 108.532 68.1858 108.488C68.1666 108.443 68.156 108.395 68.1544 108.346L67.9601 105.518C67.9461 105.313 68.0675 105.138 68.2705 105.128C68.316 105.125 68.3616 105.132 68.4046 105.148C68.4476 105.165 68.4872 105.19 68.5209 105.223C68.5546 105.256 68.5818 105.296 68.6009 105.341C68.6199 105.385 68.6305 105.434 68.6319 105.483L68.8286 108.306C68.8403 108.513 68.7188 108.689 68.5163 108.699ZM116.786 104.691C116.604 104.7 116.506 104.549 116.491 104.354L116.28 101.684C116.265 101.49 116.338 101.326 116.52 101.317C116.702 101.308 116.799 101.461 116.815 101.655L117.026 104.325C117.041 104.518 116.968 104.682 116.786 104.691ZM68.1233 103.053C68.0778 103.056 68.0323 103.049 67.9894 103.033C67.9464 103.016 67.907 102.99 67.8733 102.957C67.8396 102.924 67.8124 102.884 67.7932 102.84C67.774 102.795 67.7632 102.747 67.7615 102.698L67.6158 100.576C67.5999 100.324 67.6048 100.07 67.6303 99.8183C67.6493 99.6141 67.8324 99.4706 68.034 99.4942C68.2355 99.5177 68.3487 99.7036 68.3298 99.9094C68.3108 100.115 68.272 100.333 68.287 100.545L68.4327 102.665C68.4473 102.87 68.3259 103.044 68.1233 103.053ZM116.367 99.3512C116.186 99.3591 116.087 99.2067 116.072 99.0119L116.031 98.4957C115.979 97.8365 115.713 97.1983 115.355 96.649C115.249 96.4857 115.258 96.2684 115.407 96.1626C115.555 96.0569 115.736 96.104 115.844 96.2673C116.262 96.9197 116.511 97.6801 116.567 98.4706L116.607 98.9868C116.619 99.1805 116.546 99.3428 116.367 99.3512ZM69.1618 97.7554C69.0592 97.7598 68.9591 97.7203 68.8835 97.6454C68.8489 97.6131 68.821 97.5735 68.8015 97.5289C68.7819 97.4844 68.7712 97.436 68.77 97.3867C68.7687 97.3375 68.777 97.2885 68.7943 97.2429C68.8116 97.1973 68.8375 97.1561 68.8704 97.1218C69.5898 96.3912 70.5131 95.9377 71.4966 95.8317C71.591 95.8205 71.6858 95.8478 71.7623 95.9083C71.8389 95.9688 71.8916 96.0581 71.91 96.1584C71.9161 96.2074 71.9129 96.2571 71.9005 96.3046C71.8881 96.3522 71.8668 96.3964 71.8379 96.4347C71.809 96.473 71.7731 96.5045 71.7324 96.5272C71.6918 96.5499 71.6472 96.5634 71.6015 96.5668C70.7774 96.6564 70.0039 97.037 69.4013 97.6496C69.3354 97.7157 69.2493 97.7534 69.1594 97.7554H69.1618ZM113.592 95.1945C113.551 95.1959 113.51 95.1895 113.472 95.1757C113.068 95.0296 112.643 94.9633 112.217 94.9799L111.091 95.0239C111.002 95.0267 110.915 94.9932 110.848 94.9299C110.781 94.8667 110.739 94.7784 110.73 94.683C110.726 94.637 110.731 94.5907 110.745 94.5468C110.758 94.503 110.78 94.4627 110.809 94.4283C110.837 94.3939 110.872 94.3662 110.911 94.347C110.95 94.3278 110.992 94.3174 111.035 94.3165L112.162 94.2741C112.67 94.2547 113.176 94.3342 113.658 94.5087C113.742 94.5372 113.812 94.5999 113.854 94.6834C113.896 94.7669 113.907 94.8648 113.883 94.9563C113.864 95.0239 113.825 95.0833 113.773 95.1261C113.721 95.1688 113.658 95.1928 113.592 95.1945ZM108.564 95.1218L106.023 95.2202C105.933 95.2236 105.846 95.1901 105.778 95.1265C105.71 95.0629 105.668 94.974 105.659 94.8778C105.656 94.8315 105.661 94.7851 105.675 94.7412C105.689 94.6973 105.711 94.657 105.74 94.6227C105.769 94.5884 105.804 94.5608 105.843 94.5416C105.882 94.5225 105.925 94.5121 105.968 94.5113L108.509 94.4149C108.598 94.4118 108.685 94.4453 108.752 94.5087C108.819 94.5721 108.862 94.6606 108.87 94.7563C108.874 94.8024 108.869 94.8489 108.855 94.8928C108.842 94.9368 108.82 94.9772 108.791 95.0116C108.762 95.046 108.727 95.0737 108.688 95.0929C108.649 95.1122 108.607 95.1225 108.564 95.1233V95.1218ZM103.466 95.3192L100.892 95.4186C100.802 95.4223 100.713 95.3887 100.645 95.3247C100.577 95.2607 100.534 95.1711 100.525 95.0741C100.521 95.0273 100.527 94.9802 100.541 94.9357C100.555 94.8913 100.578 94.8504 100.607 94.8157C100.636 94.781 100.672 94.7532 100.712 94.734C100.752 94.7147 100.795 94.7045 100.838 94.704L103.409 94.6066C103.499 94.603 103.587 94.6365 103.655 94.7001C103.723 94.7638 103.766 94.853 103.775 94.9495C103.778 94.996 103.773 95.0429 103.76 95.0872C103.746 95.1315 103.724 95.1722 103.695 95.207C103.666 95.2418 103.631 95.2698 103.592 95.2894C103.552 95.3089 103.51 95.3196 103.466 95.3207V95.3192ZM98.308 95.5192L95.7056 95.6197C95.6145 95.6237 95.5254 95.5901 95.4565 95.5258C95.3876 95.4615 95.3439 95.3713 95.3345 95.2736C95.3311 95.2263 95.3368 95.1788 95.3511 95.1339C95.3655 95.0891 95.3882 95.0479 95.418 95.013C95.4477 94.978 95.4838 94.95 95.524 94.9307C95.5642 94.9114 95.6077 94.9012 95.6517 94.9008L98.2536 94.8019C98.3444 94.7982 98.433 94.8318 98.5016 94.896C98.5701 94.9602 98.6135 95.0501 98.6228 95.1474C98.6265 95.1946 98.6211 95.2421 98.607 95.2869C98.5929 95.3317 98.5704 95.3729 98.5408 95.4079C98.5113 95.443 98.4754 95.4711 98.4353 95.4905C98.3953 95.5099 98.3519 95.5202 98.308 95.5207V95.5192ZM93.0881 95.7213L90.455 95.826C90.3631 95.8301 90.2731 95.7964 90.2033 95.7316C90.1336 95.6669 90.0893 95.5759 90.0796 95.4773C90.0765 95.4295 90.0826 95.3816 90.0973 95.3365C90.1121 95.2913 90.1353 95.2499 90.1654 95.2148C90.1956 95.1797 90.2321 95.1516 90.2727 95.1323C90.3133 95.113 90.3572 95.1028 90.4016 95.1024L93.0346 95.0024C93.1262 94.9984 93.2157 95.0321 93.2849 95.0967C93.3542 95.1613 93.3981 95.2518 93.4077 95.35C93.4107 95.3975 93.4047 95.4451 93.3901 95.4899C93.3755 95.5348 93.3525 95.5759 93.3225 95.6108C93.2926 95.6457 93.2564 95.6737 93.216 95.6929C93.1757 95.7122 93.1322 95.7224 93.0881 95.7228V95.7213ZM87.8074 95.9275L85.1423 96.0323C85.0496 96.0368 84.9587 96.0032 84.8883 95.9381C84.8178 95.873 84.773 95.7814 84.7629 95.682C84.76 95.6338 84.7663 95.5854 84.7813 95.5399C84.7964 95.4944 84.8199 95.4526 84.8505 95.4173C84.8811 95.3819 84.918 95.3537 84.9591 95.3343C85.0002 95.3149 85.0445 95.3047 85.0893 95.3045L87.754 95.2034C87.8462 95.199 87.9366 95.2327 88.0066 95.2976C88.0766 95.3625 88.1211 95.4537 88.1309 95.5527C88.1338 95.6005 88.1276 95.6485 88.1127 95.6937C88.0978 95.7388 88.0745 95.7802 88.0442 95.8153C88.0139 95.8505 87.9772 95.8785 87.9365 95.8978C87.8958 95.9171 87.8519 95.9272 87.8074 95.9275ZM82.4611 96.137L79.764 96.2417C79.6705 96.2467 79.5787 96.213 79.5075 96.1475C79.4362 96.082 79.3909 95.9897 79.3807 95.8893C79.378 95.8406 79.3844 95.7919 79.3998 95.746C79.4152 95.7001 79.4391 95.6581 79.47 95.6225C79.501 95.5869 79.5384 95.5586 79.58 95.5392C79.6215 95.5198 79.6663 95.5098 79.7115 95.5097L82.4087 95.405C82.5017 95.4003 82.5929 95.434 82.6637 95.4993C82.7344 95.5646 82.7794 95.6565 82.7895 95.7563C82.7927 95.8051 82.7865 95.854 82.7714 95.9001C82.7563 95.9462 82.7325 95.9884 82.7015 96.0241C82.6706 96.0598 82.6331 96.0883 82.5915 96.1077C82.5499 96.1271 82.505 96.1371 82.4597 96.137H82.4611ZM77.0503 96.3464L74.3201 96.4511C74.2255 96.4568 74.1326 96.4233 74.0603 96.3573C73.988 96.2914 73.9419 96.1981 73.9315 96.0967C73.9289 96.0475 73.9357 95.9983 73.9514 95.9521C73.967 95.9058 73.9913 95.8635 74.0227 95.8277C74.0541 95.7919 74.0919 95.7634 74.1338 95.744C74.1758 95.7245 74.221 95.7144 74.2666 95.7145L76.9968 95.6097C77.0907 95.6047 77.1828 95.6385 77.2544 95.7042C77.326 95.7698 77.3716 95.8625 77.382 95.9632C77.3849 96.0123 77.3785 96.0615 77.3631 96.1078C77.3476 96.1542 77.3236 96.1966 77.2924 96.2325C77.2611 96.2684 77.2234 96.2971 77.1815 96.3167C77.1396 96.3362 77.0945 96.3464 77.0488 96.3464H77.0503Z" fill="white"/>
</g>
<path d="M120.88 106.155C120.742 106.062 120.585 106.006 120.423 105.993C120.261 105.979 120.098 106.008 119.949 106.076L110.365 110.496C108.99 111.137 108.052 112.637 108.176 114.252L108.507 118.545C108.639 120.263 109.928 121.698 111.507 122.073L121.425 124.41C121.581 124.447 121.742 124.445 121.897 124.403C122.051 124.362 122.195 124.282 122.316 124.171C122.436 124.06 122.53 123.92 122.591 123.763C122.651 123.606 122.677 123.436 122.665 123.266L121.37 107.027C121.358 106.851 121.307 106.679 121.222 106.528C121.137 106.376 121.02 106.249 120.88 106.155Z" fill="#E33A3A"/>
<path d="M114.548 115.91C114.571 116.191 114.541 116.474 114.46 116.743C114.378 117.011 114.248 117.259 114.076 117.472C113.904 117.685 113.694 117.858 113.459 117.982C113.223 118.106 112.967 118.177 112.706 118.192C111.591 118.265 110.611 117.358 110.52 116.164C110.497 115.882 110.528 115.598 110.61 115.33C110.692 115.061 110.823 114.812 110.996 114.599C111.169 114.386 111.38 114.213 111.616 114.09C111.853 113.967 112.11 113.897 112.372 113.884C113.481 113.816 114.455 114.724 114.548 115.91Z" fill="#F2F4F8"/>
<defs>
<linearGradient id="paint0_linear_619_2413" x1="-27626" y1="12306.9" x2="-9155.82" y2="20422.2" gradientUnits="userSpaceOnUse">
<stop stop-color="#AA80F9"/>
<stop offset="1" stop-color="#6165D7"/>
</linearGradient>
<linearGradient id="paint1_linear_619_2413" x1="-31238.9" y1="19902.6" x2="-15276.9" y2="28320.6" gradientUnits="userSpaceOnUse">
<stop stop-color="#AA80F9"/>
<stop offset="1" stop-color="#6165D7"/>
</linearGradient>
<linearGradient id="paint2_linear_619_2413" x1="-41995.6" y1="10846.5" x2="-34085.8" y2="13374.7" gradientUnits="userSpaceOnUse">
<stop stop-color="#AA80F9"/>
<stop offset="1" stop-color="#6165D7"/>
</linearGradient>
<linearGradient id="paint3_linear_619_2413" x1="110.042" y1="50.1204" x2="85.4187" y2="109.844" gradientUnits="userSpaceOnUse">
<stop stop-color="#311944"/>
<stop offset="1" stop-color="#893976"/>
</linearGradient>
<linearGradient id="paint4_linear_619_2413" x1="72.4394" y1="106.802" x2="97.3055" y2="85.0926" gradientUnits="userSpaceOnUse">
<stop stop-color="#F68252"/>
<stop offset="0.04" stop-color="#F99A4D"/>
<stop offset="0.08" stop-color="#FCAD49"/>
<stop offset="0.13" stop-color="#FEBA46"/>
<stop offset="0.2" stop-color="#FFC244"/>
<stop offset="0.32" stop-color="#FFC444"/>
<stop offset="0.45" stop-color="#FDB946"/>
<stop offset="0.69" stop-color="#F99C4C"/>
<stop offset="1" stop-color="#F36F56"/>
</linearGradient>
<linearGradient id="paint5_linear_619_2413" x1="-22451.9" y1="34607.3" x2="-22200.3" y2="33777.4" gradientUnits="userSpaceOnUse">
<stop stop-color="#FF9085"/>
<stop offset="1" stop-color="#FB6FBB"/>
</linearGradient>
<linearGradient id="paint6_linear_619_2413" x1="-11327.5" y1="10169.4" x2="-11251.3" y2="9918.08" gradientUnits="userSpaceOnUse">
<stop stop-color="#FF9085"/>
<stop offset="1" stop-color="#FB6FBB"/>
</linearGradient>
<linearGradient id="paint7_linear_619_2413" x1="-11201.7" y1="10189.7" x2="-11125.6" y2="9938.69" gradientUnits="userSpaceOnUse">
<stop stop-color="#FF9085"/>
<stop offset="1" stop-color="#FB6FBB"/>
</linearGradient>
<linearGradient id="paint8_linear_619_2413" x1="-11076.7" y1="10212.7" x2="-11000.7" y2="9961.96" gradientUnits="userSpaceOnUse">
<stop stop-color="#FF9085"/>
<stop offset="1" stop-color="#FB6FBB"/>
</linearGradient>
<linearGradient id="paint9_linear_619_2413" x1="-15217.8" y1="25266.7" x2="-15113.2" y2="24921.7" gradientUnits="userSpaceOnUse">
<stop stop-color="#FF9085"/>
<stop offset="1" stop-color="#FB6FBB"/>
</linearGradient>
<linearGradient id="paint10_linear_619_2413" x1="75.8578" y1="86.6546" x2="58.4515" y2="91.8371" gradientUnits="userSpaceOnUse">
<stop stop-color="#FCB148"/>
<stop offset="0.05" stop-color="#FDBA46"/>
<stop offset="0.14" stop-color="#FFC244"/>
<stop offset="0.32" stop-color="#FFC444"/>
<stop offset="0.48" stop-color="#FDB946"/>
<stop offset="0.78" stop-color="#F99C4D"/>
<stop offset="0.87" stop-color="#F8924F"/>
<stop offset="1" stop-color="#F8924F"/>
</linearGradient>
<linearGradient id="paint11_linear_619_2413" x1="89.7556" y1="68.2211" x2="72.4127" y2="103.715" gradientUnits="userSpaceOnUse">
<stop stop-color="#FFDB44"/>
<stop offset="1" stop-color="#FEEF06"/>
</linearGradient>
<linearGradient id="paint12_linear_619_2413" x1="29082.3" y1="55896.1" x2="27032.7" y2="45693.9" gradientUnits="userSpaceOnUse">
<stop stop-color="#FCB148"/>
<stop offset="0.05" stop-color="#FDBA46"/>
<stop offset="0.14" stop-color="#FFC244"/>
<stop offset="0.32" stop-color="#FFC444"/>
<stop offset="0.48" stop-color="#FDB946"/>
<stop offset="0.78" stop-color="#F99C4D"/>
<stop offset="0.87" stop-color="#F8924F"/>
<stop offset="1" stop-color="#F8924F"/>
</linearGradient>
<linearGradient id="paint13_linear_619_2413" x1="24583.8" y1="37935.7" x2="32502.3" y2="53251.1" gradientUnits="userSpaceOnUse">
<stop stop-color="#FCB148"/>
<stop offset="0.05" stop-color="#FDBA46"/>
<stop offset="0.14" stop-color="#FFC244"/>
<stop offset="0.32" stop-color="#FFC444"/>
<stop offset="0.48" stop-color="#FDB946"/>
<stop offset="0.78" stop-color="#F99C4D"/>
<stop offset="0.87" stop-color="#F8924F"/>
<stop offset="1" stop-color="#F8924F"/>
</linearGradient>
<linearGradient id="paint14_linear_619_2413" x1="12037.7" y1="28159.5" x2="16867.2" y2="38138.5" gradientUnits="userSpaceOnUse">
<stop stop-color="#FFDB44"/>
<stop offset="1" stop-color="#FEEF06"/>
</linearGradient>
<linearGradient id="paint15_linear_619_2413" x1="13495.7" y1="38862.7" x2="23054.1" y2="49918.5" gradientUnits="userSpaceOnUse">
<stop stop-color="#FCB148"/>
<stop offset="0.05" stop-color="#FDBA46"/>
<stop offset="0.14" stop-color="#FFC244"/>
<stop offset="0.32" stop-color="#FFC444"/>
<stop offset="0.48" stop-color="#FDB946"/>
<stop offset="0.78" stop-color="#F99C4D"/>
<stop offset="0.87" stop-color="#F8924F"/>
<stop offset="1" stop-color="#F8924F"/>
</linearGradient>
<linearGradient id="paint16_linear_619_2413" x1="15554.9" y1="16754.8" x2="10752.4" y2="18159.2" gradientUnits="userSpaceOnUse">
<stop stop-color="#FCB148"/>
<stop offset="0.05" stop-color="#FDBA46"/>
<stop offset="0.14" stop-color="#FFC244"/>
<stop offset="0.32" stop-color="#FFC444"/>
<stop offset="0.48" stop-color="#FDB946"/>
<stop offset="0.78" stop-color="#F99C4D"/>
<stop offset="0.87" stop-color="#F8924F"/>
<stop offset="1" stop-color="#F8924F"/>
</linearGradient>
<linearGradient id="paint17_linear_619_2413" x1="19379.7" y1="11590.4" x2="14469.1" y2="21462.5" gradientUnits="userSpaceOnUse">
<stop stop-color="#FFDB44"/>
<stop offset="1" stop-color="#FEEF06"/>
</linearGradient>
<linearGradient id="paint18_linear_619_2413" x1="17757.9" y1="21359.4" x2="16828.3" y2="16731.5" gradientUnits="userSpaceOnUse">
<stop stop-color="#FCB148"/>
<stop offset="0.05" stop-color="#FDBA46"/>
<stop offset="0.14" stop-color="#FFC244"/>
<stop offset="0.32" stop-color="#FFC444"/>
<stop offset="0.48" stop-color="#FDB946"/>
<stop offset="0.78" stop-color="#F99C4D"/>
<stop offset="0.87" stop-color="#F8924F"/>
<stop offset="1" stop-color="#F8924F"/>
</linearGradient>
<linearGradient id="paint19_linear_619_2413" x1="15562.8" y1="13350.2" x2="19155.2" y2="20298.1" gradientUnits="userSpaceOnUse">
<stop stop-color="#FCB148"/>
<stop offset="0.05" stop-color="#FDBA46"/>
<stop offset="0.14" stop-color="#FFC244"/>
<stop offset="0.32" stop-color="#FFC444"/>
<stop offset="0.48" stop-color="#FDB946"/>
<stop offset="0.78" stop-color="#F99C4D"/>
<stop offset="0.87" stop-color="#F8924F"/>
<stop offset="1" stop-color="#F8924F"/>
</linearGradient>
<linearGradient id="paint20_linear_619_2413" x1="7657.23" y1="9630.96" x2="9848.82" y2="14157.9" gradientUnits="userSpaceOnUse">
<stop stop-color="#FFDB44"/>
<stop offset="1" stop-color="#FEEF06"/>
</linearGradient>
<linearGradient id="paint21_linear_619_2413" x1="8768.65" y1="13779.6" x2="13104.5" y2="18794.7" gradientUnits="userSpaceOnUse">
<stop stop-color="#FCB148"/>
<stop offset="0.05" stop-color="#FDBA46"/>
<stop offset="0.14" stop-color="#FFC244"/>
<stop offset="0.32" stop-color="#FFC444"/>
<stop offset="0.48" stop-color="#FDB946"/>
<stop offset="0.78" stop-color="#F99C4D"/>
<stop offset="0.87" stop-color="#F8924F"/>
<stop offset="1" stop-color="#F8924F"/>
</linearGradient>
</defs>
</svg>
